<?xml version="1.0" encoding="UTF-8"?>
<svg version="1.1" xmlns="http://www.w3.org/2000/svg" width="2000" height="437">
<path d="M0 0 C9.31480532 8.71437362 14.45993959 18.88049907 18 31 C22.11017958 27.60463426 25.88115356 24.10780768 29.5625 20.25 C54.1372947 -4.39859288 89.91292069 -15.68466602 124.12890625 -16.03173828 C148.89022511 -15.81737085 177.07518349 -12.70678362 195.80859375 5.34765625 C205.09754668 16.59043529 207.35476801 29.22366904 207.3125 43.375 C207.32861328 44.41527344 207.34472656 45.45554688 207.36132812 46.52734375 C207.37108318 62.7402489 203.64651088 78.48248956 199.5 94.0625 C199.06278643 95.73323298 198.62642241 97.40418848 198.19084167 99.0753479 C197.27531148 102.5811909 196.3543148 106.0855277 195.42855835 109.58868408 C193.97731509 115.08062143 192.5389758 120.57588772 191.1027832 126.07177734 C189.4504551 132.3920324 187.7958123 138.71166804 186.13706303 145.03024101 C183.31915138 155.76523862 180.53067831 166.50735406 177.78988647 177.2623291 C177.18901664 179.61905147 176.5855752 181.9751035 175.98168945 184.33105469 C173.82151817 192.77268943 171.69179017 201.22162237 169.58585644 209.67694664 C168.1628327 215.38982857 166.73290598 221.10096035 165.29948902 226.81124306 C164.41330184 230.34384519 163.53112992 233.87734367 162.65878296 237.41339111 C153.30821807 275.29633878 153.30821807 275.29633878 142 289 C141.40703125 289.76699219 140.8140625 290.53398437 140.203125 291.32421875 C126.39845543 308.22608982 103.9697007 318.24522599 82.56396484 320.55297852 C76.15633687 321.15857211 69.76698966 321.12492879 63.3359375 321.09765625 C61.4261058 321.09553383 61.4261058 321.09553383 59.47769165 321.09336853 C56.12735022 321.08875005 52.77707973 321.07979885 49.42675781 321.06866455 C45.99414679 321.0583512 42.56152837 321.05384986 39.12890625 321.04882812 C32.4192516 321.03785054 25.70962988 321.02115135 19 321 C19.62055913 315.15260491 20.71016932 309.62310796 22.17030334 303.93197632 C22.3916696 303.05297153 22.61303585 302.17396674 22.84111017 301.26832545 C23.5797902 298.33968074 24.32520644 295.41279344 25.07055664 292.48583984 C25.60317255 290.37943844 26.13532098 288.27291878 26.66703796 286.16629028 C27.81102122 281.63682311 28.95770341 277.10805082 30.10630989 272.57975388 C31.92404899 265.41082224 33.73200925 258.23944736 35.53794861 251.0675354 C40.67391171 230.67577954 45.81592684 210.28558817 50.98364258 189.90185547 C53.8390229 178.63864903 56.68254253 167.37251823 59.51289076 156.10299456 C61.00962145 150.14568562 62.51243503 144.19006062 64.02998543 138.23801804 C65.45839839 132.63547729 66.87126131 127.02924023 68.27261543 121.41987228 C68.78765959 119.3698789 69.30831173 117.32128444 69.835186 115.27429962 C74.95806369 97.16120123 74.95806369 97.16120123 72.75 78.875 C69.51986746 73.56835369 65.9889566 70.75962089 60 69 C56.38677432 68.57718332 52.82173743 68.58040813 49.1875 68.625 C47.78661133 68.60759766 47.78661133 68.60759766 46.35742188 68.58984375 C34.97918941 68.63722015 25.78776795 71.85793619 17.31640625 79.5234375 C2.47822174 95.32514048 -0.323484 121.90223789 -5.26558304 142.25143814 C-6.19752231 146.08295781 -7.13573657 149.91293861 -8.07397461 153.74291992 C-8.26391274 154.51828315 -8.45385088 155.29364637 -8.64954472 156.09250546 C-9.03573417 157.66886425 -9.42195618 159.24521507 -9.80821037 160.821558 C-10.39264009 163.20744518 -10.97646626 165.59347942 -11.56019592 167.97953796 C-15.34325729 183.43666472 -19.19406885 198.87655117 -23.0625 214.3125 C-23.3886801 215.61435748 -23.71485198 216.91621701 -24.04101562 218.21807861 C-25.34941457 223.44022424 -26.65786472 228.66235697 -27.96691895 233.88433838 C-30.28376759 243.12867993 -32.58983427 252.37567809 -34.89169502 261.62376213 C-35.99637271 266.06101609 -37.10231604 270.4979548 -38.20822048 274.93490314 C-39.09073351 278.47612474 -39.97240136 282.01755224 -40.8520813 285.55947876 C-41.82201911 289.46476864 -42.79566108 293.36912639 -43.76953125 297.2734375 C-44.05318542 298.41837173 -44.3368396 299.56330597 -44.62908936 300.74293518 C-49.25691263 319.25691263 -49.25691263 319.25691263 -51 321 C-52.56887635 321.09591199 -54.14207792 321.12187996 -55.71388245 321.12025452 C-56.73336975 321.12162918 -57.75285706 321.12300385 -58.80323792 321.12442017 C-59.931082 321.12082489 -61.05892609 321.11722961 -62.22094727 321.11352539 C-63.40127533 321.11367142 -64.58160339 321.11381744 -65.79769897 321.1139679 C-69.04342108 321.11338895 -72.28910055 321.10835986 -75.53481412 321.10139394 C-78.92343032 321.09515962 -82.31204728 321.09455654 -85.70066833 321.09336853 C-92.12155804 321.09025544 -98.54243081 321.08204236 -104.96331304 321.07201904 C-112.27153825 321.0608572 -119.57976424 321.05534727 -126.88799584 321.05032361 C-141.92534002 321.03985973 -156.96266832 321.02226073 -172 321 C-173.68526516 317.62946969 -171.97349999 314.10252904 -171.07693481 310.59294128 C-170.85798298 309.71271295 -170.63903114 308.83248462 -170.4134444 307.92558271 C-169.67312502 304.956724 -168.92270172 301.990511 -168.17236328 299.02416992 C-167.64151104 296.90408823 -167.11128265 294.78385024 -166.58163452 292.66346741 C-165.13740841 286.88912133 -163.68450143 281.11699003 -162.23015451 275.345186 C-160.71198413 269.31363701 -159.20195139 263.28005188 -157.69113159 257.24665833 C-155.15156386 247.10952655 -152.60723505 236.9736 -150.05908203 226.83862305 C-147.4372639 216.41058288 -144.81771248 205.98197845 -142.20166016 195.55249023 C-142.04066507 194.91065165 -141.87966999 194.26881307 -141.71379627 193.60752483 C-139.95600125 186.59950832 -138.19869446 179.5913694 -136.4414959 172.58320332 C-135.82109816 170.10896019 -135.20069681 167.63471797 -134.58029175 165.16047668 C-134.27743315 163.95259202 -133.97457454 162.74470735 -133.66253841 161.50022012 C-131.85920927 154.30903626 -130.05386579 147.1183618 -128.24673104 139.92813337 C-127.12288877 135.45613359 -125.99992008 130.9839147 -124.87707901 126.51166344 C-124.35546208 124.43506733 -123.83342353 122.35857708 -123.31093597 120.28219986 C-122.59855861 117.4510722 -121.88762927 114.61958465 -121.17703247 111.78800964 C-120.96915198 110.96349326 -120.7612715 110.13897687 -120.5470916 109.28947514 C-116.31682441 92.44851747 -116.31682441 92.44851747 -120.1875 76.125 C-123.40127334 72.06693028 -126.97528662 70.04925475 -132 69 C-135.37181017 68.75561227 -138.7451918 68.76888161 -142.125 68.75 C-143.02476562 68.729375 -143.92453125 68.70875 -144.8515625 68.6875 C-156.37420559 68.62127791 -164.53393725 71.86341815 -172.83984375 79.74609375 C-180.79181516 88.11567416 -184.63854749 98.73707819 -187.3828125 109.75390625 C-187.81486496 111.42133629 -187.81486496 111.42133629 -188.25564575 113.12245178 C-189.1875436 116.74420041 -190.09651448 120.37106553 -191 124 C-191.30723999 125.22628113 -191.61447998 126.45256226 -191.93103027 127.71600342 C-193.92118653 135.67624201 -195.87678787 143.64459528 -197.82061768 151.61624146 C-199.6680323 159.19174183 -201.52852149 166.76403638 -203.390625 174.3359375 C-203.58140751 175.11189585 -203.77219002 175.88785419 -203.96875381 176.68732643 C-208.61371025 195.56900349 -213.40083564 214.41401312 -218.20357704 233.25605297 C-219.07618873 236.67972324 -219.9483901 240.10349788 -220.8203125 243.52734375 C-220.99184719 244.20079897 -221.16338188 244.87425419 -221.34011459 245.56811714 C-224.04829118 256.20535003 -226.717768 266.85189694 -229.3671875 277.50390625 C-229.72155796 278.92764018 -230.07593816 280.35137169 -230.43032837 281.77510071 C-231.78583568 287.2226072 -233.14106897 292.67017257 -234.48760986 298.11990356 C-235.3951671 301.79157997 -236.3066603 305.46225991 -237.21875 309.1328125 C-237.48767059 310.22715103 -237.75659119 311.32148956 -238.03366089 312.44898987 C-238.27972076 313.43664841 -238.52578064 314.42430695 -238.77929688 315.44189453 C-238.99227417 316.30348175 -239.20525146 317.16506897 -239.42468262 318.05276489 C-240 320 -240 320 -241 321 C-242.58154848 321.09594225 -244.16739125 321.1218796 -245.75184631 321.12025452 C-247.2936985 321.12231651 -247.2936985 321.12231651 -248.86669922 321.12442017 C-250.57249146 321.11902725 -250.57249146 321.11902725 -252.31274414 321.11352539 C-254.09786659 321.11374443 -254.09786659 321.11374443 -255.91905212 321.1139679 C-259.19163274 321.11338894 -262.46417107 321.10835981 -265.73674321 321.10139394 C-269.15338665 321.09515967 -272.57003083 321.09455654 -275.98667908 321.09336853 C-282.46069267 321.09025543 -288.93468946 321.08204233 -295.40869564 321.07201904 C-302.7773792 321.06085725 -310.14606355 321.05534729 -317.51475346 321.05032361 C-332.67651169 321.03985969 -347.83825417 321.02226066 -363 321 C-361.93603843 314.26915196 -360.78505506 307.63768164 -359.09912109 301.03417969 C-358.91934219 300.32423355 -358.73956329 299.61428741 -358.55433655 298.88282776 C-357.96529135 296.56131511 -357.36938359 294.24162476 -356.7734375 291.921875 C-356.34919965 290.25502032 -355.92543438 288.58804529 -355.50210571 286.92095947 C-354.6011421 283.37645345 -353.69727395 279.83270671 -352.79101562 276.28955078 C-351.35301775 270.66697285 -349.92183688 265.04267452 -348.4921875 259.41796875 C-348.25262455 258.47549538 -348.0130616 257.533022 -347.76623917 256.56198883 C-347.28186312 254.65632697 -346.79750973 252.75065935 -346.31317902 250.84498596 C-345.58486618 247.98016094 -344.85594109 245.11549226 -344.12689209 242.25085449 C-340.03775499 226.17877572 -336.00782321 210.09253694 -332 194 C-325.4473193 167.71054851 -318.80963092 141.4429987 -312.15133667 115.18011475 C-307.50931613 96.86977939 -302.87733233 78.55729026 -298.31640625 60.2265625 C-297.94726783 58.74399513 -297.57811717 57.2614308 -297.20895386 55.77886963 C-295.14400445 47.48379186 -295.14400445 47.48379186 -293.08886719 39.1862793 C-292.17813706 35.50103772 -291.26314877 31.81687338 -290.34765625 28.1328125 C-289.96922325 26.59108871 -289.96922325 26.59108871 -289.58314514 25.01821899 C-286.98444704 14.58835168 -283.95959068 4.35856738 -281 -6 C-240.41 -6 -199.82 -6 -158 -6 C-159.12437758 5.24377582 -159.12437758 5.24377582 -160.41015625 10.15625 C-160.67763672 11.1978125 -160.94511719 12.239375 -161.22070312 13.3125 C-161.49849609 14.364375 -161.77628906 15.41625 -162.0625 16.5 C-162.61783114 18.63491149 -163.17131533 20.77030455 -163.72265625 22.90625 C-163.96765869 23.83759766 -164.21266113 24.76894531 -164.46508789 25.72851562 C-165.0764067 27.9355219 -165.0764067 27.9355219 -165 30 C-164.5875 29.5153125 -164.175 29.030625 -163.75 28.53125 C-161.85612054 26.33299705 -159.93507591 24.1620752 -158 22 C-157.4328125 21.36449219 -156.865625 20.72898438 -156.28125 20.07421875 C-121.68115879 -16.57456207 -41.82586551 -33.42034592 0 0 Z " fill="#0064AD" transform="translate(1741,110)"/>
<path d="M0 0 C1.30363495 -0.00021904 1.30363495 -0.00021904 2.63360596 -0.0004425 C5.4850114 0.00025003 8.33635021 0.00801139 11.18774414 0.01586914 C13.17314112 0.01773566 15.15853855 0.01915846 17.14393616 0.02015686 C22.35366094 0.02396358 27.56335758 0.03377804 32.77307129 0.04486084 C38.09553649 0.0551147 43.41800627 0.05966298 48.74047852 0.06469727 C59.17213147 0.07540204 69.60376358 0.0924562 80.03540039 0.11352539 C81.06829982 7.17356621 81.35518947 14.19570241 81.60449219 21.32202148 C81.65384331 22.65986831 81.70350654 23.99770365 81.75345325 25.33552837 C81.8892336 28.99610178 82.02064924 32.65682068 82.15134811 36.31757855 C82.29317413 40.2679206 82.4391236 44.21811052 82.58459473 48.1683197 C82.83608083 55.01192368 83.08506307 61.855615 83.33236694 68.69937134 C83.69226016 78.65768914 84.05628773 88.61585251 84.42148364 98.57397711 C84.97803979 113.75058735 85.53262467 128.92726861 86.08577573 144.10400331 C87.26244759 176.38455511 88.45451054 208.66453577 89.64996052 240.94439697 C89.99296261 250.20696062 90.33528819 259.46954864 90.67646676 268.73217964 C90.96857813 276.66218755 91.26154862 284.59216356 91.55478311 292.52213001 C91.64032282 294.83702198 91.72569229 297.15192018 91.81102562 299.46681976 C92.43935325 316.50200261 93.08649702 333.53625632 93.77040756 350.56930554 C93.87713533 353.23017888 93.98337934 355.89107109 94.0894556 358.55197048 C94.15934952 360.30443779 94.22924715 362.05690494 94.29914856 363.80937195 C94.33345822 364.66984554 94.36776789 365.53031913 94.40311724 366.41686767 C94.60330745 371.42736277 94.80721047 376.43768878 95.01409388 381.44791174 C95.14179347 384.5597851 95.26617271 387.67178559 95.38979697 390.78382325 C95.4468826 392.20317184 95.50532245 393.62246689 95.56538796 395.0416925 C96.04596335 406.41729456 96.03540039 417.70869869 96.03540039 429.11352539 C49.50540039 429.11352539 2.97540039 429.11352539 -44.96459961 429.11352539 C-42.18682183 362.44685872 -42.18682183 362.44685872 -40.96459961 355.11352539 C-74.95459961 355.11352539 -108.94459961 355.11352539 -143.96459961 355.11352539 C-144.29459961 356.76352539 -144.62459961 358.41352539 -144.96459961 360.11352539 C-145.95236718 362.49030232 -146.97532124 364.80709518 -148.07006836 367.13305664 C-148.3861908 367.81688919 -148.70231323 368.50072174 -149.02801514 369.20527649 C-149.70991658 370.67971593 -150.39408662 372.15310789 -151.08029175 373.62554932 C-152.90250765 377.53666459 -154.70767172 381.45560959 -156.51147461 385.37524414 C-157.06562294 386.57866455 -157.06562294 386.57866455 -157.63096619 387.80639648 C-162.13374393 397.61516773 -166.42936229 407.51389481 -170.70947266 417.42138672 C-170.99026672 418.0692363 -171.27106079 418.71708588 -171.56036377 419.38456726 C-172.31570645 421.12807135 -173.06788113 422.87294696 -173.81982422 424.61791992 C-174.96459961 427.11352539 -174.96459961 427.11352539 -175.96459961 428.11352539 C-179.10219593 428.27781893 -182.21882096 428.37485333 -185.35913086 428.42993164 C-186.37355759 428.45075806 -187.38798431 428.47158447 -188.43315125 428.49304199 C-191.88104604 428.56054032 -195.32901785 428.61891449 -198.77709961 428.67602539 C-200.55914795 428.70779373 -200.55914795 428.70779373 -202.37719727 428.74020386 C-240.2346347 429.39986184 -278.10310669 429.20412377 -315.96459961 429.11352539 C-315.26503028 425.30379416 -314.25190309 422.36848244 -312.44506836 418.92993164 C-311.92396484 417.9321167 -311.40286133 416.93430176 -310.8659668 415.90625 C-310.01760254 414.30728882 -310.01760254 414.30728882 -309.15209961 412.67602539 C-308.56460937 411.55784424 -307.97711914 410.43966309 -307.37182617 409.28759766 C-303.24409984 401.45744941 -299.03058505 393.67588125 -294.76806641 385.91845703 C-290.25489032 377.69147311 -285.85608721 369.40583361 -281.46459961 361.11352539 C-276.22736513 351.22612658 -270.94639821 341.36727548 -265.56225586 331.55883789 C-261.12250514 323.44937451 -256.792353 315.28308235 -252.46459961 307.11352539 C-247.17538572 297.12978934 -241.84548265 287.17228818 -236.41503906 277.2644043 C-232.4525219 270.02791868 -228.54436526 262.76300389 -224.65209961 255.48852539 C-224.33755829 254.90069275 -224.02301697 254.31286011 -223.69894409 253.70721436 C-222.09619358 250.71143335 -220.49408913 247.71530744 -218.89233398 244.71899414 C-215.73189135 238.80724835 -212.56716461 232.89779751 -209.40209961 226.98852539 C-208.78101318 225.82885254 -208.15992676 224.66917969 -207.52001953 223.47436523 C-202.77071179 214.61006449 -198.00480594 205.75478283 -193.23388672 196.90209961 C-188.96536153 188.97903571 -184.71198314 181.04793935 -180.46459961 173.11352539 C-173.89685409 160.84518084 -167.30476678 148.59008841 -160.70288086 136.34008789 C-158.35527364 131.98250685 -156.01024025 127.62354325 -153.66552734 123.2644043 C-152.49444411 121.08891007 -151.32209037 118.91409925 -150.1484375 116.73999023 C-147.28250278 111.43056206 -144.43226164 106.11404972 -141.61694336 100.77758789 C-132.35289254 83.29469643 -122.44005833 66.69541932 -108.96459961 52.11352539 C-108.23684326 51.32002686 -108.23684326 51.32002686 -107.49438477 50.51049805 C-94.64272752 36.66162201 -79.80089921 25.64391719 -62.96459961 17.11352539 C-62.33312012 16.79158203 -61.70164063 16.46963867 -61.05102539 16.13793945 C-42.33283315 6.71373238 -21.09356362 -0.09396852 0 0 Z M-27.96459961 100.11352539 C-28.45319458 101.16588379 -28.45319458 101.16588379 -28.95166016 102.23950195 C-34.05623372 113.2339681 -39.16080729 124.22843424 -44.26538086 135.22290039 C-44.79405762 136.36162598 -45.32273437 137.50035156 -45.86743164 138.67358398 C-46.94251246 140.98906683 -48.01770995 143.30449552 -49.09301758 145.61987305 C-51.76774623 151.37953536 -54.4406104 157.14004636 -57.10913086 162.90258789 C-63.039064 175.70170421 -69.01181596 188.47937182 -75.02709961 201.23852539 C-81.24261198 214.42328015 -87.3894782 227.63782216 -93.47631836 240.88256836 C-95.10187599 244.41154305 -96.73563097 247.93667782 -98.37084961 251.46118164 C-98.93568393 252.67990584 -99.50046324 253.89865554 -100.06518555 255.11743164 C-101.14517735 257.44750276 -102.22650659 259.77695454 -103.30932617 262.10571289 C-103.78853516 263.14083008 -104.26774414 264.17594727 -104.76147461 265.24243164 C-105.18783203 266.16096924 -105.61418945 267.07950684 -106.0534668 268.02587891 C-107.03126684 269.88664221 -107.03126684 269.88664221 -106.96459961 271.11352539 C-83.53459961 271.11352539 -60.10459961 271.11352539 -35.96459961 271.11352539 C-33.90051198 238.64598488 -31.9633756 206.17539853 -30.17480469 173.69165039 C-29.83910718 167.59817542 -29.49814376 161.5050062 -29.15607166 155.41188622 C-28.8883545 150.62826824 -28.62413234 145.84446182 -28.36087608 141.06059647 C-28.23654461 138.81131696 -28.11098357 136.56210502 -27.98407936 134.31296921 C-27.34156558 122.90233632 -26.74757536 111.54659052 -26.96459961 100.11352539 C-27.29459961 100.11352539 -27.62459961 100.11352539 -27.96459961 100.11352539 Z " fill="#0064AD" transform="translate(315.964599609375,-0.113525390625)"/>
<path d="M0 0 C0.9061225 0.00092179 1.81224501 0.00184359 2.74582577 0.00279331 C3.78214138 0.00141865 4.81845699 0.00004398 5.88617611 -0.00137234 C7.60599445 0.00402058 7.60599445 0.00402058 9.3605566 0.00952244 C10.56039181 0.00937641 11.76022701 0.00923038 12.99642086 0.00907993 C16.29586749 0.00965889 19.59525222 0.01468805 22.89468789 0.02165389 C26.33935856 0.0278881 29.78402997 0.02849128 33.22870541 0.0296793 C39.75584288 0.03279242 46.28296369 0.04100554 52.81009382 0.05102879 C60.23923575 0.06219053 67.66837845 0.06770053 75.09752667 0.07272422 C90.38369931 0.08318817 105.6698553 0.10078723 120.95601559 0.12304783 C120.40431192 4.96721522 119.71034961 9.61013315 118.53584957 14.34961033 C118.24657589 15.52641361 117.95730221 16.7032169 117.65926266 17.91568089 C117.34340206 19.18036198 117.02754147 20.44504307 116.70210934 21.74804783 C116.36615505 23.1070332 116.03059405 24.46611585 115.69539547 25.82528782 C114.78956669 29.49305113 113.87793916 33.1593501 112.96509075 36.82537174 C111.99943793 40.70720136 111.03879822 44.59027194 110.07735348 48.47314548 C107.89958301 57.26318588 105.71293608 66.05100604 103.52474117 74.83845615 C102.80155095 77.74353799 102.07916365 80.64881909 101.35686207 83.55412197 C95.15405898 108.50333496 88.92028104 133.44447942 82.57320309 158.35742283 C82.20745928 159.7937108 81.84172134 161.23000026 81.47598934 162.66629124 C78.63099459 173.83613066 78.63099459 173.83613066 77.25481319 179.2047739 C75.12772852 187.50411597 73.02223097 195.80833082 70.95601559 204.12304783 C70.69238216 205.17891087 70.42874874 206.2347739 70.15712643 207.32263279 C69.42254641 210.29173838 68.70715953 213.26473493 67.99898434 216.24023533 C67.68324207 217.50989643 67.68324207 217.50989643 67.36112118 218.80520725 C65.33471049 227.52585011 64.56949175 236.09332509 68.77242184 244.25195408 C72.05091539 249.43478712 76.59380332 251.04746004 82.28414059 252.58789158 C95.58454449 255.25186137 108.01535355 251.36388477 119.08101559 244.06054783 C125.93223851 237.75122954 130.06105642 229.73970101 132.86609554 221.01536655 C133.12055201 220.23611236 133.37500847 219.45685817 133.63717574 218.65399021 C136.65136598 209.22550689 139.02359533 199.63929498 141.39473629 190.03344822 C141.90569539 187.98627283 142.41728545 185.93925484 142.92945004 183.89238071 C144.30317143 178.39497141 145.66826615 172.89545384 147.03176045 167.39550042 C148.464724 161.62209069 149.90601544 155.85076064 151.34644222 150.07920933 C154.06704112 139.17310879 156.78063758 128.26527943 159.49148291 117.35675091 C163.47888744 101.31268424 167.47698967 85.27128289 171.47500801 69.2298584 C172.06472502 66.86364367 172.65443815 64.49742797 173.2441473 62.13121128 C173.53193639 60.9765052 173.81972547 59.82179912 174.11623544 58.63210195 C175.82728182 51.76580391 177.53631105 44.89900769 179.24353564 38.03175843 C180.30167201 33.77588233 181.36066999 29.52022089 182.41979313 25.26459026 C182.9116359 23.28733367 183.4030588 21.30997257 183.8940382 19.33250141 C184.56230024 16.6411256 185.23198901 13.95010867 185.90201473 11.25917149 C186.09733848 10.47087092 186.29266224 9.68257035 186.49390489 8.87038189 C187.23074199 5.91601472 187.99268832 3.01302964 188.95601559 0.12304783 C229.54601559 0.12304783 270.13601559 0.12304783 311.95601559 0.12304783 C307.35596075 20.82329458 307.35596075 20.82329458 304.76851559 31.10351658 C304.47372311 32.28259083 304.17893063 33.46166508 303.87520504 34.67646885 C303.07282339 37.88291714 302.26823973 41.08880195 301.46248531 44.29440403 C300.77068091 47.04832411 300.08074919 49.80271224 299.39070797 52.55707455 C293.1955314 77.28201032 286.93402178 101.99019098 280.66939449 126.69760227 C274.73688967 150.09553499 268.84764247 173.50362549 263.00810909 196.92492771 C256.3028999 223.81125894 249.5033992 250.67351583 242.69234371 277.53320408 C242.28014196 279.15897698 241.86794102 280.78475009 241.45574093 282.41052341 C240.66881354 285.51422353 239.88141714 288.61780415 239.09374142 291.72131443 C237.48290547 298.07134191 235.87676611 304.42234541 234.30123043 310.78125095 C234.06494427 311.73449253 233.8286581 312.68773411 233.58521175 313.66986179 C233.1702005 315.3491956 232.75725064 317.02904103 232.34696102 318.70953465 C231.06457153 323.90593593 231.06457153 323.90593593 229.95601559 326.12304783 C189.69601559 326.12304783 149.43601559 326.12304783 107.95601559 326.12304783 C109.07926147 316.01383489 109.07926147 316.01383489 110.40132809 311.02929783 C110.67332027 309.98000095 110.94531246 308.93070408 111.22554684 307.84961033 C111.50785152 306.7848447 111.79015621 305.72007908 112.08101559 304.62304783 C112.65141823 302.4681934 113.21682275 300.31200739 113.77632809 298.15429783 C114.02656734 297.21134861 114.2768066 296.26839939 114.53462887 295.29687595 C114.67368649 294.57951267 114.8127441 293.86214939 114.95601559 293.12304783 C114.62601559 292.79304783 114.29601559 292.46304783 113.95601559 292.12304783 C113.28119137 292.94095798 113.28119137 292.94095798 112.59273434 293.77539158 C107.26910261 300.01652296 101.4644182 305.14549484 94.95601559 310.12304783 C94.16453121 310.73019627 93.37304684 311.3373447 92.55757809 311.96289158 C70.27809767 328.2839063 44.19057011 334.88804453 16.87740231 334.69946384 C14.08858932 334.68558552 11.30314315 334.71986589 8.51460934 334.75781345 C-13.91185829 334.85480608 -37.13846523 329.83853047 -54.04398441 314.12304783 C-54.6769141 313.55457127 -55.30984379 312.9860947 -55.96195316 312.40039158 C-65.22212664 303.10072909 -67.21463349 289.52258859 -67.29398441 276.93554783 C-67.31460941 276.16791111 -67.33523441 275.40027439 -67.35648441 274.60937595 C-67.47565158 255.79585993 -61.85317272 237.16878643 -57.37949467 219.05690861 C-56.66707116 216.16727638 -55.96047509 213.2762311 -55.25380993 210.3851862 C-48.6259397 183.27283056 -41.85759492 156.19497813 -35.05738163 129.12541294 C-31.82037141 116.23935594 -28.59799372 103.34965791 -25.37749863 90.45946503 C-24.20792716 85.77849051 -23.03724361 81.09779514 -21.8660059 76.41723728 C-18.94633706 64.74814264 -16.03029102 53.07818874 -13.13341618 41.40341282 C-11.91379242 36.48878865 -10.69178019 31.57475977 -9.46961308 26.66076756 C-8.89803279 24.35941067 -8.32772303 22.05773782 -7.75873661 19.75573826 C-6.98321527 16.61828241 -6.20353134 13.48188938 -5.42289066 10.34570408 C-5.19454533 9.41683887 -4.96619999 8.48797367 -4.7309351 7.53096104 C-4.52172428 6.69389118 -4.31251347 5.85682133 -4.09696293 4.99438572 C-3.82626736 3.90161068 -3.82626736 3.90161068 -3.55010319 2.78675938 C-2.81551965 0.37203942 -2.56275959 0.15427809 0 0 Z " fill="#0064AD" transform="translate(1090.043984413147,102.87695217132568)"/>
<path d="M0 0 C40.59 0 81.18 0 123 0 C121.87499176 9.00006595 121.87499176 9.00006595 121.01330566 12.28266907 C120.81985062 13.02977646 120.62639557 13.77688385 120.42707825 14.54663086 C120.21717758 15.33602051 120.00727692 16.12541016 119.79101562 16.9387207 C119.56814377 17.79338425 119.34527191 18.64804779 119.11564636 19.52861023 C118.3840715 22.32897396 117.64526235 25.12737195 116.90625 27.92578125 C116.3939914 29.88003275 115.88215704 31.8343955 115.37072754 33.78886414 C114.02763895 38.91642514 112.67825353 44.04230927 111.32769775 49.16790771 C110.22427216 53.36004621 109.12542645 57.55337867 108.02680206 61.74677753 C106.71737076 66.74436192 105.40582417 71.74139017 104.09375 76.73828125 C103.84325394 77.69257837 103.59275787 78.6468755 103.33467102 79.63009071 C102.62725014 82.32311306 101.91838436 85.01575036 101.20898438 87.70825195 C100.99908371 88.50776276 100.78918304 89.30727356 100.57292175 90.13101196 C99.7847371 93.11747252 98.97704071 96.06887788 98 99 C114.83 99 131.66 99 149 99 C146.62307631 109.69615661 144.239906 120.34973364 141.58203125 130.97265625 C141.27931808 132.18779404 140.97660492 133.40293182 140.66471863 134.65489197 C140.03490661 137.17981037 139.403908 139.70443308 138.77172852 142.22875977 C137.96149014 145.46703242 137.1552225 148.70623894 136.35100269 151.94600773 C135.57707937 155.0598655 134.79803371 158.1724407 134.01953125 161.28515625 C133.73100784 162.44845963 133.44248444 163.611763 133.1452179 164.81031799 C132.87791367 165.87330612 132.61060944 166.93629425 132.33520508 168.03149414 C131.98357048 169.43897667 131.98357048 169.43897667 131.62483215 170.87489319 C131 173 131 173 130 174 C128.40389018 174.09333705 126.80366572 174.11745372 125.20483398 174.11352539 C124.18385117 174.11344986 123.16286835 174.11337433 122.11094666 174.11329651 C121.0005452 174.10813522 119.89014374 174.10297394 118.74609375 174.09765625 C117.61551041 174.0962413 116.48492706 174.09482635 115.32008362 174.09336853 C111.69252935 174.08775019 108.06503576 174.07519458 104.4375 174.0625 C101.98502693 174.05748736 99.5325529 174.05292405 97.08007812 174.04882812 C91.05336455 174.0377748 85.02668661 174.02101884 79 174 C78.76377426 175.0793985 78.52754852 176.158797 78.28416443 177.27090454 C75.80758345 188.53282199 73.18119803 199.75279514 70.47265625 210.9609375 C70.04240883 212.74566204 69.61224542 214.53040684 69.18215942 216.31517029 C68.27689457 220.06997528 67.37039569 223.82447958 66.46298218 227.57876587 C65.52381657 231.4644864 64.58603898 235.35053746 63.64956665 239.23690796 C59.09029513 258.15644077 54.5292466 277.07412986 49.7265625 295.93359375 C49.41559128 297.157901 49.10462006 298.38220825 48.78422546 299.64361572 C47.39214802 305.11580804 45.9866622 310.58392467 44.55688477 316.04638672 C44.0727539 317.93318473 43.58892669 319.8200607 43.10546875 321.70703125 C42.77894821 322.921381 42.77894821 322.921381 42.4458313 324.16026306 C40.7250071 330.95179393 39.55898208 337.95169286 42.625 344.4375 C47.29286857 349.47388451 52.57642155 350.78235471 59.22973633 351.20532227 C60.41849365 351.24197998 61.60725098 351.2786377 62.83203125 351.31640625 C64.12431641 351.35830078 65.41660156 351.40019531 66.74804688 351.44335938 C68.10286192 351.48316352 69.45767967 351.52287591 70.8125 351.5625 C72.18686105 351.60573723 73.56121024 351.64935312 74.93554688 351.69335938 C78.29026669 351.7992979 81.6450586 351.90137189 85 352 C84.32690706 359.01484067 82.70378664 365.64556754 80.9453125 372.4609375 C80.64309784 373.64668365 80.34088318 374.83242981 80.0295105 376.05410767 C79.39127521 378.5542377 78.75069432 381.05376999 78.10791016 383.55273438 C77.13037032 387.35411633 76.16026689 391.15733528 75.19140625 394.9609375 C74.56814602 397.39854945 73.94446198 399.83605309 73.3203125 402.2734375 C73.0327005 403.39978607 72.7450885 404.52613464 72.44876099 405.68661499 C71.15328237 410.71513054 69.83099537 415.73617319 68.41748047 420.73291016 C68.19220673 421.53459625 67.96693298 422.33628235 67.73483276 423.16226196 C67 425 67 425 65 426 C63.35133853 426.21032758 61.69587664 426.36851147 60.0390625 426.5 C58.51333618 426.6230249 58.51333618 426.6230249 56.95678711 426.74853516 C55.85729736 426.83151855 54.75780762 426.91450195 53.625 427 C51.91098999 427.13027588 51.91098999 427.13027588 50.16235352 427.26318359 C46.77534976 427.51544 43.38779019 427.75857008 40 428 C39.17709473 428.06219727 38.35418945 428.12439453 37.50634766 428.18847656 C-52.0283935 434.8089334 -52.0283935 434.8089334 -82.0625 412.1875 C-89.81068185 404.83064046 -91.95345059 394.17454043 -92.33540344 383.95649719 C-92.45891241 376.87907637 -91.88228443 370.14868326 -90.421875 363.2265625 C-90.24761993 362.38055984 -90.07336487 361.53455719 -89.89382935 360.66291809 C-87.35787139 348.62518622 -84.35523489 336.69269666 -81.38847733 324.7555809 C-80.86431942 322.64448289 -80.34191095 320.53295909 -79.82003784 318.42129517 C-74.12646649 295.3845956 -68.31762538 272.37762352 -62.46679688 249.38043213 C-55.36328107 221.45928565 -48.35647361 193.51439661 -41.375 165.5625 C-41.10585911 164.48501369 -40.83671822 163.40752739 -40.55942154 162.29738998 C-37.66000318 150.68956535 -34.76177196 139.08144462 -31.86425781 127.47314453 C-29.34652739 117.38651235 -26.82651745 107.30045171 -24.3046875 97.21484375 C-24.12646328 96.50206331 -23.94823906 95.78928288 -23.76461411 95.05490303 C-22.90833248 91.63041059 -22.05199432 88.2059323 -21.19561768 84.78146362 C-19.76033944 79.04187924 -18.3254942 73.30218665 -16.890625 67.5625 C-11.26041667 45.04166667 -5.63020833 22.52083333 0 0 Z " fill="#0064AD" transform="translate(721,4)"/>
<path d="M0 0 C40.59 0 81.18 0 123 0 C118.4052076 20.6765658 118.4052076 20.6765658 116.41308594 28.57470703 C116.06986172 29.94803774 116.06986172 29.94803774 115.71970367 31.34911251 C114.97682689 34.31924345 114.23063173 37.28852917 113.484375 40.2578125 C112.95077734 42.38849178 112.4173965 44.51922537 111.88421631 46.65000916 C110.46811023 52.30689934 109.04915822 57.96307188 107.62960815 63.61909866 C106.1478896 69.52486368 104.66876302 75.43127776 103.18945312 81.33764648 C101.42001802 88.40173249 99.65033834 95.46575678 97.87939453 102.52946472 C94.6991387 115.21453866 91.52336238 127.9007021 88.359375 140.58984375 C81.62964046 167.57448996 74.84481792 194.54436118 68 221.5 C60.82906895 249.74009514 53.72827211 277.99699179 46.67678833 306.2671814 C41.98918868 325.05865141 37.28943155 343.84708413 32.59155273 362.63598633 C27.0605086 384.75719257 21.53034524 406.87861903 16 429 C-24.59 429 -65.18 429 -107 429 C-105.76670503 422.21687769 -104.51158834 415.61102045 -102.82373047 408.9543457 C-102.61471068 408.11783132 -102.4056909 407.28131693 -102.19033718 406.41945362 C-101.50263143 403.67071244 -100.80993046 400.92325685 -100.1171875 398.17578125 C-99.62551358 396.2146685 -99.1341626 394.25347477 -98.64311218 392.29220581 C-97.3299486 387.05096991 -96.01252011 381.81081487 -94.69426346 376.570858 C-93.31830172 371.09841088 -91.94627137 365.62497843 -90.57397461 360.15161133 C-88.652879 352.49057646 -86.73066642 344.82982376 -84.80691433 337.16945553 C-82.01202818 326.03968221 -79.22505038 314.90797784 -76.44921875 303.7734375 C-76.11245253 302.42284512 -75.77568096 301.07225408 -75.43890381 299.72166443 C-75.27580467 299.06756623 -75.11270554 298.41346804 -74.944664 297.73954868 C-68.853585 273.31168756 -62.70226522 248.89980776 -56.5 224.5 C-51.25458078 203.86335211 -46.033144 183.22118398 -40.875 162.5625 C-40.57592743 161.36476959 -40.27685486 160.16703918 -39.96871948 158.93301392 C-38.62414766 153.54728493 -37.28002385 148.1614443 -35.93632507 142.77549744 C-30.22768582 119.89363984 -24.5134985 97.0131677 -18.79669189 74.13334942 C-16.8224232 66.23175276 -14.84898575 58.32994938 -12.8766107 50.42787981 C-11.50917436 44.94965961 -10.14088641 39.47165257 -8.77194887 33.99380732 C-7.96726841 30.77372775 -7.16311753 27.55351747 -6.35971642 24.33311844 C-5.4760019 20.79106178 -4.59084257 17.24936924 -3.70532227 13.70776367 C-3.3135571 12.13531057 -3.3135571 12.13531057 -2.91387749 10.53109074 C-2.55529498 9.09882224 -2.55529498 9.09882224 -2.18946838 7.63761902 C-1.98256661 6.80909015 -1.77566484 5.98056128 -1.56249332 5.12692547 C-1.10571316 3.39972745 -0.56496559 1.69489676 0 0 Z " fill="#0064AD" transform="translate(543,0)"/>
<path d="M0 0 C40.26 0 80.52 0 122 0 C120.87513655 10.12377102 120.87513655 10.12377102 119.7668457 14.484375 C119.39161522 15.97995689 119.39161522 15.97995689 119.00880432 17.50575256 C118.73390671 18.57635422 118.45900909 19.64695587 118.17578125 20.75 C117.88239365 21.91369614 117.58900604 23.07739227 117.28672791 24.27635193 C116.64251506 26.82942921 115.99624688 29.38188388 115.34655762 31.93356323 C113.71510393 38.34315552 112.1037007 44.75781072 110.48944473 51.17175102 C109.90156014 53.50679956 109.31298013 55.84167208 108.72433472 58.17652893 C104.07212782 76.63995074 99.51044222 95.12572371 94.94766617 113.61140823 C94.01194044 117.40182677 93.07558492 121.1920896 92.13921261 124.98234844 C87.54154972 143.59284789 82.94909595 162.20463107 78.35911369 180.81702614 C70.46493573 212.82708837 62.56557009 244.83571569 54.57524872 276.82194138 C54.07283412 278.83362194 53.57082218 280.84540261 53.06890869 282.85720825 C52.14237372 286.56921526 51.21408932 290.28077998 50.28515625 293.9921875 C50.02455917 295.03655472 49.7639621 296.08092194 49.49546814 297.15693665 C47.07870679 306.79467905 44.52932723 316.38855653 42 326 C1.41 326 -39.18 326 -81 326 C-78.54941379 314.97236203 -76.07037784 304.00316056 -73.3046875 293.05859375 C-72.95630426 291.67173913 -72.60817838 290.28481984 -72.26028442 288.89784241 C-71.52013973 285.94850891 -70.77868593 282.99950929 -70.03613281 280.05078125 C-68.01506702 272.02374631 -66.00381333 263.99424856 -63.9921875 255.96484375 C-63.78482719 255.13744564 -63.57746689 254.31004753 -63.36382294 253.45757675 C-59.04882819 236.23692 -54.79563622 219.0012909 -50.55625153 201.76189041 C-44.06035664 175.3475766 -37.50272731 148.9494617 -30.88809204 122.56463623 C-26.57165447 105.34582947 -22.28102639 88.12109607 -18.04296875 70.8828125 C-17.83820042 70.05026695 -17.63343208 69.21772141 -17.42245865 68.3599472 C-15.43695643 60.28720939 -13.45326009 52.21404077 -11.4779768 44.13879585 C-10.75481569 41.18455415 -10.02947666 38.23084976 -9.30370522 35.27724838 C-8.81761041 33.29576032 -8.33440979 31.31356293 -7.85136414 29.33132935 C-5.430108 19.48491188 -2.717689 9.78368041 0 0 Z " fill="#0064AD" transform="translate(912,103)"/>
<path d="M0 0 C3.3 0 6.6 0 10 0 C13.60189738 7.89646734 16.81059604 15.93080797 20 24 C23.09992423 18.1578351 25.5918269 12.17540878 27.98095703 6.01733398 C29.90141466 1.09858534 29.90141466 1.09858534 31 0 C33.97 0 36.94 0 40 0 C40 11.88 40 23.76 40 36 C38.02 36 36.04 36 34 36 C33.67 28.74 33.34 21.48 33 14 C30.03 21.26 27.06 28.52 24 36 C21.69 36 19.38 36 17 36 C14.03 29.07 11.06 22.14 8 15 C7.67 21.93 7.34 28.86 7 36 C4.69 36 2.38 36 0 36 C0 24.12 0 12.24 0 0 Z " fill="#0064AD" transform="translate(1960,396)"/>
<path d="M0 0 C9.9 0 19.8 0 30 0 C30 1.98 30 3.96 30 6 C26.37 6 22.74 6 19 6 C19.00785522 7.30988892 19.00785522 7.30988892 19.01586914 8.64624023 C19.03287751 11.87589273 19.04543369 15.10552245 19.05493164 18.33520508 C19.0599708 19.73495228 19.06680216 21.1346942 19.07543945 22.53442383 C19.0875232 24.54245777 19.09269807 26.55052957 19.09765625 28.55859375 C19.10551147 30.37315063 19.10551147 30.37315063 19.11352539 32.22436523 C19 35 19 35 18 36 C16.02 36 14.04 36 12 36 C12 26.1 12 16.2 12 6 C8.04 6 4.08 6 0 6 C0 4.02 0 2.04 0 0 Z " fill="#0064AD" transform="translate(1926,396)"/>
</svg>
