<?xml version="1.0" encoding="UTF-8"?>
<svg version="1.1" xmlns="http://www.w3.org/2000/svg" width="728" height="724">
<path d="M0 0 C240.24 0 480.48 0 728 0 C728 238.92 728 477.84 728 724 C487.76 724 247.52 724 0 724 C0 485.08 0 246.16 0 0 Z " fill="#FEFEFE" transform="translate(0,0)"/>
<path d="M0 0 C91.41 0 182.82 0 277 0 C280.96 6.93 280.96 6.93 285 14 C286.83026673 17.16852627 288.66244352 20.33572427 290.5 23.5 C293.70771916 29.03039769 296.90083893 34.56814114 300.0625 40.125 C303.35295527 45.89667256 306.71114355 51.6259403 310.0871582 57.34790039 C313.16670178 62.5716584 316.21631203 67.81199249 319.25 73.0625 C326.38816579 85.41558187 333.58754533 97.73294083 340.78295898 110.05273438 C344.39179811 116.23453759 347.98367348 122.42578656 351.5625 128.625 C354.8878597 134.3787511 358.22771217 140.12012909 361.68359375 145.796875 C364.98391468 151.32026077 368.10215257 156.95133152 371.25 162.5625 C377.37056021 173.45280605 383.52015155 184.31796101 390 195 C395.65967235 204.33628815 395.65967235 204.33628815 398.25 209.0625 C401.59730107 215.15546307 405.16261718 221.12281095 408.6953125 227.109375 C409.09073242 227.78202393 409.48615234 228.45467285 409.89355469 229.14770508 C410.84480629 230.74019093 411.83661582 232.30832474 412.8359375 233.87109375 C414 236 414 236 413.5 238.3125 C411.93050993 241.12450305 410.25820557 243.83832598 408.5234375 246.55078125 C406.77105411 249.36807455 405.13497797 252.23791865 403.5 255.125 C399.90962813 261.46235006 396.21478922 267.73488557 392.5 274 C386.79816592 283.62448776 381.19526234 293.2953732 375.7265625 303.0546875 C371.58913936 310.43790706 367.40110044 317.7696207 363 325 C357.59942079 333.9191384 352.30400412 342.88600311 347.16015625 351.95654297 C335.08149091 373.23146488 322.82919544 394.40284369 310.36328125 415.453125 C309.70694702 416.56373291 309.70694702 416.56373291 309.03735352 417.69677734 C308.2178108 419.08345667 307.3968402 420.46929382 306.57397461 421.85400391 C304.36363384 425.59645416 302.24752272 429.37568855 300.1875 433.203125 C296.12483832 440.69535671 291.65247734 447.93696612 287.21484375 455.2109375 C286.57160156 456.273125 285.92835938 457.3353125 285.265625 458.4296875 C284.68586914 459.38085449 284.10611328 460.33202148 283.50878906 461.31201172 C282.09765958 463.82601424 280.99882488 466.29949618 280 469 C279.34 469 278.68 469 278 469 C277.34 470.65 276.68 472.3 276 474 C184.92 474 93.84 474 0 474 C-4.62 465.75 -9.24 457.5 -14 449 C-18.52748478 440.97988411 -23.15710422 433.08175436 -28.01171875 425.2578125 C-30.70567639 420.84374438 -33.25820293 416.35330808 -35.80859375 411.85546875 C-38.30601802 407.45184247 -40.83854344 403.06873245 -43.375 398.6875 C-44.07761963 397.47368652 -44.07761963 397.47368652 -44.79443359 396.23535156 C-47.8189621 391.01806588 -50.87060041 385.81746136 -53.9375 380.625 C-58.18163269 373.43578621 -62.33273 366.19561845 -66.46630859 358.94238281 C-71.15164023 350.72318665 -75.8884257 342.5344998 -80.63671875 334.3515625 C-82.0204091 331.96479577 -83.40125235 329.57640349 -84.78125 327.1875 C-89.13721527 319.64897575 -93.50917157 312.12127436 -97.9375 304.625 C-102.23353115 297.35267847 -106.42037054 290.02070574 -110.59594727 282.67871094 C-113.97599488 276.75064425 -117.44379107 270.88429624 -120.98193359 265.04956055 C-123.65353862 260.62659733 -126.1484177 256.12924876 -128.5859375 251.57421875 C-130.54373943 248.01015391 -132.66209552 244.5515726 -134.80078125 241.09375 C-136 239 -136 239 -137 236 C-135.8046875 233.671875 -135.8046875 233.671875 -133.875 230.75 C-129.91025199 224.58541566 -126.2706741 218.26809246 -122.6875 211.875 C-117.3154091 202.3156558 -111.86462298 192.80672021 -106.3515625 183.328125 C-104.95913306 180.92960492 -103.57254754 178.52778966 -102.1875 176.125 C-97.99665501 168.85869162 -93.78694623 161.61018651 -89.4375 154.4375 C-86.22221161 149.13145412 -83.17370896 143.75048787 -80.1875 138.3125 C-75.22495624 129.2876713 -69.93217856 120.4799531 -64.60595703 111.66650391 C-61.75716855 106.93642367 -58.93898132 102.18834599 -56.125 97.4375 C-55.60188232 96.55803711 -55.07876465 95.67857422 -54.53979492 94.77246094 C-51.42144001 89.50281385 -48.44637601 84.17295957 -45.53173828 78.78833008 C-42.90785178 74.01188639 -40.13681793 69.32258422 -37.375 64.625 C-32.87377924 56.94056922 -28.40420342 49.24045072 -24 41.5 C-18.9669543 32.65765624 -13.8561774 23.86214974 -8.71875 15.08007812 C-8.161875 14.12810547 -7.605 13.17613281 -7.03125 12.1953125 C-6.29745117 10.94258545 -6.29745117 10.94258545 -5.54882812 9.66455078 C-3.682025 6.45296671 -1.84302268 3.22528969 0 0 Z " fill="#2F4FA4" transform="translate(220,136)"/>
<path d="M0 0 C1.8238024 1.86189749 2.16689905 2.95695593 2.49609375 5.52734375 C1.66333008 7.23486328 1.66333008 7.23486328 0.328125 8.91015625 C-0.15333984 9.51988281 -0.63480469 10.12960937 -1.13085938 10.7578125 C-1.64583984 11.38300781 -2.16082031 12.00820313 -2.69140625 12.65234375 C-3.18705078 13.28527344 -3.68269531 13.91820312 -4.19335938 14.5703125 C-8.66242137 20.13154949 -8.66242137 20.13154949 -12.50390625 21.52734375 C-15.30859375 20.26171875 -15.30859375 20.26171875 -18.37890625 18.27734375 C-22.36670874 15.72759791 -25.95101325 13.85923484 -30.50390625 12.52734375 C-30.50390625 11.86734375 -30.50390625 11.20734375 -30.50390625 10.52734375 C-49.63952095 7.92930226 -49.63952095 7.92930226 -67.50390625 13.52734375 C-70.5804096 16.33197006 -73.34682755 19.46340273 -73.671875 23.734375 C-73.67832031 24.59417969 -73.68476563 25.45398438 -73.69140625 26.33984375 C-73.70558594 27.19191406 -73.71976562 28.04398437 -73.734375 28.921875 C-73.37832995 32.94699441 -72.52001937 35.57195452 -69.54296875 38.37109375 C-64.17488765 42.05404907 -58.89829726 44.84904482 -52.8359375 47.21484375 C-49.02896388 48.71442539 -45.30334717 50.36292467 -41.56640625 52.02734375 C-36.67869307 54.19605649 -31.78139462 56.19697673 -26.75390625 58.02734375 C-20.30442777 60.44589818 -12.45297869 63.57827131 -7.50390625 68.52734375 C3.71609375 68.85734375 14.93609375 69.18734375 26.49609375 69.52734375 C26.49609375 42.13734375 26.49609375 14.74734375 26.49609375 -13.47265625 C37.38609375 -13.47265625 48.27609375 -13.47265625 59.49609375 -13.47265625 C60.48609375 -7.53265625 60.48609375 -7.53265625 61.49609375 -1.47265625 C62.15609375 -1.47265625 62.81609375 -1.47265625 63.49609375 -1.47265625 C63.67148682 -0.82530518 63.84687988 -0.1779541 64.02758789 0.48901367 C67.14233974 11.93196823 70.31622827 23.31304052 74.18359375 34.52734375 C76.83304058 42.22519906 78.94850243 49.90894371 80.671875 57.86328125 C81.2306557 60.34733951 81.87745247 62.81291343 82.6015625 65.25390625 C83.49609375 68.52734375 83.49609375 68.52734375 83.49609375 72.52734375 C84.15609375 72.19734375 84.81609375 71.86734375 85.49609375 71.52734375 C86.40899871 68.77193006 86.40899871 68.77193006 87.15234375 65.41015625 C87.45269531 64.16363281 87.75304687 62.91710937 88.0625 61.6328125 C88.37444078 60.30616404 88.68563065 58.9793388 88.99609375 57.65234375 C89.6035677 55.06978765 90.2195776 52.48971806 90.83984375 49.91015625 C91.10990234 48.75918457 91.37996094 47.60821289 91.65820312 46.42236328 C92.49609375 43.52734375 92.49609375 43.52734375 94.49609375 40.52734375 C95.01218004 38.74552499 95.46564464 36.94515398 95.87890625 35.13671875 C97.44694064 28.59307713 99.36279116 22.19756394 101.37109375 15.77734375 C101.72042969 14.65150879 102.06976563 13.52567383 102.4296875 12.36572266 C103.44847482 9.08520868 104.47167426 5.80610263 105.49609375 2.52734375 C106.04047589 0.77998259 106.58475816 -0.96740969 107.12890625 -2.71484375 C108.24652959 -6.30230728 109.37130877 -9.88740414 110.49609375 -13.47265625 C121.38609375 -13.47265625 132.27609375 -13.47265625 143.49609375 -13.47265625 C143.49609375 14.57734375 143.49609375 42.62734375 143.49609375 71.52734375 C172.86609375 71.19734375 202.23609375 70.86734375 232.49609375 70.52734375 C231.16254057 73.86122669 230.24908578 76.12159008 228.37109375 78.96484375 C226.13070578 82.46787812 224.04521354 86.03396133 221.99609375 89.65234375 C218.40572188 95.98969381 214.71088297 102.26222932 210.99609375 108.52734375 C205.29425967 118.15183151 199.69135609 127.82271695 194.22265625 137.58203125 C190.08523311 144.96525081 185.89719419 152.29696445 181.49609375 159.52734375 C176.09551454 168.44648215 170.80009787 177.41334686 165.65625 186.48388672 C153.57758466 207.75880863 141.32528919 228.93018744 128.859375 249.98046875 C128.20304077 251.09107666 128.20304077 251.09107666 127.53344727 252.22412109 C126.71390455 253.61080042 125.89293395 254.99663757 125.07006836 256.38134766 C122.85972759 260.12379791 120.74361647 263.9030323 118.68359375 267.73046875 C114.62093207 275.22270046 110.14857109 282.46430987 105.7109375 289.73828125 C105.06769531 290.80046875 104.42445313 291.86265625 103.76171875 292.95703125 C103.18196289 293.90819824 102.60220703 294.85936523 102.00488281 295.83935547 C100.59375333 298.35335799 99.49491863 300.82683993 98.49609375 303.52734375 C97.83609375 303.52734375 97.17609375 303.52734375 96.49609375 303.52734375 C96.16609375 304.84734375 95.83609375 306.16734375 95.49609375 307.52734375 C4.74609375 307.52734375 -86.00390625 307.52734375 -179.50390625 307.52734375 C-177.79829222 303.26330868 -175.85190945 299.41939332 -173.56640625 295.46484375 C-173.21900391 294.85318359 -172.87160156 294.24152344 -172.51367188 293.61132812 C-170.68122508 290.41921271 -168.71628173 287.46199475 -166.50390625 284.52734375 C-165.81267419 282.88155314 -165.12316586 281.23497522 -164.44921875 279.58203125 C-162.90134737 276.21764965 -160.92897155 273.1189926 -158.99609375 269.96484375 C-156.70717935 266.22588411 -154.46516471 262.44986067 -152.50390625 258.52734375 C-151.84390625 258.52734375 -151.18390625 258.52734375 -150.50390625 258.52734375 C-150.29765625 257.55796875 -150.09140625 256.58859375 -149.87890625 255.58984375 C-148.47206666 250.60011773 -145.45732245 246.71800187 -142.50390625 242.52734375 C-140.51985172 239.43221869 -138.902883 236.27438134 -137.31640625 232.96484375 C-134.75328142 227.74482123 -131.59871018 223.05125989 -128.2734375 218.2890625 C-126.64272675 215.74400179 -125.51248262 213.36687415 -124.50390625 210.52734375 C-123.84390625 210.52734375 -123.18390625 210.52734375 -122.50390625 210.52734375 C-122.23578125 209.82609375 -121.96765625 209.12484375 -121.69140625 208.40234375 C-119.44509051 202.96389513 -116.61317682 197.82373085 -113.81640625 192.65234375 C-113.19378906 191.49992188 -112.57117188 190.3475 -111.9296875 189.16015625 C-111.22392578 187.85691406 -111.22392578 187.85691406 -110.50390625 186.52734375 C-109.84390625 186.52734375 -109.18390625 186.52734375 -108.50390625 186.52734375 C-108.32214844 185.93566406 -108.14039063 185.34398437 -107.953125 184.734375 C-105.24540116 176.22240211 -105.24540116 176.22240211 -102.50390625 172.52734375 C-101.84390625 172.52734375 -101.18390625 172.52734375 -100.50390625 172.52734375 C-100.00890625 169.55734375 -100.00890625 169.55734375 -99.50390625 166.52734375 C-98.84390625 166.52734375 -98.18390625 166.52734375 -97.50390625 166.52734375 C-97.17390625 165.20734375 -96.84390625 163.88734375 -96.50390625 162.52734375 C-95.84390625 162.52734375 -95.18390625 162.52734375 -94.50390625 162.52734375 C-94.27703125 161.55796875 -94.05015625 160.58859375 -93.81640625 159.58984375 C-92.47509227 154.82720717 -89.98535751 150.77261403 -87.50390625 146.52734375 C-87.17390625 145.86734375 -86.84390625 145.20734375 -86.50390625 144.52734375 C-89.46226915 141.29427572 -92.4124324 139.29978875 -96.25390625 137.21484375 C-101.60719235 134.18393912 -106.09082376 130.79765005 -110.50390625 126.52734375 C-107.58780223 122.00188043 -104.44224579 117.79334123 -101.00390625 113.65234375 C-100.53082031 113.059375 -100.05773437 112.46640625 -99.5703125 111.85546875 C-98.16015625 110.16015625 -98.16015625 110.16015625 -95.50390625 107.52734375 C-91.03116011 107.52734375 -90.8049743 107.79561601 -87.69140625 110.58984375 C-83.67404259 113.86226581 -79.60970443 116.16672048 -74.94140625 118.33984375 C-74.32869873 118.62931885 -73.71599121 118.91879395 -73.0847168 119.21704102 C-65.68792426 122.56257632 -58.73302553 123.8980343 -50.62890625 123.83984375 C-49.44808472 123.83464722 -49.44808472 123.83464722 -48.2434082 123.8293457 C-42.27890268 123.71806073 -37.00807464 122.94737689 -31.50390625 120.52734375 C-30.08078125 119.90859375 -30.08078125 119.90859375 -28.62890625 119.27734375 C-24.59089055 115.95191905 -22.80219941 112.74797064 -22.1171875 107.6484375 C-21.87831622 101.06712187 -22.30192109 96.67477558 -26.50390625 91.52734375 C-31.66447384 87.12754779 -38.00766955 85.08309058 -44.2890625 82.7734375 C-47.08718509 81.6888675 -49.66673437 80.48840581 -52.31640625 79.08984375 C-56.61831786 76.84750747 -61.01475745 75.17486664 -65.56640625 73.52734375 C-81.1509543 67.82611987 -93.32808617 59.43017432 -101.44140625 44.58984375 C-105.22006611 35.70623945 -105.22135009 23.9310268 -101.81640625 14.90234375 C-101.08991589 13.4214211 -100.32057286 11.96051359 -99.50390625 10.52734375 C-98.94316406 9.47353516 -98.94316406 9.47353516 -98.37109375 8.3984375 C-91.51636735 -3.56328704 -80.48906818 -10.60315241 -67.50390625 -14.47265625 C-66.74851562 -14.69953125 -65.993125 -14.92640625 -65.21484375 -15.16015625 C-42.60470275 -20.75441794 -18.43351561 -13.38933428 0 0 Z " fill="#4A6CB3" transform="translate(401.50390625,301.47265625)"/>
<path d="M0 0 C10.56 0 21.12 0 32 0 C32.66 3.96 33.32 7.92 34 12 C34.66 12 35.32 12 36 12 C36.2630896 12.97102661 36.2630896 12.97102661 36.53149414 13.96166992 C39.64624599 25.40462448 42.82013452 36.78569677 46.6875 48 C49.33694683 55.69785531 51.45240868 63.38159996 53.17578125 71.3359375 C53.73456195 73.81999576 54.38135872 76.28556968 55.10546875 78.7265625 C56 82 56 82 56 86 C56.66 85.67 57.32 85.34 58 85 C58.91290496 82.24458631 58.91290496 82.24458631 59.65625 78.8828125 C59.95660156 77.63628906 60.25695312 76.38976562 60.56640625 75.10546875 C60.87834703 73.77882029 61.1895369 72.45199505 61.5 71.125 C62.10747395 68.5424439 62.72348385 65.96237431 63.34375 63.3828125 C63.61380859 62.23184082 63.88386719 61.08086914 64.16210938 59.89501953 C65 57 65 57 67 54 C67.51608629 52.21818124 67.96955089 50.41781023 68.3828125 48.609375 C69.95084689 42.06573338 71.86669741 35.67022019 73.875 29.25 C74.39900391 27.56124756 74.39900391 27.56124756 74.93359375 25.83837891 C75.95238107 22.55786493 76.97558051 19.27875888 78 16 C78.54438214 14.25263884 79.08866441 12.50524656 79.6328125 10.7578125 C80.75043584 7.17034897 81.87521502 3.58525211 83 0 C93.56 0 104.12 0 115 0 C115 52.8 115 105.6 115 160 C106.75 160 98.5 160 90 160 C89.91042317 148.39589585 89.84694626 136.79190338 89.8125 125.1875 C89.80864792 123.89897881 89.80864792 123.89897881 89.80471802 122.58442688 C89.72559717 92.61749544 90.63195592 62.88605986 93 33 C92.74605469 34.0621875 92.49210938 35.124375 92.23046875 36.21875 C90.50627615 43.33191851 88.71314774 50.19053115 86 57 C85.17195613 59.65081143 84.43347347 62.32511165 83.6875 65 C81.85619018 71.40291612 79.72308185 77.6047014 77.31030273 83.80932617 C74.9124993 90.04700639 72.92694239 96.39603637 71.00415039 102.79443359 C70.65404907 103.94226318 70.65404907 103.94226318 70.296875 105.11328125 C70.09416992 105.79173096 69.89146484 106.47018066 69.68261719 107.16918945 C69 109 69 109 67 112 C66.67 113.98 66.34 115.96 66 118 C60.39 118 54.78 118 49 118 C48.2575 115.875625 47.515 113.75125 46.75 111.5625 C45.32660675 107.52276557 43.86228863 103.5494592 42 99.6875 C39.7690933 94.87626747 38.40033549 89.83485957 37.01367188 84.72924805 C35.79535177 80.34922096 34.30140255 76.17846899 32.609375 71.95703125 C29.92352861 65.08649349 27.99842391 58.13709789 26.20483398 50.99438477 C25.67951414 48.90574874 25.14038812 46.82100953 24.59960938 44.73632812 C22 34.56630692 22 34.56630692 22 30 C21.34 30 20.68 30 20 30 C20.18828369 31.01332397 20.18828369 31.01332397 20.38037109 32.04711914 C21.93138924 40.80576685 22.91856028 49.5763352 23.625 58.4375 C23.69103424 59.25419159 23.75706848 60.07088318 23.82510376 60.912323 C26.35426678 93.80459288 25.24452685 127.03652693 25 160 C16.75 160 8.5 160 0 160 C0 107.2 0 54.4 0 0 Z " fill="#FAFBFD" transform="translate(429,288)"/>
<path d="M0 0 C11.55 0 23.1 0 35 0 C35.928125 2.76375 36.85625 5.5275 37.8125 8.375 C38.09843018 9.22368652 38.38436035 10.07237305 38.67895508 10.94677734 C40.00279896 14.90430723 41.27299142 18.86937422 42.45703125 22.87109375 C44.13394688 28.52046059 45.99777694 34.10204354 47.875 39.6875 C48.23013672 40.74912354 48.58527344 41.81074707 48.95117188 42.90454102 C50.4138602 47.27628729 51.88065486 51.64663798 53.3515625 56.015625 C56.24535657 64.63795018 59.0139185 73.29688101 61.77294922 81.96313477 C64.32588034 89.95577296 66.95840817 97.91963023 69.625 105.875 C72.96086174 115.83232076 76.20570911 125.8113105 79.32373047 135.83886719 C80.02031162 138.06490919 80.72942199 140.28665269 81.44140625 142.5078125 C81.6724707 143.23331299 81.90353516 143.95881348 82.14160156 144.70629883 C82.76567058 146.66548494 83.39248964 148.62379449 84.01953125 150.58203125 C85 154 85 154 86 160 C76.1 160 66.2 160 56 160 C52.95448103 150.51538377 50.13648591 141.04514617 47.70043945 131.38549805 C46.69627314 127.44607635 45.51280758 123.77856504 44 120 C44 119.01 44 118.02 44 117 C26.18 117 8.36 117 -10 117 C-10.66 120.63 -11.32 124.26 -12 128 C-12.50053505 130.0245877 -13.03285721 132.04210182 -13.62109375 134.04296875 C-13.91693359 135.05423828 -14.21277344 136.06550781 -14.51757812 137.10742188 C-14.82115234 138.12384766 -15.12472656 139.14027344 -15.4375 140.1875 C-15.73720703 141.21552734 -16.03691406 142.24355469 -16.34570312 143.30273438 C-18.02491601 148.99603097 -19.90622368 154.41659647 -22 160 C-31.57 160 -41.14 160 -51 160 C-47.28409091 146.375 -47.28409091 146.375 -45.5625 140.4375 C-45.27536133 139.42139648 -45.27536133 139.42139648 -44.98242188 138.38476562 C-43.87296152 134.56807839 -42.58788688 130.90277106 -41.07421875 127.2265625 C-38.76385935 121.56848419 -37.00105023 115.7887332 -35.25 109.9375 C-34.55331378 107.64025148 -33.85536266 105.34338625 -33.15625 103.046875 C-32.80175781 101.88220703 -32.44726562 100.71753906 -32.08203125 99.51757812 C-30.35169942 93.89243801 -28.55334081 88.28958416 -26.75 82.6875 C-24.10853842 74.47528 -21.49546427 66.25801663 -19 58 C-18.34 58 -17.68 58 -17 58 C-16.89945313 56.89011719 -16.79890625 55.78023438 -16.6953125 54.63671875 C-16.04619652 49.48337112 -14.50341049 44.72942803 -12.875 39.8125 C-12.56731689 38.86431396 -12.25963379 37.91612793 -11.94262695 36.93920898 C-9.44428003 29.26666576 -6.89339375 21.61040764 -4.31005859 13.96606445 C-4.03629395 13.15355225 -3.7625293 12.34104004 -3.48046875 11.50390625 C-3.24223389 10.80080322 -3.00399902 10.0977002 -2.75854492 9.37329102 C-1.76698963 6.27097078 -0.89474663 3.13161319 0 0 Z " fill="#F9FBFC" transform="translate(196,288)"/>
<path d="M0 0 C1.8238024 1.86189749 2.16689905 2.95695593 2.49609375 5.52734375 C1.66333008 7.23486328 1.66333008 7.23486328 0.328125 8.91015625 C-0.15333984 9.51988281 -0.63480469 10.12960937 -1.13085938 10.7578125 C-1.64583984 11.38300781 -2.16082031 12.00820313 -2.69140625 12.65234375 C-3.18705078 13.28527344 -3.68269531 13.91820312 -4.19335938 14.5703125 C-8.66242137 20.13154949 -8.66242137 20.13154949 -12.50390625 21.52734375 C-15.30859375 20.26171875 -15.30859375 20.26171875 -18.37890625 18.27734375 C-22.36670874 15.72759791 -25.95101325 13.85923484 -30.50390625 12.52734375 C-30.50390625 11.86734375 -30.50390625 11.20734375 -30.50390625 10.52734375 C-49.63952095 7.92930226 -49.63952095 7.92930226 -67.50390625 13.52734375 C-70.5804096 16.33197006 -73.34682755 19.46340273 -73.671875 23.734375 C-73.67832031 24.59417969 -73.68476563 25.45398438 -73.69140625 26.33984375 C-73.70558594 27.19191406 -73.71976562 28.04398437 -73.734375 28.921875 C-73.37832995 32.94699441 -72.52001937 35.57195452 -69.54296875 38.37109375 C-64.17488765 42.05404907 -58.89829726 44.84904482 -52.8359375 47.21484375 C-49.02896388 48.71442539 -45.30334717 50.36292467 -41.56640625 52.02734375 C-36.67869307 54.19605649 -31.78139462 56.19697673 -26.75390625 58.02734375 C-12.68822789 63.3716052 0.04087807 71.4951864 6.49609375 85.52734375 C10.6079469 97.49677929 9.48451288 110.24786123 4.0546875 121.51953125 C-1.9023984 132.60441036 -11.36378827 141.52391803 -23.50390625 145.52734375 C-27.81425559 146.64089506 -32.14753223 147.61195377 -36.50390625 148.52734375 C-37.29023438 148.71554687 -38.0765625 148.90375 -38.88671875 149.09765625 C-53.10635983 151.43222419 -69.01664704 149.34422204 -82.50390625 144.52734375 C-82.50390625 143.86734375 -82.50390625 143.20734375 -82.50390625 142.52734375 C-83.385625 142.41519531 -84.26734375 142.30304688 -85.17578125 142.1875 C-94.14008828 140.40936868 -103.16820126 133.97299589 -109.50390625 127.52734375 C-109.50390625 123.68170296 -108.36465454 122.7688934 -105.94140625 119.83984375 C-105.21824219 118.96199219 -104.49507813 118.08414063 -103.75 117.1796875 C-100.710502 113.59043682 -97.63835856 110.03401227 -94.50390625 106.52734375 C-91.7239113 107.81740677 -89.53262436 109.25037339 -87.19140625 111.21484375 C-83.36099066 114.13975772 -79.34635581 116.23703224 -75.00390625 118.27734375 C-74.38733154 118.57084717 -73.77075684 118.86435059 -73.13549805 119.16674805 C-65.71837471 122.55382601 -58.7689283 123.89829209 -50.62890625 123.83984375 C-49.44808472 123.83464722 -49.44808472 123.83464722 -48.2434082 123.8293457 C-42.27890268 123.71806073 -37.00807464 122.94737689 -31.50390625 120.52734375 C-30.55515625 120.11484375 -29.60640625 119.70234375 -28.62890625 119.27734375 C-24.59089055 115.95191905 -22.80219941 112.74797064 -22.1171875 107.6484375 C-21.87831622 101.06712187 -22.30192109 96.67477558 -26.50390625 91.52734375 C-31.66447384 87.12754779 -38.00766955 85.08309058 -44.2890625 82.7734375 C-47.08718509 81.6888675 -49.66673437 80.48840581 -52.31640625 79.08984375 C-56.61831786 76.84750747 -61.01475745 75.17486664 -65.56640625 73.52734375 C-81.1509543 67.82611987 -93.32808617 59.43017432 -101.44140625 44.58984375 C-105.22006611 35.70623945 -105.22135009 23.9310268 -101.81640625 14.90234375 C-101.08991589 13.4214211 -100.32057286 11.96051359 -99.50390625 10.52734375 C-99.13007813 9.82480469 -98.75625 9.12226563 -98.37109375 8.3984375 C-91.51636735 -3.56328704 -80.48906818 -10.60315241 -67.50390625 -14.47265625 C-66.74851562 -14.69953125 -65.993125 -14.92640625 -65.21484375 -15.16015625 C-42.60470275 -20.75441794 -18.43351561 -13.38933428 0 0 Z " fill="#FAFBFC" transform="translate(401.50390625,301.47265625)"/>
<path d="M0 0 C2.24803832 2.24803832 2.45272273 3.1940418 3.11328125 6.2265625 C3.30672119 7.08556152 3.50016113 7.94456055 3.69946289 8.82958984 C3.90176514 9.7520752 4.10406738 10.67456055 4.3125 11.625 C5.98639091 18.96912608 7.86594326 26.15184103 10.19238281 33.31420898 C12.01795308 38.9555086 13.53019617 44.63650074 15.01953125 50.375 C16.28764 55.06346581 17.75609 59.67727518 19.265625 64.29296875 C20 67 20 67 20 71 C7.13 71 -5.74 71 -19 71 C-17.87637805 60.88740245 -17.87637805 60.88740245 -16.765625 57.6328125 C-16.52376465 56.90239746 -16.2819043 56.17198242 -16.03271484 55.41943359 C-15.77441895 54.66227051 -15.51612305 53.90510742 -15.25 53.125 C-11.59478551 41.97868891 -8.52424209 30.70818191 -5.90625 19.2734375 C-5.64448975 18.13189209 -5.64448975 18.13189209 -5.37744141 16.96728516 C-5.05493682 15.54406519 -4.73893012 14.11934827 -4.43115234 12.69287109 C-3.41498517 8.1591152 -1.92689676 4.20215904 0 0 Z " fill="#3153A7" transform="translate(213,311)"/>
<path d="M0 0 C9.19185161 2.80862133 19.2439282 6.25548826 25.375 14 C27.95625922 19.06449594 27.81404988 24.48499543 27 30 C25.18513583 35.54491163 22.09196812 38.26231675 17 40.9375 C5.01876747 46.46009937 -9.64880332 45.1915366 -21.7890625 40.875 C-22.88347656 40.441875 -22.88347656 40.441875 -24 40 C-23.01 39.505 -23.01 39.505 -22 39 C-21.814375 38.1646875 -21.814375 38.1646875 -21.625 37.3125 C-20.73893918 34.03407495 -19.02312433 31.6974991 -17 29 C-16.34 29 -15.68 29 -15 29 C-14.87625 28.2575 -14.7525 27.515 -14.625 26.75 C-14.04513299 24.19858515 -13.26291261 22.2732427 -12 20 C-11.34 20 -10.68 20 -10 20 C-9.87625 19.443125 -9.7525 18.88625 -9.625 18.3125 C-8.38418564 13.72148686 -6.40568242 9.80097262 -3.9375 5.75 C-3.41027344 4.87859375 -2.88304687 4.0071875 -2.33984375 3.109375 C-1 1 -1 1 0 0 Z " fill="#4A6CB3" transform="translate(353,382)"/>
<path d="M0 0 C0.33 0 0.66 0 1 0 C0.7340339 4.95811912 0.46748131 9.91620628 0.20043945 14.87426758 C0.11011817 16.55264482 0.01994328 18.23102995 -0.07006836 19.90942383 C-0.67973146 31.27504266 -1.32004066 42.63836452 -2 54 C-6.29 54 -10.58 54 -15 54 C-14.46515676 48.25043514 -12.8559164 43.03962113 -11.109375 37.546875 C-9.98246712 33.94394416 -8.95185643 30.32357767 -7.9375 26.6875 C-6.90124018 23.01606383 -5.84674859 19.42014099 -4.4375 15.875 C-2.40076683 10.74959455 -1.25910912 5.35791117 0 0 Z " fill="#354490" transform="translate(522,318)"/>
<path d="M0 0 C0.66 0 1.32 0 2 0 C2.28721924 1.09352783 2.57443848 2.18705566 2.87036133 3.3137207 C3.94894588 7.41965094 5.02820985 11.52540235 6.10766602 15.63110352 C6.572366 17.3989594 7.03688834 19.16686198 7.5012207 20.93481445 C7.9523096 22.65225409 8.40371189 24.36961146 8.85543823 26.08688354 C9.29627162 27.76393847 9.73599906 29.44128451 10.17459106 31.118927 C11.56169745 36.4073574 13.02749804 41.66544656 14.6237793 46.89526367 C15 49 15 49 14 53 C10.7 53 7.4 53 4 53 C3.91435791 51.82083008 3.82871582 50.64166016 3.74047852 49.42675781 C3.41868746 44.99848864 3.09605874 40.57028081 2.77319336 36.14208984 C2.63429748 34.23553063 2.49562049 32.32895545 2.35717773 30.42236328 C1.25217671 15.2054101 1.25217671 15.2054101 0 0 Z " fill="#3E498F" transform="translate(449,318)"/>
<path d="M0 0 C10.56 0 21.12 0 32 0 C32 0.33 32 0.66 32 1 C21.77 1 11.54 1 1 1 C1 28.39 1 55.78 1 84 C-33 84 -33 84 -40 79 C-39.505 78.01 -39.505 78.01 -39 77 C-38.01 77 -37.02 77 -36 77 C-35.67 77.66 -35.34 78.32 -35 79 C-28.4757391 82.865882 -21.96780938 82.34505977 -14.5625 82.1875 C-13.35400391 82.17396484 -12.14550781 82.16042969 -10.90039062 82.14648438 C-7.93312918 82.11129946 -4.96680063 82.06206696 -2 82 C-2 81.09211227 -2 80.18422455 -2 79.24882507 C-2 6 -2 6 0 0 Z " fill="#2D3C7C" transform="translate(427,287)"/>
<path d="M0 0 C1.32 0 2.64 0 4 0 C6.44952441 7.59352568 2.35781556 16.49556057 0.125 23.8125 C-0.27090332 25.12299316 -0.27090332 25.12299316 -0.67480469 26.45996094 C-2.41537494 32.18624625 -4.26603331 37.86693711 -6.19921875 43.53125 C-6.92222413 45.76022268 -7.52338417 47.97081112 -8.0625 50.25 C-9 54 -9 54 -10.40234375 57.55078125 C-12.66017614 63.46639782 -13.81455413 69.65399319 -15.10546875 75.83789062 C-15.30785156 76.74603516 -15.51023437 77.65417969 -15.71875 78.58984375 C-15.89341797 79.41347412 -16.06808594 80.23710449 -16.24804688 81.08569336 C-16.49619141 81.71741455 -16.74433594 82.34913574 -17 83 C-18.485 83.495 -18.485 83.495 -20 84 C-20.87890625 77.84765625 -20.87890625 77.84765625 -21 76 C-20.505 75.505 -20.505 75.505 -20 75 C-19.95936168 73.33382885 -19.957279 71.66611905 -20 70 C-18.515 69.505 -18.515 69.505 -17 69 C-16.83147753 67.39602723 -16.66525114 65.7918131 -16.5 64.1875 C-16.4071875 63.29417969 -16.314375 62.40085937 -16.21875 61.48046875 C-15.95607599 58.91694901 -15.95607599 58.91694901 -16 56 C-15.38511719 55.57589844 -14.77023437 55.15179688 -14.13671875 54.71484375 C-9.69515657 51.1502262 -9.1299759 44.35222733 -8 39 C-7.69454346 35.82684557 -7.50367485 32.71032981 -7.46875 29.5234375 C-6.86087084 26.25102137 -5.34781611 25.29033662 -3 23 C-0.56456587 16.41774559 2.27347195 6.82041584 0 0 Z " fill="#374285" transform="translate(505,290)"/>
<path d="M0 0 C10.89 0 21.78 0 33 0 C33 25.41 33 50.82 33 77 C32.01 76.505 32.01 76.505 31 76 C31 51.25 31 26.5 31 1 C22.75 1 14.5 1 6 1 C8.83333333 8.66666667 8.83333333 8.66666667 12 10 C12 11.65 12 13.3 12 15 C9.84520255 12.38346023 7.85499644 9.7779633 6 6.9375 C3.88820517 3.63948435 3.88820517 3.63948435 0 0 Z " fill="#4A66A4" transform="translate(395,371)"/>
<path d="M0 0 C4.00460684 4.62070021 6.9386928 9.73480567 10 15 C10.38575195 15.66338379 10.77150391 16.32676758 11.16894531 17.01025391 C13.46275838 20.95817472 15.7482811 24.91073474 18.02734375 28.8671875 C20.05810219 32.38698822 22.11551912 35.88944709 24.19140625 39.3828125 C24.70356689 40.25043213 25.21572754 41.11805176 25.7434082 42.01196289 C26.73426867 43.68940889 27.73134037 45.36320413 28.73510742 47.03295898 C29.17830322 47.78649658 29.62149902 48.54003418 30.078125 49.31640625 C30.47418945 49.98099854 30.87025391 50.64559082 31.27832031 51.33032227 C31.51647461 51.88131592 31.75462891 52.43230957 32 53 C31.67 53.66 31.34 54.32 31 55 C28.9375 55.625 28.9375 55.625 27 56 C26.90203125 55.34773438 26.8040625 54.69546875 26.703125 54.0234375 C25.74869686 48.44496959 24.82086177 44.27037492 21 40 C19.68 40 18.36 40 17 40 C15.39274365 36.78548731 15.94251815 33.56387464 16 30 C15.34 29.67 14.68 29.34 14 29 C13.67 29.66 13.34 30.32 13 31 C12.01 30.67 11.02 30.34 10 30 C8.79286003 26.18797903 7.97581336 23.11258522 8.0625 19.125 C8.041875 18.42375 8.02125 17.7225 8 17 C7.01 16.34 6.02 15.68 5 15 C3.93347808 12.69631264 2.93578995 10.35981813 2 8 C1.608125 7.278125 1.21625 6.55625 0.8125 5.8125 C0 4 0 4 0 0 Z " fill="#3C488E" transform="translate(528,192)"/>
<path d="M0 0 C0.99 0.33 1.98 0.66 3 1 C3.02887512 4.64581687 3.04675585 8.29160463 3.0625 11.9375 C3.07087891 12.97841797 3.07925781 14.01933594 3.08789062 15.09179688 C3.09111328 16.08115234 3.09433594 17.07050781 3.09765625 18.08984375 C3.10289307 19.00628662 3.10812988 19.92272949 3.11352539 20.86694336 C3 23 3 23 2 24 C1.83946185 25.87321948 1.83946185 25.87321948 1.875 28 C1.87113281 29.0828125 1.87113281 29.0828125 1.8671875 30.1875 C1.80304724 32.02089415 1.80304724 32.02089415 3 33 C3.07271741 35.35313555 3.08370868 37.70833668 3.0625 40.0625 C3.05347656 41.35285156 3.04445313 42.64320313 3.03515625 43.97265625 C3.02355469 44.97167969 3.01195312 45.97070312 3 47 C2.34 47 1.68 47 1 47 C1.14049518 48.47968324 1.28754826 49.95874516 1.4375 51.4375 C1.51871094 52.26121094 1.59992187 53.08492188 1.68359375 53.93359375 C1.78930815 55.98662025 1.78930815 55.98662025 3 57 C3.09956009 59.2898821 3.1296872 61.58295937 3.125 63.875 C3.12757813 65.13054687 3.13015625 66.38609375 3.1328125 67.6796875 C3 71 3 71 2 74 C2.33 74.66 2.66 75.32 3 76 C2.01 76 1.02 76 0 76 C0 50.92 0 25.84 0 0 Z " fill="#35468E" transform="translate(545,296)"/>
<path d="M0 0 C0.33 0 0.66 0 1 0 C0.7340339 4.95811912 0.46748131 9.91620628 0.20043945 14.87426758 C0.11011817 16.55264482 0.01994328 18.23102995 -0.07006836 19.90942383 C-0.67973146 31.27504266 -1.32004066 42.63836452 -2 54 C-2.33 54 -2.66 54 -3 54 C-3.02505615 53.40461426 -3.0501123 52.80922852 -3.07592773 52.19580078 C-3.19177494 49.50530864 -3.31455196 46.8151766 -3.4375 44.125 C-3.47681641 43.18785156 -3.51613281 42.25070312 -3.55664062 41.28515625 C-3.61948242 39.94130859 -3.61948242 39.94130859 -3.68359375 38.5703125 C-3.72025146 37.74289551 -3.75690918 36.91547852 -3.79467773 36.06298828 C-3.88238327 33.93820571 -3.88238327 33.93820571 -5 32 C-5.66 32 -6.32 32 -7 32 C-7.66 33.32 -8.32 34.64 -9 36 C-10.56241503 32.87516994 -9.22029363 30.65852991 -8.25 27.375 C-8.0631665 26.73836426 -7.87633301 26.10172852 -7.68383789 25.44580078 C-6.53175687 21.57989605 -5.21475403 17.83094697 -3.7265625 14.0859375 C-2.12863133 9.49832865 -1.11033737 4.72483989 0 0 Z " fill="#4C548C" transform="translate(522,318)"/>
<path d="M0 0 C2 4 2 4 2 6 C2.66 6 3.32 6 4 6 C4.33 8.97 4.66 11.94 5 15 C6.65 15.33 8.3 15.66 10 16 C11.125 22.75 11.125 22.75 10 25 C6.7 25 3.4 25 0 25 C0 16.75 0 8.5 0 0 Z " fill="#33438F" transform="translate(453,346)"/>
<path d="M0 0 C4.03856965 1.34618988 4.9047667 3.88387914 6.8125 7.4375 C7.51993942 8.71664063 8.22827945 9.99528356 8.9375 11.2734375 C9.28554688 11.90604492 9.63359375 12.53865234 9.9921875 13.19042969 C12.71571263 18.08063517 15.65992901 22.85459788 18.625 27.6015625 C20.06103843 30.10647044 20.594122 32.15885401 21 35 C20.34 35 19.68 35 19 35 C18.34 33.02 17.68 31.04 17 29 C14.69 29 12.38 29 10 29 C10.08378906 28.38511719 10.16757812 27.77023437 10.25390625 27.13671875 C10.35574219 26.32847656 10.45757813 25.52023437 10.5625 24.6875 C10.66691406 23.88699219 10.77132812 23.08648437 10.87890625 22.26171875 C11.14755178 19.83182884 11.14755178 19.83182884 10 17 C9.030625 16.608125 8.06125 16.21625 7.0625 15.8125 C4 14 4 14 3.16015625 12.03125 C2.68012555 10.04104974 2.33119764 8.02030559 2 6 C-1.04913228 4.98888907 -1.04913228 4.98888907 -4 6 C-3.0022242 3.00667261 -2.2477975 2.05233685 0 0 Z " fill="#37458C" transform="translate(566,259)"/>
<path d="M0 0 C0.66 0 1.32 0 2 0 C2.42410156 0.79921875 2.84820313 1.5984375 3.28515625 2.421875 C3.87167969 3.52015625 4.45820312 4.6184375 5.0625 5.75 C5.37179443 6.33257568 5.68108887 6.91515137 5.99975586 7.51538086 C8.74289985 12.63605453 11.77217235 17.55198947 14.91015625 22.44140625 C16 25 16 25 15.18359375 27.33984375 C14.79300781 27.88769531 14.40242187 28.43554688 14 29 C13.01 28.34 12.02 27.68 11 27 C10.34 27.33 9.68 27.66 9 28 C9.185625 27.401875 9.37125 26.80375 9.5625 26.1875 C10.22093687 23.83591238 10.22093687 23.83591238 9 21 C9 20.34 9 19.68 9 19 C8.01 18.67 7.02 18.34 6 18 C5.01 17.34 4.02 16.68 3 16 C2.34 16.33 1.68 16.66 1 17 C1 13.66666667 1 10.33333333 1 7 C0.68330179 4.66435067 0.35179197 2.3306218 0 0 Z " fill="#3A458C" transform="translate(511,163)"/>
<path d="M0 0 C0.66 0 1.32 0 2 0 C2 0.99 2 1.98 2 3 C2.73863281 3.02320313 3.47726562 3.04640625 4.23828125 3.0703125 C8.24773465 4.42002949 9.36023272 7.30595163 11.1875 10.875 C11.86790133 12.14354486 12.54887173 13.41178469 13.23046875 14.6796875 C13.81441406 15.77539062 14.39835938 16.87109375 15 18 C15.66 18.99 16.32 19.98 17 21 C17 21.99 17 22.98 17 24 C14.36 24 11.72 24 9 24 C9 20.04 9 16.08 9 12 C8.01 11.67 7.02 11.34 6 11 C6 10.34 6 9.68 6 9 C4.68 9.33 3.36 9.66 2 10 C0.68373308 6.38026598 0 3.90432869 0 0 Z " fill="#38468C" transform="translate(616,349)"/>
<path d="M0 0 C6.51478743 -0.36876155 6.51478743 -0.36876155 8.5625 1.1875 C9.036875 1.785625 9.51125 2.38375 10 3 C14.63499909 7.06005965 14.63499909 7.06005965 20 10 C19.67 10.66 19.34 11.32 19 12 C17.4122595 11.09098826 15.82998803 10.17242076 14.25 9.25 C13.36828125 8.73953125 12.4865625 8.2290625 11.578125 7.703125 C9.03462657 6.02287452 7.07097075 4.22580968 5 2 C0.67694631 3.57016573 -1.70231197 6.91409982 -4.5 10.375 C-7.53449972 14.07923944 -10.53429671 17.68142563 -14 21 C-15 20 -15 20 -15.0625 16.4375 C-15.041875 15.303125 -15.02125 14.16875 -15 13 C-14.67 13.66 -14.34 14.32 -14 15 C-13.34 15 -12.68 15 -12 15 C-12 14.34 -12 13.68 -12 13 C-11.01 13 -10.02 13 -9 13 C-9 12.01 -9 11.02 -9 10 C-8.34 10 -7.68 10 -7 10 C-7 9.01 -7 8.02 -7 7 C-6.01 6.67 -5.02 6.34 -4 6 C-3.34 5.01 -2.68 4.02 -2 3 C-1.34 3 -0.68 3 0 3 C0 2.01 0 1.02 0 0 Z " fill="#3C5495" transform="translate(304,407)"/>
<path d="M0 0 C1.32 0 2.64 0 4 0 C6.90284801 8.99882882 0.95947545 20.42655776 -2 29 C-2.99 29 -3.98 29 -5 29 C-5.495 31.475 -5.495 31.475 -6 34 C-6.98333463 30.94073669 -7.13453213 29.02541902 -6 26 C-5.52304687 25.40703125 -5.04609375 24.8140625 -4.5546875 24.203125 C-0.4599506 18.40053301 0.50220895 9.96907469 1 3 C0.67 2.01 0.34 1.02 0 0 Z " fill="#3B4685" transform="translate(505,290)"/>
<path d="M0 0 C3.89238981 3.42353377 6.06848742 7.31876599 8.5 11.8125 C9.26021584 13.19412094 10.02063104 14.5756322 10.78125 15.95703125 C11.14734375 16.62943848 11.5134375 17.3018457 11.890625 17.99462891 C12.98844588 19.9791141 14.13112185 21.9322096 15.28125 23.88671875 C17 27 17 27 17 29 C16.34 29 15.68 29 15 29 C14.9175 28.38125 14.835 27.7625 14.75 27.125 C14.20721701 24.84645565 14.20721701 24.84645565 12.125 23.9375 C11.42375 23.628125 10.7225 23.31875 10 23 C8.1875 21.75 8.1875 21.75 7 20 C7.3125 16.8125 7.3125 16.8125 8 14 C7.01 13.67 6.02 13.34 5 13 C3 10 3 10 3 7 C2.01 6.67 1.02 6.34 0 6 C0 4.02 0 2.04 0 0 Z " fill="#364287" transform="translate(593,304)"/>
<path d="M0 0 C0.99 0.33 1.98 0.66 3 1 C2.70867188 1.50225098 2.41734375 2.00450195 2.1171875 2.52197266 C-3.95621261 12.99524557 -10.00995124 23.47879688 -16 34 C-16.99 33.67 -17.98 33.34 -19 33 C-19 32.34 -19 31.68 -19 31 C-18.34 31 -17.68 31 -17 31 C-16.34 29.02 -15.68 27.04 -15 25 C-14.34 25 -13.68 25 -13 25 C-12.7834375 24.071875 -12.7834375 24.071875 -12.5625 23.125 C-12 21 -12 21 -11 19 C-10.34 19 -9.68 19 -9 19 C-8.87625 18.236875 -8.7525 17.47375 -8.625 16.6875 C-8 14 -8 14 -6 11 C-5.34 11 -4.68 11 -4 11 C-3.896875 10.113125 -3.79375 9.22625 -3.6875 8.3125 C-2.98809298 4.9426298 -1.91257489 2.82728462 0 0 Z " fill="#516BA1" transform="translate(541,527)"/>
<path d="M0 0 C0.99 0 1.98 0 3 0 C3 0.66 3 1.32 3 2 C2.34 2 1.68 2 1 2 C1.33 2.99 1.66 3.98 2 5 C1.34 5.99 0.68 6.98 0 8 C0.804375 8.226875 1.60875 8.45375 2.4375 8.6875 C3.7059375 9.3371875 3.7059375 9.3371875 5 10 C5.89388748 12.81918361 6.31258776 14.95340986 5.47265625 17.765625 C4.94053604 20.28110237 5.10111283 22.20840808 5.4375 24.75 C5.53933594 25.54921875 5.64117187 26.3484375 5.74609375 27.171875 C5.82988281 27.77515625 5.91367187 28.3784375 6 29 C0.85238605 21.27857908 -2.44172743 10.26824777 -1 1 C-0.67 0.67 -0.34 0.34 0 0 Z " fill="#3A478B" transform="translate(474,320)"/>
<path d="M0 0 C0.5534764 2.07553648 1 3.84365964 1 6 C1.66 6 2.32 6 3 6 C3.66 5.34 4.32 4.68 5 4 C5.15723924 14.04584053 4.67192387 23.9811352 4 34 C3.67 34 3.34 34 3 34 C2.97494385 33.40461426 2.9498877 32.80922852 2.92407227 32.19580078 C2.80822506 29.50530864 2.68544804 26.8151766 2.5625 24.125 C2.52318359 23.18785156 2.48386719 22.25070312 2.44335938 21.28515625 C2.38051758 19.94130859 2.38051758 19.94130859 2.31640625 18.5703125 C2.27974854 17.74289551 2.24309082 16.91547852 2.20532227 16.06298828 C2.11761673 13.93820571 2.11761673 13.93820571 1 12 C0.34 12 -0.32 12 -1 12 C-1.66 13.32 -2.32 14.64 -3 16 C-4.57159226 12.85681547 -3.04018399 10.07066611 -2.0625 6.875 C-1.86720703 6.21628906 -1.67191406 5.55757813 -1.47070312 4.87890625 C-0.98695014 3.25066448 -0.49430925 1.62506818 0 0 Z " fill="#636DA4" transform="translate(516,338)"/>
<path d="M0 0 C4.65181712 5.4021102 4.65181712 5.4021102 5 9 C4.67619874 10.33568021 4.34342449 11.66923011 4 13 C4.33 13.99 4.66 14.98 5 16 C5 17.32 5 18.64 5 20 C4.01 19.67 3.02 19.34 2 19 C0.796875 16.234375 0.796875 16.234375 -0.25 12.75 C-0.78367187 11.04070312 -0.78367187 11.04070312 -1.328125 9.296875 C-1.99327136 6.03301728 -1.98749105 4.14619242 -1 1 C-0.67 0.67 -0.34 0.34 0 0 Z " fill="#38438C" transform="translate(467,298)"/>
<path d="M0 0 C0.99 0 1.98 0 3 0 C3.33 0.66 3.66 1.32 4 2 C10.51151763 5.86592249 16.9240143 5.27777748 24.3125 5.0625 C26.66254986 5.00276374 29.01283645 4.95153262 31.36328125 4.91015625 C32.39751221 4.88058838 33.43174316 4.85102051 34.49731445 4.82055664 C37 5 37 5 39 7 C34.42856598 7.1242965 29.85813122 7.21466121 25.28540039 7.2746582 C23.73249155 7.29968689 22.17969916 7.33372131 20.62719727 7.37719727 C6.05357143 7.77487245 6.05357143 7.77487245 1.44140625 4.48046875 C0.63574219 3.66191406 -0.16992188 2.84335937 -1 2 C-0.67 1.34 -0.34 0.68 0 0 Z " fill="#334A95" transform="translate(388,364)"/>
<path d="M0 0 C0 1.32 0 2.64 0 4 C0.66 4.33 1.32 4.66 2 5 C0.35 6.32 -1.3 7.64 -3 9 C-3 8.34 -3 7.68 -3 7 C-5.32471812 7.92988725 -6.73065431 8.6172456 -8.1875 10.6875 C-9.26385267 13.7509653 -9.62879105 16.78285575 -10 20 C-10.33 20 -10.66 20 -11 20 C-11.46751549 13.42881001 -11.4844625 9.23187291 -7 4 C-3.52631579 0 -3.52631579 0 0 0 Z " fill="#495F9D" transform="translate(338,313)"/>
<path d="M0 0 C2.31 0 4.62 0 7 0 C6.67 3.3 6.34 6.6 6 10 C4.68 9.34 3.36 8.68 2 8 C2.33 10.97 2.66 13.94 3 17 C0.94513971 13.91770957 0.45387922 12.08786572 -0.1875 8.5 C-0.45626953 7.06140625 -0.45626953 7.06140625 -0.73046875 5.59375 C-1 3 -1 3 0 0 Z " fill="#32428F" transform="translate(483,352)"/>
<path d="M0 0 C0.66 0 1.32 0 2 0 C2.86996586 3.07909767 3.71815852 6.16378631 4.5625 9.25 C4.9327832 10.55904297 4.9327832 10.55904297 5.31054688 11.89453125 C5.53935547 12.73886719 5.76816406 13.58320313 6.00390625 14.453125 C6.21861572 15.22817383 6.4333252 16.00322266 6.65454102 16.80175781 C7.0298967 19.19024018 6.74681558 20.720964 6 23 C5.34 21.35 4.68 19.7 4 18 C3.67 21.3 3.34 24.6 3 28 C2.67 28 2.34 28 2 28 C1.34 18.76 0.68 9.52 0 0 Z " fill="#7479A4" transform="translate(449,318)"/>
<path d="M0 0 C1 3 1 3 1 6 C1.66 6.33 2.32 6.66 3 7 C1.63016497 10.16115776 1.0109362 10.9927092 -2 13 C-3.19232613 15.05003955 -3.19232613 15.05003955 -4 17 C-5.625 15.3125 -5.625 15.3125 -7 13 C-5.94409996 8.24844982 -2.63159798 4.04783963 0 0 Z " fill="#39589E" transform="translate(90,361)"/>
<path d="M0 0 C4 6.75 4 6.75 4 9 C1.36 9 -1.28 9 -4 9 C-5.33332095 6.3333581 -4.67102033 4.83319697 -4 2 C-4.99 1.67 -5.98 1.34 -7 1 C-4.53721199 -0.231394 -2.7204945 -0.07159196 0 0 Z " fill="#354185" transform="translate(589,295)"/>
<path d="M0 0 C1.10102197 3.30306592 0.95067299 4.71585695 0 8 C-0.99 8.495 -0.99 8.495 -2 9 C-2.84692901 11.22596002 -3.46846299 13.48363587 -4.12109375 15.7734375 C-5.07902701 18.20020175 -5.93078697 19.42394093 -8 21 C-8.99 21 -9.98 21 -11 21 C-9.3003494 16.26525903 -6.86340973 12.03832889 -4.375 7.6875 C-3.95476562 6.94693359 -3.53453125 6.20636719 -3.1015625 5.44335938 C-2.07051505 3.62730989 -1.03563954 1.81343467 0 0 Z " fill="#3D579E" transform="translate(217,141)"/>
<path d="M0 0 C1.37256027 4.11768081 1.84448827 8.15268192 0 12.1875 C-0.495 13.0846875 -0.495 13.0846875 -1 14 C-1 15.32 -1 16.64 -1 18 C-2.875 20.125 -2.875 20.125 -5 22 C-5.66 22.66 -6.32 23.32 -7 24 C-7.35845081 18.98168867 -6.28785524 16.41229225 -4 12 C-2.57922312 8.02793562 -1.28115009 4.01903936 0 0 Z " fill="#5D78AB" transform="translate(502,382)"/>
<path d="M0 0 C2.29017186 2.14913488 4.01315589 4.34518412 5.6875 7 C6.34298828 8.0209375 6.34298828 8.0209375 7.01171875 9.0625 C8 11 8 11 8 14 C6.02 14.99 6.02 14.99 4 16 C3.34 12.7 2.68 9.4 2 6 C-1.74691447 4.60229416 -1.74691447 4.60229416 -4 6 C-4 4.68 -4 3.36 -4 2 C-2.68 1.34 -1.36 0.68 0 0 Z " fill="#424E90" transform="translate(502,147)"/>
<path d="M0 0 C0.99 0.33 1.98 0.66 3 1 C2.66226562 2.0621875 2.32453125 3.124375 1.9765625 4.21875 C1.52591703 5.64579398 1.07540326 7.07287956 0.625 8.5 C0.40328125 9.19609375 0.1815625 9.8921875 -0.046875 10.609375 C-1.54588967 15.370951 -2.83041407 20.14676492 -4 25 C-5.06128493 21.24959462 -4.7853056 18.85513658 -4 15 C-3.85304688 14.19691406 -3.70609375 13.39382813 -3.5546875 12.56640625 C-2.73306108 8.17787785 -1.90123245 4.07406953 0 0 Z " fill="#4C5590" transform="translate(500,319)"/>
<path d="M0 0 C0.66 0 1.32 0 2 0 C2.05398987 2.27057377 2.09278742 4.54151288 2.125 6.8125 C2.14820313 8.07707031 2.17140625 9.34164063 2.1953125 10.64453125 C2 14 2 14 0 17 C-2.23465229 13.64802157 -2.27108649 12.42208754 -2.25 8.5 C-2.25515625 7.5409375 -2.2603125 6.581875 -2.265625 5.59375 C-2 3 -2 3 0 0 Z " fill="#3755AC" transform="translate(330,322)"/>
<path d="M0 0 C5.56043956 1.45054945 5.56043956 1.45054945 7.5 3.875 C8 6 8 6 7.5 7.9375 C5.31852965 10.93702173 3.0315881 12.83457993 0 15 C-0.99 14.67 -1.98 14.34 -3 14 C-2.566875 13.46890625 -2.13375 12.9378125 -1.6875 12.390625 C-1.130625 11.68421875 -0.57375 10.9778125 0 10.25 C0.556875 9.55390625 1.11375 8.8578125 1.6875 8.140625 C3.34847198 5.85015251 3.34847198 5.85015251 3 2 C2.01 1.67 1.02 1.34 0 1 C0 0.67 0 0.34 0 0 Z " fill="#485392" transform="translate(400,301)"/>
<path d="M0 0 C1.32 0.66 2.64 1.32 4 2 C0.7 5.96 -2.6 9.92 -6 14 C-6.66 13.67 -7.32 13.34 -8 13 C-8 10.69 -8 8.38 -8 6 C-7.67 6.66 -7.34 7.32 -7 8 C-6.34 8 -5.68 8 -5 8 C-5 7.34 -5 6.68 -5 6 C-4.01 6 -3.02 6 -2 6 C-2 5.01 -2 4.02 -2 3 C-1.34 3 -0.68 3 0 3 C0 2.01 0 1.02 0 0 Z " fill="#3E579E" transform="translate(297,414)"/>
<path d="M0 0 C0.66 0.33 1.32 0.66 2 1 C2 1.99 2 2.98 2 4 C2.66 4 3.32 4 4 4 C4 4.99 4 5.98 4 7 C3.34 7 2.68 7 2 7 C1.67 8.65 1.34 10.3 1 12 C0.01 12 -0.98 12 -2 12 C-2 8.37 -2 4.74 -2 1 C-1.34 0.67 -0.68 0.34 0 0 Z " fill="#3D4A8F" transform="translate(455,359)"/>
<path d="M0 0 C1.5478418 0.05994141 1.5478418 0.05994141 3.12695312 0.12109375 C11.45926546 0.52121777 11.45926546 0.52121777 15.3125 2.75 C12.16769954 3.76082872 10.45999691 3.54815167 7.3125 2.75 C5.96568975 2.66196233 4.61530775 2.61941891 3.265625 2.6171875 C2.5025 2.61589844 1.739375 2.61460937 0.953125 2.61328125 C0.16421875 2.61714844 -0.6246875 2.62101562 -1.4375 2.625 C-2.2109375 2.62113281 -2.984375 2.61726563 -3.78125 2.61328125 C-8.83483753 2.62176042 -13.68517677 3.03048775 -18.6875 3.75 C-18.6875 3.09 -18.6875 2.43 -18.6875 1.75 C-12.3615228 -0.56982239 -6.67192754 -0.36246732 0 0 Z " fill="#4759A1" transform="translate(354.6875,283.25)"/>
<path d="M0 0 C0.66 0 1.32 0 2 0 C3.03307771 1.76371818 4.05112049 3.53625033 5.0625 5.3125 C5.63097656 6.29863281 6.19945312 7.28476562 6.78515625 8.30078125 C8 11 8 11 7 14 C6.566875 13.195625 6.13375 12.39125 5.6875 11.5625 C4.19525998 8.72153646 4.19525998 8.72153646 1 8 C1 8.66 1 9.32 1 10 C0.01 10 -0.98 10 -2 10 C-1.34 6.7 -0.68 3.4 0 0 Z " fill="#3A4686" transform="translate(610,334)"/>
<path d="M0 0 C2.125 0.375 2.125 0.375 4 1 C0.66463131 4.89126347 -3.26210499 7.17099741 -8 9 C-8.99 9 -9.98 9 -11 9 C-11 8.34 -11 7.68 -11 7 C-8.23196684 4.53952608 -5.41172133 3.3467321 -2 2 C-1.34 1.34 -0.68 0.68 0 0 Z " fill="#546FA5" transform="translate(373,416)"/>
<path d="M0 0 C2.35953094 2.35953094 2.49141413 3.77895617 3 7 C3.66 7 4.32 7 5 7 C5.33 8.98 5.66 10.96 6 13 C5.34 13 4.68 13 4 13 C4 12.01 4 11.02 4 10 C3.34 10 2.68 10 2 10 C1.67 13.3 1.34 16.6 1 20 C0.67 20 0.34 20 0 20 C0 13.4 0 6.8 0 0 Z " fill="#47528D" transform="translate(452,334)"/>
<path d="M0 0 C0.66 0 1.32 0 2 0 C2 0.66 2 1.32 2 2 C2.66 2 3.32 2 4 2 C4 2.66 4 3.32 4 4 C2.390625 5.40234375 2.390625 5.40234375 0.25 6.9375 C-0.44609375 7.44152344 -1.1421875 7.94554687 -1.859375 8.46484375 C-2.56578125 8.97144531 -3.2721875 9.47804688 -4 10 C-5.33554063 10.99705016 -6.66954883 11.9961686 -8 13 C-7.67 10.69 -7.34 8.38 -7 6 C-5.02 5.67 -3.04 5.34 -1 5 C-0.67 3.35 -0.34 1.7 0 0 Z " fill="#3D579F" transform="translate(315,291)"/>
<path d="M0 0 C0.66 0 1.32 0 2 0 C1.42302407 3.63494833 0.45452894 6.37468442 -1.375 9.5625 C-1.79523438 10.30628906 -2.21546875 11.05007812 -2.6484375 11.81640625 C-3.98782796 13.98033477 -5.44115252 15.98990719 -7 18 C-7.66 17.34 -8.32 16.68 -9 16 C-6.03 10.72 -3.06 5.44 0 0 Z " fill="#3C599A" transform="translate(159,241)"/>
<path d="M0 0 C0.66 0.33 1.32 0.66 2 1 C0.56861647 3.60769872 -0.86976005 6.21109447 -2.3125 8.8125 C-2.71662109 9.55048828 -3.12074219 10.28847656 -3.53710938 11.04882812 C-4.13168945 12.11713867 -4.13168945 12.11713867 -4.73828125 13.20703125 C-5.09962158 13.8616333 -5.46096191 14.51623535 -5.83325195 15.19067383 C-7.0409622 17.06352184 -8.37188437 18.48656925 -10 20 C-9.67 17.36 -9.34 14.72 -9 12 C-7.68 11.67 -6.36 11.34 -5 11 C-5.33 9.68 -5.66 8.36 -6 7 C-5.01 7 -4.02 7 -3 7 C-2.690625 6.21625 -2.38125 5.4325 -2.0625 4.625 C-1 2 -1 2 0 0 Z " fill="#536BA3" transform="translate(517,570)"/>
<path d="M0 0 C0.66 1.32 1.32 2.64 2 4 C0.5 6.5 0.5 6.5 -2 9 C-4.80138565 9.45442324 -7.13800875 9.23849927 -10 9 C-10.66 7.35 -11.32 5.7 -12 4 C-9.69 4.66 -7.38 5.32 -5 6 C-3.35 4.02 -1.7 2.04 0 0 Z " fill="#414F8D" transform="translate(396,316)"/>
<path d="M0 0 C5.94 0.99 5.94 0.99 12 2 C11.34 3.32 10.68 4.64 10 6 C7.69 6 5.38 6 3 6 C2.67 5.01 2.34 4.02 2 3 C1.01 2.67 0.02 2.34 -1 2 C-0.67 1.34 -0.34 0.68 0 0 Z " fill="#2D51B0" transform="translate(334,336)"/>
<path d="M0 0 C0.93423645 3.01031744 1.04449911 3.86650268 0 7 C-0.19172794 10.02930141 -0.31677548 13.05647624 -0.42578125 16.08984375 C-1.11229792 19.56912892 -2.31134414 20.7728699 -5 23 C-4.44636539 14.97229811 -2.34312056 7.66145933 0 0 Z " fill="#4D649F" transform="translate(186,405)"/>
<path d="M0 0 C0.33 0.99 0.66 1.98 1 3 C4.3 3 7.6 3 11 3 C7 6 7 6 5 6 C5 5.34 5 4.68 5 4 C3.68 4 2.36 4 1 4 C1.04125 4.928125 1.0825 5.85625 1.125 6.8125 C1 10 1 10 -1 13 C-1.66 13 -2.32 13 -3 13 C-2.45144652 8.428721 -1.58255197 4.32564205 0 0 Z " fill="#5D77B2" transform="translate(506,369)"/>
<path d="M0 0 C0 4.62 0 9.24 0 14 C-0.99 14.33 -1.98 14.66 -3 15 C-3.87890625 8.84765625 -3.87890625 8.84765625 -4 7 C-3.67 6.67 -3.34 6.34 -3 6 C-2.95936168 4.33382885 -2.957279 2.66611905 -3 1 C-1 0 -1 0 0 0 Z " fill="#314593" transform="translate(488,359)"/>
<path d="M0 0 C0.66 0 1.32 0 2 0 C2.33 1.65 2.66 3.3 3 5 C2.34 5 1.68 5 1 5 C1.33 5.99 1.66 6.98 2 8 C-2.39251833 10.02055843 -6.15340923 11.40895235 -11 12 C-10.34 10.68 -9.68 9.36 -9 8 C-8.071875 8.0825 -7.14375 8.165 -6.1875 8.25 C-2.96341029 8.3301708 -2.96341029 8.3301708 -1.125 6.25 C0.2981424 3.82297795 0.2981424 3.82297795 0 0 Z " fill="#31408E" transform="translate(397,316)"/>
<path d="M0 0 C1.17482324 3.47454806 1.06339535 3.8675142 -0.65234375 7.453125 C-1.40158685 8.72617522 -2.16382013 9.99165126 -2.9375 11.25 C-3.32357422 11.8996875 -3.70964844 12.549375 -4.10742188 13.21875 C-5.06058418 14.81912129 -6.02885924 16.4104742 -7 18 C-7.58203125 16.15625 -7.58203125 16.15625 -8 14 C-6.6875 11.5 -6.6875 11.5 -5 9 C-4.31903578 7.67391178 -3.64669414 6.34313399 -3 5 C-2.34 5 -1.68 5 -1 5 C-0.67 3.35 -0.34 1.7 0 0 Z " fill="#4D6C9F" transform="translate(552,508)"/>
<path d="M0 0 C2.64 0 5.28 0 8 0 C8 0.99 8 1.98 8 3 C0.08 3 -7.84 3 -16 3 C-16 2.67 -16 2.34 -16 2 C-8.08 1.505 -8.08 1.505 0 1 C0 0.67 0 0.34 0 0 Z " fill="#384C99" transform="translate(608,370)"/>
<path d="M0 0 C3 1 3 1 4.5625 4 C5.036875 4.99 5.51125 5.98 6 7 C6.66 7.33 7.32 7.66 8 8 C8 8.66 8 9.32 8 10 C6.02 10 4.04 10 2 10 C0.39644899 6.49223216 -0.22036864 3.85645121 0 0 Z " fill="#344498" transform="translate(593,310)"/>
<path d="M0 0 C0.99 0.33 1.98 0.66 3 1 C1.62712658 4.69876091 -0.06355453 7.9514476 -2.125 11.3125 C-2.66382813 12.19550781 -3.20265625 13.07851563 -3.7578125 13.98828125 C-4.16773438 14.65214844 -4.57765625 15.31601562 -5 16 C-5.66 15.67 -6.32 15.34 -7 15 C-5.76203207 12.42090014 -4.39252444 9.96031405 -2.9375 7.5 C-1.5072995 5.02772032 -0.45675276 2.85470472 0 0 Z " fill="#E7F3FB" transform="translate(148,254)"/>
<path d="M0 0 C1.65 0 3.3 0 5 0 C3.56032356 5.23518706 1.18303389 9.63026009 -2 14 C-2.33 14 -2.66 14 -3 14 C-3.33 12.02 -3.66 10.04 -4 8 C-2.68 8 -1.36 8 0 8 C0 5.36 0 2.72 0 0 Z " fill="#5069A6" transform="translate(565,481)"/>
<path d="M0 0 C0.33 0.66 0.66 1.32 1 2 C0.07542386 4.40389795 -0.90420574 6.677498 -2 9 C-2.45375 10.051875 -2.9075 11.10375 -3.375 12.1875 C-5.17487372 15.30266605 -7.07662327 16.94573527 -10 19 C-8.40376856 14.60616294 -6.21975667 10.71004193 -3.875 6.6875 C-3.50246094 6.04232422 -3.12992188 5.39714844 -2.74609375 4.73242188 C-1.83367787 3.15324055 -0.91724491 1.57638136 0 0 Z " fill="#DAE7F7" transform="translate(608,416)"/>
<path d="M0 0 C0.66 0 1.32 0 2 0 C2 1.32 2 2.64 2 4 C2.78375 4.12375 3.5675 4.2475 4.375 4.375 C7 6 7 6 7.77734375 8.359375 C8.26935449 10.90202904 8.68230996 13.43002979 9 16 C6.38284162 13.61076232 4.63800887 11.02899249 2.8125 8 C2.28269531 7.13375 1.75289063 6.2675 1.20703125 5.375 C0 3 0 3 0 0 Z " fill="#3A5391" transform="translate(103,405)"/>
<path d="M0 0 C0.33 0 0.66 0 1 0 C1 1.98 1 3.96 1 6 C1.66 6 2.32 6 3 6 C2.1875 7.9375 2.1875 7.9375 1 10 C0.01 10.33 -0.98 10.66 -2 11 C-2.66 8.69 -3.32 6.38 -4 4 C-3.34 4 -2.68 4 -2 4 C-1.34 2.68 -0.68 1.36 0 0 Z " fill="#3858AA" transform="translate(265,378)"/>
<path d="M0 0 C2.12508244 3.18762365 2.5020163 5.26512223 3 9 C5.97 9.495 5.97 9.495 9 10 C9 10.33 9 10.66 9 11 C5.7 11 2.4 11 -1 11 C-1.125 3.375 -1.125 3.375 0 0 Z " fill="#3F589F" transform="translate(196,370)"/>
<path d="M0 0 C0.33 0 0.66 0 1 0 C1 10.5 1 10.5 0 14 C-1.32 14.33 -2.64 14.66 -4 15 C-3.79503906 14.25234375 -3.59007812 13.5046875 -3.37890625 12.734375 C-3.10949219 11.74953125 -2.84007812 10.7646875 -2.5625 9.75 C-2.29566406 8.77546875 -2.02882812 7.8009375 -1.75390625 6.796875 C-1.14455416 4.53627347 -0.55761745 2.27377991 0 0 Z " fill="#E2ECF7" transform="translate(172,362)"/>
<path d="M0 0 C0.66 0.33 1.32 0.66 2 1 C1.15634864 6.27282102 -1.94315645 11.55168298 -6 15 C-6.66 14.67 -7.32 14.34 -8 14 C-5.36 9.38 -2.72 4.76 0 0 Z " fill="#3E5496" transform="translate(191,186)"/>
<path d="M0 0 C2.52480693 2.52480693 2.55738633 4.13823034 3.125 7.625 C3.29257813 8.62789063 3.46015625 9.63078125 3.6328125 10.6640625 C3.75398437 11.43492187 3.87515625 12.20578125 4 13 C3.34 13 2.68 13 2 13 C2 11.68 2 10.36 2 9 C1.01 9 0.02 9 -1 9 C-1.80967438 6.08517222 -2.21845993 4.53886783 -1.0625 1.6875 C-0.711875 1.130625 -0.36125 0.57375 0 0 Z " fill="#4A5EA1" transform="translate(213,311)"/>
<path d="M0 0 C1.65 0 3.3 0 5 0 C5.33773438 0.63808594 5.67546875 1.27617187 6.0234375 1.93359375 C6.46945312 2.75988281 6.91546875 3.58617187 7.375 4.4375 C7.81585938 5.26121094 8.25671875 6.08492188 8.7109375 6.93359375 C9.83418559 9.13466578 9.83418559 9.13466578 12 10 C12 11.65 12 13.3 12 15 C9.84520255 12.38346023 7.85499644 9.7779633 6 6.9375 C4.18966548 4.27857117 2.34866937 2.18090727 0 0 Z " fill="#5E74A7" transform="translate(395,371)"/>
<path d="M0 0 C5.65128923 -0.3459973 9.11575268 0.31845245 14 3 C14.66 4.32 15.32 5.64 16 7 C10.72 5.02 5.44 3.04 0 1 C0 0.67 0 0.34 0 0 Z " fill="#525A95" transform="translate(370,358)"/>
<path d="M0 0 C0.99 0.33 1.98 0.66 3 1 C2.835 1.763125 2.67 2.52625 2.5 3.3125 C1.90854604 6.03596236 1.90854604 6.03596236 2 9 C-0.62901288 7.47793991 -2.84365964 6.15634036 -5 4 C-4.34 4 -3.68 4 -3 4 C-3 3.34 -3 2.68 -3 2 C-2.01 1.34 -1.02 0.68 0 0 Z " fill="#32438D" transform="translate(405,296)"/>
<path d="M0 0 C2.16750011 3.25125017 2.68533358 5.14533632 3 9 C2.0625 11.375 2.0625 11.375 1 13 C-0.5625 11.5 -0.5625 11.5 -2 9 C-2.01639538 6.18545988 -1.54914879 3.79150637 -1 1 C-0.67 0.67 -0.34 0.34 0 0 Z " fill="#3758AE" transform="translate(172,219)"/>
<path d="M0 0 C1.12737713 3.38213139 1.06292002 4.64771379 0 8 C-1.75 10 -1.75 10 -4 12 C-4.9075 12.9075 -5.815 13.815 -6.75 14.75 C-7.86375 15.86375 -7.86375 15.86375 -9 17 C-7.40130576 13.74082623 -5.68321146 10.55759926 -3.9375 7.375 C-1.92196336 3.71198386 -1.92196336 3.71198386 0 0 Z " fill="#DEEBF9" transform="translate(528,554)"/>
<path d="M0 0 C1.32 0.33 2.64 0.66 4 1 C4.33 2.65 4.66 4.3 5 6 C2.36 6 -0.28 6 -3 6 C-2 4 -1 2 0 0 Z " fill="#415094" transform="translate(628,367)"/>
<path d="M0 0 C3 1 3 1 4.75 3.9375 C5.36875 5.4534375 5.36875 5.4534375 6 7 C5.67 7.66 5.34 8.32 5 9 C4.67 8.01 4.34 7.02 4 6 C-0.10223585 4.98459888 -0.10223585 4.98459888 -4 6 C-3.0022242 3.00667261 -2.2477975 2.05233685 0 0 Z " fill="#384384" transform="translate(566,259)"/>
<path d="M0 0 C3 0 3 0 5 1 C2.03 5.95 2.03 5.95 -1 11 C-2.39160413 6.82518761 -1.36588972 4.09766916 0 0 Z " fill="#E3EFFA" transform="translate(186,187)"/>
<path d="M0 0 C2.3125 0.5625 2.3125 0.5625 5 2 C8.22916667 7.8125 8.22916667 7.8125 7.5703125 11.2265625 C7.38210937 11.81179688 7.19390625 12.39703125 7 13 C5.83072457 11.02237345 4.66464427 9.04285742 3.5 7.0625 C2.8503125 5.96035156 2.200625 4.85820312 1.53125 3.72265625 C0 1 0 1 0 0 Z " fill="#41599A" transform="translate(158,502)"/>
<path d="M0 0 C2.475 0.495 2.475 0.495 5 1 C5 1.66 5 2.32 5 3 C9.455 3.99 9.455 3.99 14 5 C14 5.33 14 5.66 14 6 C11.36 6.33 8.72 6.66 6 7 C5.67 6.34 5.34 5.68 5 5 C4.34 4.690625 3.68 4.38125 3 4.0625 C1 3 1 3 0 0 Z " fill="#566FA8" transform="translate(314,443)"/>
<path d="M0 0 C1.68900014 3.10629156 2.70626667 6.15205051 3.625 9.5625 C3.88539063 10.51253906 4.14578125 11.46257812 4.4140625 12.44140625 C5 15 5 15 5 18 C4.34 18 3.68 18 3 18 C0.86380263 11.79485526 -0.36517527 6.57315478 0 0 Z " fill="#4D61A4" transform="translate(224,350)"/>
<path d="M0 0 C2.97 0.33 5.94 0.66 9 1 C8.67 1.66 8.34 2.32 8 3 C9.98 3.66 11.96 4.32 14 5 C14 5.66 14 6.32 14 7 C9.76907828 7.36265043 7.37362154 6.60250805 4 4 C4 3.01 4 2.02 4 1 C2.68 0.67 1.36 0.34 0 0 Z " fill="#4763B3" transform="translate(362,311)"/>
<path d="M0 0 C1.98 0.66 3.96 1.32 6 2 C5.67 3.32 5.34 4.64 5 6 C2.69 5.34 0.38 4.68 -2 4 C-2 3.34 -2 2.68 -2 2 C-1.34 2 -0.68 2 0 2 C0 1.34 0 0.68 0 0 Z " fill="#334291" transform="translate(371,353)"/>
<path d="M0 0 C3.97497544 3.40712181 5.86793788 7.32760855 8 12 C7.34 12 6.68 12 6 12 C4 10 4 10 3 7 C2.01 6.67 1.02 6.34 0 6 C0 4.02 0 2.04 0 0 Z " fill="#4A558F" transform="translate(593,304)"/>
<path d="M0 0 C0.66 0.99 1.32 1.98 2 3 C1.54625 3.7425 1.0925 4.485 0.625 5.25 C-0.99207827 7.85216344 -0.99207827 7.85216344 -1.9375 10.1875 C-3.26757334 12.45644863 -4.59686711 13.03874684 -7 14 C-5.23570801 9.02790438 -2.6060834 4.56561939 0 0 Z " fill="#DBE7F7" transform="translate(573,476)"/>
<path d="M0 0 C2.22574335 0.22451458 4.45581519 0.40782878 6.6875 0.5625 C7.86699219 0.64628906 9.04648437 0.73007812 10.26171875 0.81640625 C11.61716797 0.90728516 11.61716797 0.90728516 13 1 C13 1.33 13 1.66 13 2 C10.08308475 2.05401695 7.16717276 2.09368066 4.25 2.125 C3.425 2.14175781 2.6 2.15851563 1.75 2.17578125 C0.95078125 2.18222656 0.1515625 2.18867188 -0.671875 2.1953125 C-1.4050293 2.20578613 -2.13818359 2.21625977 -2.89355469 2.22705078 C-5.29896076 1.96777544 -6.91251494 1.19225925 -9 0 C-3.375 -1.125 -3.375 -1.125 0 0 Z " fill="#7C8EBD" transform="translate(347,424)"/>
<path d="M0 0 C3 3 6 6 9 9 C6.625 9.625 6.625 9.625 4 10 C3.34 9.34 2.68 8.68 2 8 C2 7.01 2 6.02 2 5 C1.34 4.67 0.68 4.34 0 4 C0 2.68 0 1.36 0 0 Z " fill="#4158A6" transform="translate(306,355)"/>
<path d="M0 0 C1.5 1.0625 1.5 1.0625 3 3 C3.08967728 5.33160941 3.0777346 7.66796188 3 10 C3.29692012 12.33824592 3.62020847 14.67377689 4 17 C1.23775226 14.23775226 1.10483987 11.73686629 0.3125 7.9375 C0.04050781 6.66777344 -0.23148437 5.39804687 -0.51171875 4.08984375 C-0.67285156 3.07019531 -0.83398438 2.05054688 -1 1 C-0.67 0.67 -0.34 0.34 0 0 Z " fill="#58629A" transform="translate(480,348)"/>
<path d="M0 0 C0.33 0.66 0.66 1.32 1 2 C0.34 2 -0.32 2 -1 2 C-1 2.66 -1 3.32 -1 4 C-0.34 4.33 0.32 4.66 1 5 C-2.875 7 -2.875 7 -4 7 C-4 5.35 -4 3.7 -4 2 C-4.99 1.67 -5.98 1.34 -7 1 C-4.53721199 -0.231394 -2.7204945 -0.07159196 0 0 Z " fill="#3B4596" transform="translate(589,295)"/>
<path d="M0 0 C0.66 0.66 1.32 1.32 2 2 C0.35 6.95 -1.3 11.9 -3 17 C-3.33 17 -3.66 17 -4 17 C-3.58411954 10.80481527 -2.39748106 5.73310689 0 0 Z " fill="#4A609D" transform="translate(169,367)"/>
<path d="M0 0 C0.33 0 0.66 0 1 0 C1.23863636 13.60227273 1.23863636 13.60227273 -2 19 C-3.69843394 12.20626425 -1.92258516 6.61499641 0 0 Z " fill="#5269A6" transform="translate(207,329)"/>
<path d="M0 0 C1.5 1.1875 1.5 1.1875 3 3 C3.1875 5.6875 3.1875 5.6875 3 8 C1.68 8.33 0.36 8.66 -1 9 C-1.33 7.02 -1.66 5.04 -2 3 C-1.34 2.67 -0.68 2.34 0 2 C0 1.34 0 0.68 0 0 Z " fill="#34418A" transform="translate(546,223)"/>
<path d="M0 0 C1.08899258 4.35597031 1.00108862 5.18840263 -1 9 C-3.125 11.3125 -3.125 11.3125 -5 13 C-5.66 12.67 -6.32 12.34 -7 12 C-4.69 8.04 -2.38 4.08 0 0 Z " fill="#D4E3F1" transform="translate(565,490)"/>
<path d="M0 0 C0.66 1.32 1.32 2.64 2 4 C-3.0940919 10.86214442 -3.0940919 10.86214442 -6.875 11.4375 C-7.57625 11.293125 -8.2775 11.14875 -9 11 C-7.33085412 9.33085412 -5.65835622 7.6790619 -3.9375 6.0625 C-2.09769386 4.10399669 -1.05065666 2.45153221 0 0 Z " fill="#D4E1F4" transform="translate(379,412)"/>
<path d="M0 0 C0.99 0 1.98 0 3 0 C3 1.32 3 2.64 3 4 C3.66 4.33 4.32 4.66 5 5 C3.35 6.32 1.7 7.64 0 9 C0 8.34 0 7.68 0 7 C-0.66 7 -1.32 7 -2 7 C-1.34 5.68 -0.68 4.36 0 3 C-0.33 2.67 -0.66 2.34 -1 2 C-0.67 1.34 -0.34 0.68 0 0 Z " fill="#425FB3" transform="translate(335,313)"/>
<path d="M0 0 C1.32 0.33 2.64 0.66 4 1 C4 3.31 4 5.62 4 8 C4.66 8 5.32 8 6 8 C5.67 9.65 5.34 11.3 5 13 C3.49439503 10.14589666 2.36783204 7.31875358 1.375 4.25 C0.98441406 3.05117188 0.98441406 3.05117188 0.5859375 1.828125 C0.39257812 1.22484375 0.19921875 0.6215625 0 0 Z " fill="#395599" transform="translate(230,287)"/>
<path d="M0 0 C2.50037734 2.17424117 3.43628586 3.73045798 4 7 C3.05125 6.649375 2.1025 6.29875 1.125 5.9375 C-1.87060172 4.64973223 -1.87060172 4.64973223 -4 6 C-4 4.68 -4 3.36 -4 2 C-2.68 1.34 -1.36 0.68 0 0 Z " fill="#354186" transform="translate(502,147)"/>
<path d="M0 0 C3 2 3 2 3.51171875 3.9453125 C3.67447917 5.96354167 3.83723958 7.98177083 4 10 C3.01 10 2.02 10 1 10 C0.34 7.69 -0.32 5.38 -1 3 C-0.34 3 0.32 3 1 3 C0.67 2.01 0.34 1.02 0 0 Z " fill="#3254AE" transform="translate(203,570)"/>
<path d="M0 0 C0.33 0 0.66 0 1 0 C1.44539877 8.7595092 1.44539877 8.7595092 -2 13 C-2.66 13 -3.32 13 -4 13 C-3.52343588 11.20763933 -3.04366502 9.41613103 -2.5625 7.625 C-2.29566406 6.62726563 -2.02882813 5.62953125 -1.75390625 4.6015625 C-1 2 -1 2 0 0 Z " fill="#414B84" transform="translate(512,354)"/>
<path d="M0 0 C1.41750563 0.11509661 2.83401169 0.24253658 4.25 0.375 C5.03890625 0.44460938 5.8278125 0.51421875 6.640625 0.5859375 C9.085877 1.01507113 10.84836903 1.78600638 13 3 C12.67 3.66 12.34 4.32 12 5 C10.37276701 4.54965877 8.74826336 4.08944646 7.125 3.625 C5.76761719 3.24214844 5.76761719 3.24214844 4.3828125 2.8515625 C2 2 2 2 0 0 Z " fill="#5B72AD" transform="translate(342,346)"/>
<path d="M0 0 C2.40575607 2.18517099 3.79535581 4.25919671 5.1875 7.1875 C5.53167969 7.90292969 5.87585938 8.61835938 6.23046875 9.35546875 C6.48441406 9.89816406 6.73835937 10.44085938 7 11 C6.01 11.495 6.01 11.495 5 12 C4.15556432 10.75747321 3.3248542 9.5056114 2.5 8.25 C1.80390625 7.20585937 1.80390625 7.20585937 1.09375 6.140625 C0 4 0 4 0 0 Z " fill="#464F8C" transform="translate(549,228)"/>
<path d="M0 0 C2.72426311 2.35277269 3.8141763 4.62496331 5 8 C4.34 8.66 3.68 9.32 3 10 C1.68 10 0.36 10 -1 10 C-0.34 8.02 0.32 6.04 1 4 C0.34 3.34 -0.32 2.68 -1 2 C-0.67 1.34 -0.34 0.68 0 0 Z " fill="#495596" transform="translate(498,139)"/>
<path d="M0 0 C0.66 0 1.32 0 2 0 C3.4783226 2.95664519 3.06032783 5.74229737 3 9 C3.66 9.33 4.32 9.66 5 10 C4.34 11.32 3.68 12.64 3 14 C2.49307308 12.4188708 1.99473557 10.83498617 1.5 9.25 C1.2215625 8.36828125 0.943125 7.4865625 0.65625 6.578125 C0 4 0 4 0 0 Z " fill="#47619D" transform="translate(270,407)"/>
<path d="M0 0 C1.87978657 2.73177617 2.01655381 3.88384275 1.5390625 7.234375 C1.23742187 8.39453125 0.93578125 9.5546875 0.625 10.75 C0.32851563 11.92046875 0.03203125 13.0909375 -0.2734375 14.296875 C-0.51320313 15.18890625 -0.75296875 16.0809375 -1 17 C-1.33 17 -1.66 17 -2 17 C-1.85848172 14.9163691 -1.71162064 12.83310062 -1.5625 10.75 C-1.48128906 9.58984375 -1.40007812 8.4296875 -1.31640625 7.234375 C-1.06752213 4.69022624 -0.71885058 2.44046752 0 0 Z " fill="#404C86" transform="translate(490,351)"/>
<path d="M0 0 C1.67933531 5.03800593 0.20926064 9.32156569 -2 14 C-2.99 14.495 -2.99 14.495 -4 15 C-3.52229477 13.06213915 -3.04278429 11.12472326 -2.5625 9.1875 C-2.29566406 8.10855469 -2.02882812 7.02960938 -1.75390625 5.91796875 C-1.23922588 3.9259157 -0.65062825 1.95188476 0 0 Z " fill="#CCDBF2" transform="translate(185,322)"/>
<path d="M0 0 C0.66 0 1.32 0 2 0 C1.43628586 3.26954202 0.50037734 4.82575883 -2 7 C-3.98 6.34 -5.96 5.68 -8 5 C-4.91190305 3.23537317 -3.76687864 3 0 3 C0 2.01 0 1.02 0 0 Z " fill="#E3ECF9" transform="translate(393,316)"/>
<path d="M0 0 C2.33936818 2.12669835 3.80653848 4.06224856 5 7 C5 7.99 5 8.98 5 10 C4.01 9.67 3.02 9.34 2 9 C2 8.01 2 7.02 2 6 C1.34 6 0.68 6 0 6 C0 4.02 0 2.04 0 0 Z " fill="#3C4886" transform="translate(560,247)"/>
<path d="M0 0 C2.72426311 2.35277269 3.8141763 4.62496331 5 8 C4.01 8.66 3.02 9.32 2 10 C-0.09350689 6.5980513 -0.17942163 3.94727588 0 0 Z " fill="#D8E3F2" transform="translate(138,468)"/>
<path d="M0 0 C0.33 0.66 0.66 1.32 1 2 C-0.21484375 4.3828125 -0.21484375 4.3828125 -1.9375 7.125 C-2.50339844 8.03507812 -3.06929687 8.94515625 -3.65234375 9.8828125 C-4.09707031 10.58148438 -4.54179688 11.28015625 -5 12 C-5.33 11.34 -5.66 10.68 -6 10 C-5.1875 7.625 -5.1875 7.625 -4 5 C-3.505 3.88625 -3.505 3.88625 -3 2.75 C-2 1 -2 1 0 0 Z " fill="#4B67A1" transform="translate(584,455)"/>
<path d="M0 0 C0.99 0.33 1.98 0.66 3 1 C2.38245741 2.31602523 1.75571258 3.62773556 1.125 4.9375 C0.77695312 5.66839844 0.42890625 6.39929688 0.0703125 7.15234375 C-1 9 -1 9 -3 10 C-2.49287967 6.28111761 -1.88391785 3.26545761 0 0 Z " fill="#5770A5" transform="translate(620,390)"/>
<path d="M0 0 C2.26171875 0.4609375 2.26171875 0.4609375 4.6875 1.375 C5.49574219 1.67148437 6.30398438 1.96796875 7.13671875 2.2734375 C7.75160156 2.51320313 8.36648438 2.75296875 9 3 C8.01 3.66 7.02 4.32 6 5 C5.67 4.67 5.34 4.34 5 4 C3.48071962 3.92820036 1.95832518 3.91607993 0.4375 3.9375 C-0.80193359 3.95103516 -0.80193359 3.95103516 -2.06640625 3.96484375 C-3.02353516 3.98224609 -3.02353516 3.98224609 -4 4 C-3 2 -3 2 0 0 Z " fill="#36549A" transform="translate(325,370)"/>
<path d="M0 0 C1.15957207 3.47871621 0.77456651 4.34219645 -0.4375 7.6875 C-0.86869141 8.89986328 -0.86869141 8.89986328 -1.30859375 10.13671875 C-1.53675781 10.75160156 -1.76492187 11.36648438 -2 12 C-3.0546875 10.203125 -3.0546875 10.203125 -4 8 C-3.125 4.75 -3.125 4.75 -2 2 C-1.34 2 -0.68 2 0 2 C0 1.34 0 0.68 0 0 Z " fill="#4A639E" transform="translate(191,302)"/>
<path d="M0 0 C2.33936818 2.12669835 3.80653848 4.06224856 5 7 C5 7.99 5 8.98 5 10 C4.01 10.33 3.02 10.66 2 11 C0.80712589 7.12315913 0 4.08378077 0 0 Z " fill="#363F80" transform="translate(535,204)"/>
<path d="M0 0 C1.32 0.33 2.64 0.66 4 1 C2.68 3.31 1.36 5.62 0 8 C-0.99 7.01 -1.98 6.02 -3 5 C-2.01 3.35 -1.02 1.7 0 0 Z " fill="#E7F1FA" transform="translate(212,144)"/>
<path d="M0 0 C4.42857143 5.14285714 4.42857143 5.14285714 5 9 C4.01 8.67 3.02 8.34 2 8 C2 7.34 2 6.68 2 6 C1.01 6.33 0.02 6.66 -1 7 C-0.67 4.69 -0.34 2.38 0 0 Z " fill="#E4EEF9" transform="translate(211,594)"/>
<path d="M0 0 C2 1 2 1 2.6328125 2.7421875 C2.79523438 3.44601562 2.95765625 4.14984375 3.125 4.875 C3.29257813 5.57367187 3.46015625 6.27234375 3.6328125 6.9921875 C4 9 4 9 4 12 C3.13058506 10.76055724 2.27994543 9.50792941 1.4375 8.25 C0.96183594 7.55390625 0.48617187 6.8578125 -0.00390625 6.140625 C-1 4 -1 4 -0.65234375 1.734375 C-0.43707031 1.16203125 -0.22179687 0.5896875 0 0 Z " fill="#344D93" transform="translate(211,588)"/>
<path d="M0 0 C2.32472205 2.85306797 3.7508258 5.54074837 5 9 C3.125 8.75 3.125 8.75 1 8 C-0.3125 6.1875 -0.3125 6.1875 -1 4 C-0.625 1.75 -0.625 1.75 0 0 Z " fill="#DCE3F4" transform="translate(121,438)"/>
<path d="M0 0 C1.98 0 3.96 0 6 0 C5.39816251 2.02045442 4.72693904 4.02111039 4 6 C3.01 6.495 3.01 6.495 2 7 C1.34 4.69 0.68 2.38 0 0 Z " fill="#4C66A4" transform="translate(601,417)"/>
<path d="M0 0 C0.99 0 1.98 0 3 0 C3.33 0.66 3.66 1.32 4 2 C4.99 2.33 5.98 2.66 7 3 C6.67 4.32 6.34 5.64 6 7 C3.69 5.35 1.38 3.7 -1 2 C-0.67 1.34 -0.34 0.68 0 0 Z " fill="#49548D" transform="translate(388,364)"/>
<path d="M0 0 C3 1 3 1 4.6875 3.9375 C6 7 6 7 6 9 C5.34 9 4.68 9 4 9 C3.87625 8.071875 3.87625 8.071875 3.75 7.125 C3.18741541 4.81562433 3.18741541 4.81562433 0.9375 3.75 C0.298125 3.5025 -0.34125 3.255 -1 3 C-0.67 2.01 -0.34 1.02 0 0 Z " fill="#47518A" transform="translate(604,324)"/>
<path d="M0 0 C0.12375 0.53625 0.2475 1.0725 0.375 1.625 C1.12206016 4.4638286 2.05303364 7.22223202 3 10 C2.34 10.66 1.68 11.32 1 12 C1 11.01 1 10.02 1 9 C0.34 9 -0.32 9 -1 9 C-1.33 9.66 -1.66 10.32 -2 11 C-1.125 3.375 -1.125 3.375 0 0 Z " fill="#617BB9" transform="translate(210,318)"/>
<path d="M0 0 C0.99 0 1.98 0 3 0 C3 0.66 3 1.32 3 2 C3.66 2.33 4.32 2.66 5 3 C4.0409375 3.433125 4.0409375 3.433125 3.0625 3.875 C0.84793921 4.82823451 0.84793921 4.82823451 0 7 C-0.99 6.67 -1.98 6.34 -3 6 C-2.01 4.02 -1.02 2.04 0 0 Z " fill="#425FA6" transform="translate(129,293)"/>
<path d="M0 0 C0 0.33 0 0.66 0 1 C-5.28 1.66 -10.56 2.32 -16 3 C-16 2.34 -16 1.68 -16 1 C-10.28728907 -1.0662997 -5.96345767 -1.0006709 0 0 Z " fill="#3F549B" transform="translate(352,284)"/>
<path d="M0 0 C0.66 0 1.32 0 2 0 C2.33 0.33 2.66 0.66 3 1 C3.66 0.67 4.32 0.34 5 0 C5.33 1.32 5.66 2.64 6 4 C5.01 4.66 4.02 5.32 3 6 C2.34 5.34 1.68 4.68 1 4 C0.01 4.495 0.01 4.495 -1 5 C-0.67 3.35 -0.34 1.7 0 0 Z " fill="#313E88" transform="translate(521,186)"/>
<path d="M0 0 C0.66 0 1.32 0 2 0 C3.60355101 3.50776784 4.22036864 6.14354879 4 10 C1.2027092 7.93243723 0.97307727 6.85559629 0.3125 3.3125 C0.209375 2.219375 0.10625 1.12625 0 0 Z M1 10 C3 11 3 11 3 11 Z " fill="#404991" transform="translate(511,163)"/>
<path d="M0 0 C3.79918838 0.51340384 5.43134786 1.2079868 8 4 C10.09989652 5.17574711 10.09989652 5.17574711 12 6 C11.67 6.66 11.34 7.32 11 8 C9.35048774 7.04801289 7.70548492 6.08820855 6.0625 5.125 C5.14597656 4.59132813 4.22945313 4.05765625 3.28515625 3.5078125 C1 2 1 2 0 0 Z " fill="#5168A3" transform="translate(312,411)"/>
<path d="M0 0 C1.98 0 3.96 0 6 0 C6.33 0.99 6.66 1.98 7 3 C8.65 3 10.3 3 12 3 C11.67 3.66 11.34 4.32 11 5 C9.53932801 4.54917531 8.08151968 4.08906463 6.625 3.625 C5.81289063 3.36976563 5.00078125 3.11453125 4.1640625 2.8515625 C2 2 2 2 0 0 Z " fill="#CBD9F0" transform="translate(322,368)"/>
<path d="M0 0 C0.99 0.99 1.98 1.98 3 3 C2.01 3.495 2.01 3.495 1 4 C1 4.66 1 5.32 1 6 C0.01 5.67 -0.98 5.34 -2 5 C-2 4.01 -2 3.02 -2 2 C-1.34 2 -0.68 2 0 2 C0 1.34 0 0.68 0 0 Z M-4 5 C-3.34 5.33 -2.68 5.66 -2 6 C-2.99 6.66 -3.98 7.32 -5 8 C-4.67 7.01 -4.34 6.02 -4 5 Z " fill="#465298" transform="translate(565,255)"/>
<path d="M0 0 C-0.33 0.99 -0.66 1.98 -1 3 C-0.01 3.33 0.98 3.66 2 4 C-4.75 3.25 -4.75 3.25 -7 1 C-3.375 -1.125 -3.375 -1.125 0 0 Z " fill="#6782BC" transform="translate(336,420)"/>
<path d="M0 0 C0.66 0 1.32 0 2 0 C3.125 6.75 3.125 6.75 2 9 C1.34 9 0.68 9 0 9 C0 6.03 0 3.06 0 0 Z " fill="#D3E1F2" transform="translate(380,402)"/>
<path d="M0 0 C0.33 0.66 0.66 1.32 1 2 C1.99 2 2.98 2 4 2 C3.67 3.65 3.34 5.3 3 7 C1.68 7 0.36 7 -1 7 C-0.67 4.69 -0.34 2.38 0 0 Z " fill="#2B4E9D" transform="translate(211,318)"/>
<path d="M0 0 C0.99 0.33 1.98 0.66 3 1 C4.3125 4.375 4.3125 4.375 5 8 C4.01 9.485 4.01 9.485 3 11 C2.01 7.37 1.02 3.74 0 0 Z " fill="#58609E" transform="translate(469,317)"/>
<path d="M0 0 C3.93846154 4.30769231 3.93846154 4.30769231 4.25 7.8125 C4.1675 8.534375 4.085 9.25625 4 10 C3.01 9.67 2.02 9.34 1 9 C0.29925156 5.846632 0 3.27275026 0 0 Z " fill="#434E92" transform="translate(543,217)"/>
<path d="M0 0 C4 4.5 4 4.5 4 9 C3.34 9 2.68 9 2 9 C2 8.34 2 7.68 2 7 C1.01 6.67 0.02 6.34 -1 6 C-1 3 -1 3 0 0 Z " fill="#444C8F" transform="translate(521,179)"/>
<path d="M0 0 C0.99 0.33 1.98 0.66 3 1 C3.94921875 3.28515625 3.94921875 3.28515625 4.6875 6.0625 C4.93886719 6.98160156 5.19023437 7.90070312 5.44921875 8.84765625 C5.63097656 9.55792969 5.81273437 10.26820313 6 11 C3.12878998 8.30572729 1.6117451 5.60723903 0 2 C0 1.34 0 0.68 0 0 Z " fill="#344B8F" transform="translate(198,569)"/>
<path d="M0 0 C3.3 1.65 6.6 3.3 10 5 C6 6 6 6 3.75 5.0625 C3.1725 4.711875 2.595 4.36125 2 4 C2 3.34 2 2.68 2 2 C1.34 2 0.68 2 0 2 C0 1.34 0 0.68 0 0 Z " fill="#435A9A" transform="translate(304,438)"/>
<path d="M0 0 C0.33 0.66 0.66 1.32 1 2 C1.66 2 2.32 2 3 2 C3 1.34 3 0.68 3 0 C3.66 0.33 4.32 0.66 5 1 C4.67 1.66 4.34 2.32 4 3 C3.34 3 2.68 3 2 3 C2.33 4.32 2.66 5.64 3 7 C2.01 7 1.02 7 0 7 C0 4.69 0 2.38 0 0 Z " fill="#3959AB" transform="translate(289,420)"/>
<path d="M0 0 C1.32 0 2.64 0 4 0 C4.125 2.875 4.125 2.875 4 6 C3.34 6.66 2.68 7.32 2 8 C1.34 5.36 0.68 2.72 0 0 Z " fill="#40599E" transform="translate(258,372)"/>
<path d="M0 0 C1.98 0.99 1.98 0.99 4 2 C4 3.65 4 5.3 4 7 C3.01 7.33 2.02 7.66 1 8 C0.67 5.36 0.34 2.72 0 0 Z " fill="#6E749F" transform="translate(484,366)"/>
<path d="M0 0 C0.33 0 0.66 0 1 0 C1 1.65 1 3.3 1 5 C0.34 5 -0.32 5 -1 5 C-1.33 6.65 -1.66 8.3 -2 10 C-2.97687451 6.96083486 -3.105817 5.01586454 -2 2 C-1.34 1.34 -0.68 0.68 0 0 Z " fill="#364193" transform="translate(501,314)"/>
<path d="M0 0 C0.33 0.66 0.66 1.32 1 2 C1.66 2.33 2.32 2.66 3 3 C1.35 4.65 -0.3 6.3 -2 8 C-2.66 7.67 -3.32 7.34 -4 7 C-2.68 4.69 -1.36 2.38 0 0 Z " fill="#E5EFF9" transform="translate(546,523)"/>
<path d="M0 0 C1.0625 1.8125 1.0625 1.8125 2 4 C1.67 4.99 1.34 5.98 1 7 C-1.0625 7.6875 -1.0625 7.6875 -3 8 C-1.125 2.25 -1.125 2.25 0 0 Z " fill="#E0EDF9" transform="translate(628,381)"/>
<path d="M0 0 C2.97 0.99 5.94 1.98 9 3 C8.67 3.66 8.34 4.32 8 5 C6.68 5 5.36 5 4 5 C4 4.34 4 3.68 4 3 C2.68 2.67 1.36 2.34 0 2 C0 1.34 0 0.68 0 0 Z " fill="#5E76AE" transform="translate(353,382)"/>
<path d="M0 0 C1.66666667 0 3.33333333 0 5 0 C4.34 1.98 3.68 3.96 3 6 C1.68 5.34 0.36 4.68 -1 4 C-0.34 4 0.32 4 1 4 C0.67 2.68 0.34 1.36 0 0 Z " fill="#3456AC" transform="translate(90,379)"/>
<path d="M0 0 C1.65 0.99 3.3 1.98 5 3 C4 6 4 6 2 7 C1.34 6.67 0.68 6.34 0 6 C0 4.02 0 2.04 0 0 Z " fill="#343F8A" transform="translate(625,363)"/>
<path d="M0 0 C0.33 0.66 0.66 1.32 1 2 C3.3140622 2.73075648 5.64828869 3.40138258 8 4 C8 4.66 8 5.32 8 6 C5.03 5.01 2.06 4.02 -1 3 C-0.67 2.01 -0.34 1.02 0 0 Z " fill="#465E9B" transform="translate(356,349)"/>
<path d="M0 0 C0.33 0.66 0.66 1.32 1 2 C1.99 2.33 2.98 2.66 4 3 C3.67 4.32 3.34 5.64 3 7 C2.34 7 1.68 7 1 7 C0.34 5.02 -0.32 3.04 -1 1 C-0.67 0.67 -0.34 0.34 0 0 Z " fill="#35439A" transform="translate(611,340)"/>
<path d="M0 0 C0.66 0 1.32 0 2 0 C3.35439668 2.70879335 3.06501451 5.00933268 3 8 C2.01 7.34 1.02 6.68 0 6 C-0.1875 2.875 -0.1875 2.875 0 0 Z " fill="#355097" transform="translate(215,324)"/>
<path d="M0 0 C1 3 1 3 1 7 C0.01 6.67 -0.98 6.34 -2 6 C-2.33 4.35 -2.66 2.7 -3 1 C-2.01 0.67 -1.02 0.34 0 0 Z " fill="#3E4885" transform="translate(471,311)"/>
<path d="M0 0 C1.32 0 2.64 0 4 0 C4.625 2.3125 4.625 2.3125 5 5 C4.01 6.485 4.01 6.485 3 8 C1.92474806 5.34771188 0.90543849 2.71631546 0 0 Z " fill="#324187" transform="translate(505,290)"/>
<path d="M0 0 C0.66 0 1.32 0 2 0 C1.49396008 2.16874252 1.00016187 3.99967627 0 6 C-1.32 6 -2.64 6 -4 6 C-2.84826645 3.53199953 -1.95216435 1.95216435 0 0 Z " fill="#3E58AB" transform="translate(148,263)"/>
<path d="M0 0 C1.04187157 3.12561472 1.23843794 4.04680182 0 7 C-2.0625 8.25 -2.0625 8.25 -4 9 C-2.94124926 5.59687262 -1.99097846 2.98646769 0 0 Z " fill="#334C90" transform="translate(203,166)"/>
<path d="M0 0 C3.00609963 1.00203321 4.06176821 1.60028446 6 4 C6 4.99 6 5.98 6 7 C5.01 7 4.02 7 3 7 C2.01 4.69 1.02 2.38 0 0 Z " fill="#375194" transform="translate(177,534)"/>
<path d="M0 0 C2.72426311 2.35277269 3.8141763 4.62496331 5 8 C3.68 7.67 2.36 7.34 1 7 C0.67 4.69 0.34 2.38 0 0 Z " fill="#CDDCF0" transform="translate(128,451)"/>
<path d="M0 0 C0.66 0 1.32 0 2 0 C1.38461538 5.53846154 1.38461538 5.53846154 -0.5625 7.875 C-1.036875 8.24625 -1.51125 8.6175 -2 9 C-2 7.68 -2 6.36 -2 5 C-1.34 5 -0.68 5 0 5 C0 3.35 0 1.7 0 0 Z " fill="#516FA8" transform="translate(588,445)"/>
<path d="M0 0 C0.33 0 0.66 0 1 0 C1 2.64 1 5.28 1 8 C0.34 8 -0.32 8 -1 8 C-1.33 8.99 -1.66 9.98 -2 11 C-3 9 -3 9 -2.44140625 6.8359375 C-2.15136719 6.02382813 -1.86132812 5.21171875 -1.5625 4.375 C-1.27503906 3.55773437 -0.98757812 2.74046875 -0.69140625 1.8984375 C-0.46324219 1.27195312 -0.23507813 0.64546875 0 0 Z " fill="#667BB5" transform="translate(177,436)"/>
<path d="M0 0 C1.98 0.495 1.98 0.495 4 1 C3.67 2.65 3.34 4.3 3 6 C1.68 5.34 0.36 4.68 -1 4 C-0.67 3.34 -0.34 2.68 0 2 C0 1.34 0 0.68 0 0 Z " fill="#2E56AF" transform="translate(115,419)"/>
<path d="M0 0 C-5.625 3 -5.625 3 -9 3 C-9 2.34 -9 1.68 -9 1 C-3.375 -1.125 -3.375 -1.125 0 0 Z " fill="#657AAF" transform="translate(371,422)"/>
<path d="M0 0 C0.66 0 1.32 0 2 0 C1.6875 2.875 1.6875 2.875 1 6 C0.01 6.66 -0.98 7.32 -2 8 C-2.125 5.125 -2.125 5.125 -2 2 C-1.34 1.34 -0.68 0.68 0 0 Z " fill="#3D599B" transform="translate(158,400)"/>
<path d="M0 0 C0 3 0 3 -2 5.1875 C-2.66 5.785625 -3.32 6.38375 -4 7 C-4 5.35 -4 3.7 -4 2 C-2.68 1.34 -1.36 0.68 0 0 Z " fill="#6174A8" transform="translate(633,372)"/>
<path d="M0 0 C2.35171131 0.59861742 4.6859378 1.26924352 7 2 C7.33 2.66 7.66 3.32 8 4 C6.02 4.33 4.04 4.66 2 5 C1.34 3.35 0.68 1.7 0 0 Z " fill="#4C5F9E" transform="translate(384,320)"/>
<path d="M0 0 C0.66 0 1.32 0 2 0 C4.61896089 2.82847776 5.4739075 5.21213403 6 9 C5.34 9 4.68 9 4 9 C3.34 7.02 2.68 5.04 2 3 C1.34 3 0.68 3 0 3 C0 2.01 0 1.02 0 0 Z " fill="#3E4984" transform="translate(581,285)"/>
<path d="M0 0 C1.8125 0.125 1.8125 0.125 4 1 C5.75 4.0625 5.75 4.0625 7 7 C6.01 7.495 6.01 7.495 5 8 C4.67 7.01 4.34 6.02 4 5 C1.99983534 3.79117904 1.99983534 3.79117904 0 3 C0 2.01 0 1.02 0 0 Z " fill="#505B96" transform="translate(572,271)"/>
<path d="M0 0 C0.68707555 2.49064888 1 4.37886292 1 7 C-0.65 7.33 -2.3 7.66 -4 8 C-2.66666667 5.33333333 -1.33333333 2.66666667 0 0 Z " fill="#4061B3" transform="translate(335,412)"/>
<path d="M0 0 C0.66 0.66 1.32 1.32 2 2 C0.68 4.31 -0.64 6.62 -2 9 C-2.33 9 -2.66 9 -3 9 C-3 7.02 -3 5.04 -3 3 C-2.01 3 -1.02 3 0 3 C0 2.01 0 1.02 0 0 Z " fill="#4D6AA4" transform="translate(611,407)"/>
<path d="M0 0 C4 4.75 4 4.75 4 7 C1.525 6.01 1.525 6.01 -1 5 C-0.67 3.35 -0.34 1.7 0 0 Z " fill="#E1ECF8" transform="translate(98,399)"/>
<path d="M0 0 C1.32 0.33 2.64 0.66 4 1 C4 2.32 4 3.64 4 5 C2.68 5.33 1.36 5.66 0 6 C0 4.02 0 2.04 0 0 Z " fill="#3B5CAB" transform="translate(336,375)"/>
<path d="M0 0 C2.3431213 0.25561323 4.67843403 0.59270772 7 1 C7.33 1.66 7.66 2.32 8 3 C6.25 3.75 6.25 3.75 4 4 C1.75 2.0625 1.75 2.0625 0 0 Z " fill="#DDEAF5" transform="translate(312,361)"/>
<path d="M0 0 C1.32 0.66 2.64 1.32 4 2 C4 2.66 4 3.32 4 4 C2.35 4.33 0.7 4.66 -1 5 C-1.33 4.01 -1.66 3.02 -2 2 C-1.34 1.34 -0.68 0.68 0 0 Z " fill="#354290" transform="translate(387,360)"/>
<path d="M0 0 C0.99 0 1.98 0 3 0 C3 0.66 3 1.32 3 2 C2.34 2 1.68 2 1 2 C1.33 2.99 1.66 3.98 2 5 C1.01 5.99 0.02 6.98 -1 8 C-1.04241723 5.66705225 -1.04092937 3.33297433 -1 1 C-0.67 0.67 -0.34 0.34 0 0 Z " fill="#32428E" transform="translate(474,320)"/>
<path d="M0 0 C0.66 0 1.32 0 2 0 C1.34 3.3 0.68 6.6 0 10 C-1.07193479 6.78419562 -1.14636054 4.36629251 -1 1 C-0.67 0.67 -0.34 0.34 0 0 Z " fill="#525C93" transform="translate(510,288)"/>
<path d="M0 0 C0.66 0 1.32 0 2 0 C0.90931332 3.77545388 0.0916909 6.47043472 -3 9 C-3 7.35 -3 5.7 -3 4 C-2.34 3.67 -1.68 3.34 -1 3 C-0.67 2.01 -0.34 1.02 0 0 Z " fill="#DCEAF8" transform="translate(178,205)"/>
<path d="M0 0 C2.0625 2.3125 2.0625 2.3125 4 5 C3.67 5.99 3.34 6.98 3 8 C1.5 6.8125 1.5 6.8125 0 5 C-0.1875 2.3125 -0.1875 2.3125 0 0 Z " fill="#364183" transform="translate(528,192)"/>
<path d="M0 0 C1.09658936 3.28976808 0.79953138 4.71303767 0 8 C-0.99 8.33 -1.98 8.66 -3 9 C-3 5.30581799 -1.71820705 3.22163822 0 0 Z " fill="#485E9D" transform="translate(217,141)"/>
<path d="M0 0 C0.99 0.33 1.98 0.66 3 1 C2.01 2.485 2.01 2.485 1 4 C1 4.66 1 5.32 1 6 C1.66 6.33 2.32 6.66 3 7 C2.01 7 1.02 7 0 7 C-0.66 5.35 -1.32 3.7 -2 2 C-1.34 1.34 -0.68 0.68 0 0 Z " fill="#E9EFFA" transform="translate(505,145)"/>
</svg>
