<?xml version="1.0" encoding="UTF-8"?>
<svg version="1.1" xmlns="http://www.w3.org/2000/svg" width="512" height="512">
<path d="M0 0 C0.83015625 -0.02449219 1.6603125 -0.04898438 2.515625 -0.07421875 C13.84193925 -0.12665539 22.84652211 4.95809233 32.3125 10.6875 C34.43053045 11.94608548 36.5490366 13.20387069 38.66796875 14.4609375 C40.29484619 15.43111816 40.29484619 15.43111816 41.95458984 16.42089844 C47.31652107 19.60039892 52.72090911 22.70538241 58.125 25.8125 C60.30997595 27.07147554 62.49487142 28.33059078 64.6796875 29.58984375 C66.30729004 30.52739502 66.30729004 30.52739502 67.96777344 31.48388672 C73.39659942 34.61180148 78.82319281 37.74358448 84.25 40.875 C86.41665583 42.12501879 88.5833225 43.37501878 90.75 44.625 C112.41666667 57.125 134.08333333 69.625 155.75 82.125 C156.8237085 82.74439453 157.89741699 83.36378906 159.00366211 84.00195312 C161.15830624 85.245123 163.31276757 86.48860975 165.46704102 87.73242188 C170.47754121 90.62483147 175.48962635 93.51435227 180.50863647 96.39196777 C182.26728749 97.40048314 184.02533209 98.4100477 185.78320312 99.41992188 C187.97472231 100.67850518 190.16734504 101.93516987 192.36132812 103.18945312 C209.01558903 112.76271164 222.38751961 120.78826962 227.83014035 140.34483492 C228.61442441 144.13711674 228.53134571 147.93305116 228.51742554 151.79179382 C228.52195665 152.72035795 228.52648776 153.64892207 228.53115618 154.6056245 C228.54378271 157.70677925 228.54218092 160.80775799 228.54052734 163.90893555 C228.54651374 166.13677699 228.55331955 168.36461636 228.56088257 170.592453 C228.57854001 176.63811706 228.58323789 182.68372449 228.58451414 188.72941184 C228.58593663 192.50940587 228.59020813 196.28938554 228.59550858 200.06937599 C228.61305476 212.58419495 228.62234893 225.09898176 228.62084763 237.61381044 C228.62076772 238.28773493 228.6206878 238.96165942 228.62060547 239.65600586 C228.62052371 240.33075979 228.62044195 241.00551372 228.62035771 241.70071474 C228.61954544 252.6271185 228.63867033 263.55338419 228.6668822 274.47974803 C228.69566589 285.7168778 228.70905385 296.95394245 228.70769465 308.19111663 C228.70718558 314.49264922 228.71283834 320.79402559 228.73405075 327.09552574 C228.75346872 333.02585918 228.75353301 338.95588796 228.73901749 344.88623238 C228.73693261 347.05654217 228.74161098 349.22687122 228.7537384 351.39714813 C228.84233976 368.35845063 227.22930423 381.7583981 215.2890625 394.69921875 C210.62547417 399.28093615 205.12126636 402.22634428 199.4375 405.375 C197.69616257 406.35937867 195.95483481 407.34377496 194.21411133 408.32923889 C192.41631647 409.3451924 190.61586198 410.35629866 188.81494141 411.36669922 C183.22410125 414.50899624 177.67663085 417.72662022 172.125 420.9375 C171.04742432 421.55890869 169.96984863 422.18031738 168.85961914 422.82055664 C161.68348851 426.95978199 154.52568033 431.12950036 147.375 435.3125 C138.10500223 440.73421178 128.79168248 446.07704915 119.46154785 451.39422607 C110.3371716 456.59545129 101.24867226 461.85527878 92.18310547 467.15844727 C81.67671741 473.3023965 71.1313613 479.37819756 60.58496094 485.453125 C56.01562194 488.08634876 51.44853252 490.72345995 46.8815918 493.36083984 C43.59814742 495.25585496 40.31281218 497.14755947 37.02734375 499.0390625 C33.59299566 501.0176122 30.16645548 503.00753915 26.75390625 505.0234375 C26.11356445 505.39863525 25.47322266 505.77383301 24.81347656 506.16040039 C23.23323126 507.08735131 21.65735787 508.02174559 20.08203125 508.95703125 C13.6166946 512.19415843 7.58871655 512.73919403 0.5 512.75 C-0.33015625 512.77449219 -1.1603125 512.79898438 -2.015625 512.82421875 C-13.34193925 512.87665539 -22.34652211 507.79190767 -31.8125 502.0625 C-33.93053045 500.80391452 -36.0490366 499.54612931 -38.16796875 498.2890625 C-39.25255371 497.64227539 -40.33713867 496.99548828 -41.45458984 496.32910156 C-46.81652107 493.14960108 -52.22090911 490.04461759 -57.625 486.9375 C-59.80997595 485.67852446 -61.99487142 484.41940922 -64.1796875 483.16015625 C-65.26475586 482.53512207 -66.34982422 481.91008789 -67.46777344 481.26611328 C-72.89659942 478.13819852 -78.32319281 475.00641552 -83.75 471.875 C-85.91665583 470.62498121 -88.0833225 469.37498122 -90.25 468.125 C-111.91666667 455.625 -133.58333333 443.125 -155.25 430.625 C-156.3237085 430.00560547 -157.39741699 429.38621094 -158.50366211 428.74804688 C-160.65830624 427.504877 -162.81276757 426.26139025 -164.96704102 425.01757812 C-169.97754121 422.12516853 -174.98962635 419.23564773 -180.00863647 416.35803223 C-181.76728749 415.34951686 -183.52533209 414.3399523 -185.28320312 413.33007812 C-187.47472231 412.07149482 -189.66734504 410.81483013 -191.86132812 409.56054688 C-208.51558903 399.98728836 -221.88751961 391.96173038 -227.33014035 372.40516508 C-228.11442441 368.61288326 -228.03134571 364.81694884 -228.01742554 360.95820618 C-228.02195665 360.02964205 -228.02648776 359.10107793 -228.03115618 358.1443755 C-228.04378271 355.04322075 -228.04218092 351.94224201 -228.04052734 348.84106445 C-228.04651374 346.61322301 -228.05331955 344.38538364 -228.06088257 342.157547 C-228.07854001 336.11188294 -228.08323789 330.06627551 -228.08451414 324.02058816 C-228.08593663 320.24059413 -228.09020813 316.46061446 -228.09550858 312.68062401 C-228.11305476 300.16580505 -228.12234893 287.65101824 -228.12084763 275.13618956 C-228.12076772 274.46226507 -228.1206878 273.78834058 -228.12060547 273.09399414 C-228.12052371 272.41924021 -228.12044195 271.74448628 -228.12035771 271.04928526 C-228.11954544 260.1228815 -228.13867033 249.19661581 -228.1668822 238.27025197 C-228.19566589 227.0331222 -228.20905385 215.79605755 -228.20769465 204.55888337 C-228.20718558 198.25735078 -228.21283834 191.95597441 -228.23405075 185.65447426 C-228.25346872 179.72414082 -228.25353301 173.79411204 -228.23901749 167.86376762 C-228.23693261 165.69345783 -228.24161098 163.52312878 -228.2537384 161.35285187 C-228.34233976 144.39154937 -226.72930423 130.9916019 -214.7890625 118.05078125 C-210.12548281 113.46907235 -204.62127628 110.52361549 -198.9375 107.375 C-197.19405382 106.3895739 -195.45061738 105.40413004 -193.70779419 104.41760254 C-191.90915686 103.40127078 -190.10786773 102.38976947 -188.30615234 101.37890625 C-182.75888081 98.26065211 -177.25715277 95.06337366 -171.75 91.875 C-169.58354229 90.62463789 -167.416875 89.37463881 -165.25 88.125 C-164.1775 87.50625 -163.105 86.8875 -162 86.25 C-126.25 65.625 -126.25 65.625 -122.99951172 63.74975586 C-120.83442929 62.50064482 -118.66939018 61.25145871 -116.50439453 60.00219727 C-111.06384294 56.86297691 -105.62252784 53.72509437 -100.1796875 50.58984375 C-89.72793808 44.56752675 -79.28699707 38.52831935 -68.875 32.4375 C-58.80171347 26.545832 -48.68034386 20.74144069 -38.53955078 14.96704102 C-36.88802002 14.02622681 -36.88802002 14.02622681 -35.203125 13.06640625 C-34.12998047 12.45684082 -33.05683594 11.84727539 -31.95117188 11.21923828 C-29.78888499 9.97351565 -27.63926319 8.70558571 -25.50195312 7.41748047 C-16.84358057 2.20981109 -10.06159636 0.0153378 0 0 Z " fill="#659AD2" transform="translate(255.75,-0.375)"/>
<path d="M0 0 C0.64910154 1.58199631 1.29414694 3.16565724 1.9375 4.75 C2.29714844 5.63171875 2.65679687 6.5134375 3.02734375 7.421875 C4.38642612 11.02426202 5.124154 14.16619642 5.13422108 18.01943207 C5.13867892 18.81421007 5.14313676 19.60898807 5.14772969 20.42785025 C5.14745315 21.72879936 5.14745315 21.72879936 5.14717102 23.05603027 C5.15084771 23.98203112 5.1545244 24.90803197 5.1583125 25.86209345 C5.16934673 28.97252101 5.17319279 32.08291517 5.17700195 35.19335938 C5.18326691 37.4207571 5.18991374 39.64815378 5.19691467 41.87554932 C5.21795741 49.19827547 5.22831872 56.52100184 5.23828125 63.84375 C5.24232902 66.3657482 5.24644595 68.88774629 5.25063133 71.40974426 C5.26750171 81.90292783 5.28213522 92.39611027 5.28938007 102.88930511 C5.29128983 105.61109926 5.29321018 108.33289339 5.29516602 111.0546875 C5.29564976 111.73113794 5.2961335 112.40758837 5.2966319 113.10453731 C5.30492344 124.05052451 5.33024559 134.99640211 5.36274669 145.94234151 C5.39587855 157.19292899 5.41350214 168.44346298 5.41702431 179.69410563 C5.41937233 186.00575356 5.42830043 192.31722833 5.45348549 198.62882996 C5.47681441 204.57142159 5.48097987 210.51372663 5.47072411 216.45635223 C5.47022978 218.63150233 5.47651964 220.80666675 5.49028015 222.98177338 C5.59164826 239.96201732 3.99373674 253.36775616 -7.9609375 266.32421875 C-12.62452583 270.90593615 -18.12873364 273.85134428 -23.8125 277 C-25.55383743 277.98437867 -27.29516519 278.96877496 -29.03588867 279.95423889 C-30.83368353 280.9701924 -32.63413802 281.98129866 -34.43505859 282.99169922 C-40.02589875 286.13399624 -45.57336915 289.35162022 -51.125 292.5625 C-52.20257568 293.18390869 -53.28015137 293.80531738 -54.39038086 294.44555664 C-61.56651149 298.58478199 -68.72431967 302.75450036 -75.875 306.9375 C-85.14499777 312.35921178 -94.45831752 317.70204915 -103.78845215 323.01922607 C-112.9128284 328.22045129 -122.00132774 333.48027878 -131.06689453 338.78344727 C-141.57328259 344.9273965 -152.1186387 351.00319756 -162.66503906 357.078125 C-167.23437806 359.71134876 -171.80146748 362.34845995 -176.3684082 364.98583984 C-179.65185258 366.88085496 -182.93718782 368.77255947 -186.22265625 370.6640625 C-189.65700434 372.6426122 -193.08354452 374.63253915 -196.49609375 376.6484375 C-197.13643555 377.02363525 -197.77677734 377.39883301 -198.43652344 377.78540039 C-200.01676874 378.71235131 -201.59264213 379.64674559 -203.16796875 380.58203125 C-209.6333054 383.81915843 -215.66128345 384.36419403 -222.75 384.375 C-223.58015625 384.39949219 -224.4103125 384.42398437 -225.265625 384.44921875 C-236.59193925 384.50165539 -245.59652211 379.41690767 -255.0625 373.6875 C-257.18053045 372.42891452 -259.2990366 371.17112931 -261.41796875 369.9140625 C-262.50255371 369.26727539 -263.58713867 368.62048828 -264.70458984 367.95410156 C-270.06652107 364.77460108 -275.47090911 361.66961759 -280.875 358.5625 C-283.05997595 357.30352446 -285.24487142 356.04440922 -287.4296875 354.78515625 C-288.51475586 354.16012207 -289.59982422 353.53508789 -290.71777344 352.89111328 C-296.14659942 349.76319852 -301.57319281 346.63141552 -307 343.5 C-309.16665583 342.24998121 -311.3333225 340.99998122 -313.5 339.75 C-335.16666667 327.25 -356.83333333 314.75 -378.5 302.25 C-379.5737085 301.63060547 -380.64741699 301.01121094 -381.75366211 300.37304688 C-383.90830624 299.129877 -386.06276757 297.88639025 -388.21704102 296.64257812 C-393.22754121 293.75016853 -398.23962635 290.86064773 -403.25863647 287.98303223 C-405.01728749 286.97451686 -406.77533209 285.9649523 -408.53320312 284.95507812 C-410.72472231 283.69649482 -412.91734504 282.43983013 -415.11132812 281.18554688 C-441.52084288 266.00474039 -441.52084288 266.00474039 -445 256 C-435.22138219 250.21182094 -425.40704822 244.48785257 -415.5625 238.8125 C-413.91121094 237.86044678 -413.91121094 237.86044678 -412.2265625 236.88916016 C-406.57140137 233.63026756 -400.91379564 230.37567328 -395.25390625 227.125 C-393.04420016 225.85428955 -390.83456391 224.58345766 -388.625 223.3125 C-387.55443359 222.69802002 -386.48386719 222.08354004 -385.38085938 221.45043945 C-380.22370796 218.47986655 -375.09894628 215.47017201 -370.02734375 212.35546875 C-369.10163574 211.78852295 -368.17592773 211.22157715 -367.22216797 210.63745117 C-365.49275786 209.57272255 -363.76877141 208.49911605 -362.05126953 207.4152832 C-361.29313965 206.94823975 -360.53500977 206.48119629 -359.75390625 206 C-359.09720947 205.5875 -358.4405127 205.175 -357.76391602 204.75 C-356 204 -356 204 -353 205 C-351.4921875 207.1171875 -351.4921875 207.1171875 -349.875 209.875 C-346.07364982 216.04820103 -341.71669088 221.5065366 -337 227 C-335.96939453 228.23363281 -335.96939453 228.23363281 -334.91796875 229.4921875 C-324.94745741 241.07203926 -313.14607036 250.31033031 -300 258 C-299.37851074 258.3722168 -298.75702148 258.74443359 -298.11669922 259.12792969 C-264.83377064 278.85052389 -224.43770495 283.96079441 -187 275 C-160.44138799 267.67827005 -138.49927779 255.24902239 -118 237 C-117.29488281 236.37996094 -116.58976562 235.75992188 -115.86328125 235.12109375 C-111.15336752 230.70740101 -107.2539137 225.65441016 -103.3125 220.5625 C-102.76529297 219.85851074 -102.21808594 219.15452148 -101.65429688 218.42919922 C-97.93311521 213.52616844 -94.85060028 208.45294049 -92 203 C-92.84046875 202.75636719 -93.6809375 202.51273438 -94.546875 202.26171875 C-98.40719183 200.85121837 -101.7582474 198.94028674 -105.25 196.8125 C-106.7544326 195.91146393 -108.2596981 195.01181763 -109.765625 194.11328125 C-110.59255859 193.61908691 -111.41949219 193.12489258 -112.27148438 192.61572266 C-117.48578585 189.52801264 -122.74635732 186.52010358 -128 183.5 C-138.0339664 177.72344161 -148.03667678 171.89751026 -158 166 C-158.37318359 167.07507813 -158.37318359 167.07507813 -158.75390625 168.171875 C-165.45999286 183.39195872 -181.2795326 192.84522763 -196 199 C-202.81193882 201.53433423 -209.69848015 203.69321345 -217 204 C-218.72283203 204.09474609 -218.72283203 204.09474609 -220.48046875 204.19140625 C-239.89560925 204.93229477 -257.22678716 198.73255504 -272 186 C-272.66257812 185.48050781 -273.32515625 184.96101562 -274.0078125 184.42578125 C-289.0332857 172.25809413 -296.8291799 153.89776429 -299 135 C-300.84531222 113.51749022 -294.23066479 94.56875375 -280.52734375 77.90234375 C-268.24326902 63.79559332 -251.47089103 54.7807825 -233 52 C-210.10164154 50.5204838 -188.75434979 56.55391612 -171.25 71.75 C-166.11059267 76.61341593 -161.67212594 81.93941392 -158 88 C-158 88.66 -158 89.32 -158 90 C-145.33694564 82.89311086 -132.72529349 75.70724519 -120.19287109 68.37231445 C-109.58353211 62.16403197 -98.93371497 56.02671226 -88.28222656 49.89111328 C-82.85340062 46.76319854 -77.42677993 43.63146269 -72 40.5 C-65.47766725 36.73636081 -58.95486238 32.97355378 -52.4296875 29.21484375 C-40.54208142 22.36527208 -28.66958832 15.49108041 -16.82568359 8.56616211 C-15.01826762 7.50960843 -13.21005999 6.45440725 -11.40087891 5.40087891 C-9.87904949 4.51291295 -8.36011341 3.61995406 -6.84521484 2.72021484 C-2.21858574 0 -2.21858574 0 0 0 Z " fill="#00599C" transform="translate(479,128)"/>
<path d="M0 0 C1.18335938 1.01513672 1.18335938 1.01513672 2.390625 2.05078125 C3.20015625 2.73785156 4.0096875 3.42492187 4.84375 4.1328125 C14.28129712 12.36840787 22.39768144 21.27268096 29.515625 31.55078125 C29.9892749 32.23342041 30.4629248 32.91605957 30.95092773 33.61938477 C33.07881594 36.77723843 34.61327821 39.28070091 35.390625 43.05078125 C34.3068457 43.66783936 34.3068457 43.66783936 33.20117188 44.29736328 C18.3668624 52.74767192 3.56276909 61.2438924 -11.171875 69.8671875 C-12.48671875 70.63506592 -12.48671875 70.63506592 -13.828125 71.41845703 C-15.8534497 72.60712635 -17.87360533 73.80461621 -19.890625 75.00732422 C-20.9734375 75.64943848 -22.05625 76.29155273 -23.171875 76.953125 C-24.16316406 77.54472412 -25.15445313 78.13632324 -26.17578125 78.74584961 C-28.609375 80.05078125 -28.609375 80.05078125 -30.609375 80.05078125 C-32.125 78.109375 -32.125 78.109375 -33.859375 75.48828125 C-46.33098369 57.32921094 -63.75845519 47.37891884 -85.296875 43.36328125 C-86.73186044 43.2288427 -88.17031762 43.13059846 -89.609375 43.05078125 C-90.76050781 42.98632812 -91.91164063 42.921875 -93.09765625 42.85546875 C-114.28167983 42.06413429 -132.88089675 49.93230471 -148.609375 64.05078125 C-162.9465223 79.11985499 -171.17135199 97.7112751 -170.96264648 118.60058594 C-170.59072033 130.46489694 -167.72468263 141.33670704 -162.609375 152.05078125 C-162.155625 153.02273438 -161.701875 153.9946875 -161.234375 154.99609375 C-151.69838041 172.92192973 -134.81604159 185.06246775 -115.65234375 190.9609375 C-94.63143173 196.53368236 -74.00601645 192.05229512 -55.296875 181.73828125 C-44.40655297 175.03766756 -37.39017633 166.64783067 -30.609375 156.05078125 C-26.82418768 157.46683185 -23.41188179 159.2049919 -19.91015625 161.21875 C-18.79535889 161.85780273 -17.68056152 162.49685547 -16.53198242 163.15527344 C-15.32856744 163.84952992 -14.1251994 164.54386778 -12.921875 165.23828125 C-11.67894502 165.95241428 -10.43586013 166.66627776 -9.19262695 167.37988281 C-5.97127514 169.23015475 -2.75233161 171.08457026 0.46569824 172.94061279 C2.35476417 174.03009913 4.24421329 175.11891773 6.13378906 176.20751953 C11.75917329 179.4486703 17.38275358 182.69292015 23.00390625 185.94140625 C27.12614145 188.32304707 31.25424349 190.69380222 35.390625 193.05078125 C33.95932304 198.52191181 31.34388239 202.27370797 27.953125 206.67578125 C27.41888916 207.37654785 26.88465332 208.07731445 26.33422852 208.79931641 C7.66356018 232.97172957 -15.94630251 250.63338402 -44.609375 261.05078125 C-45.72957031 261.49164063 -46.84976563 261.9325 -48.00390625 262.38671875 C-83.36449186 275.48323194 -123.75999926 272.20651121 -157.80932617 256.859375 C-170.92108004 250.71173949 -182.59469107 243.46039305 -193.609375 234.05078125 C-194.12983398 233.61008301 -194.65029297 233.16938477 -195.18652344 232.71533203 C-207.82897244 221.90471537 -218.2374517 209.41441358 -226.609375 195.05078125 C-226.95983887 194.45152832 -227.31030273 193.85227539 -227.67138672 193.23486328 C-246.98868906 159.73907071 -252.98680502 119.05264117 -243.5078125 81.48046875 C-232.62905738 41.45418341 -207.57576252 7.46030409 -171.63525391 -13.54785156 C-156.53415025 -22.13025754 -139.83859031 -29.08232186 -122.609375 -31.94921875 C-121.51238281 -32.13355469 -120.41539062 -32.31789063 -119.28515625 -32.5078125 C-77.21709096 -38.67552682 -32.92178954 -27.34632518 0 0 Z " fill="#FEFEFE" transform="translate(351.609375,137.94921875)"/>
<path d="M0 0 C1.5078125 2.1171875 1.5078125 2.1171875 3.125 4.875 C6.92635018 11.04820103 11.28330912 16.5065366 16 22 C17.03060547 23.23363281 17.03060547 23.23363281 18.08203125 24.4921875 C28.05254259 36.07203926 39.85392964 45.31033031 53 53 C53.93223389 53.5583252 53.93223389 53.5583252 54.88330078 54.12792969 C88.16622936 73.85052389 128.56229505 78.96079441 166 70 C192.55861201 62.67827005 214.50072221 50.24902239 235 32 C235.70511719 31.37996094 236.41023438 30.75992187 237.13671875 30.12109375 C246.5580847 21.29226654 254.37329092 10.0302881 261 -1 C264.78518732 0.4160506 268.19749321 2.15421065 271.69921875 4.16796875 C272.81264648 4.80621582 273.92607422 5.44446289 275.07324219 6.10205078 C276.27804914 6.79710633 277.48280029 7.4922586 278.6875 8.1875 C279.94288672 8.90894749 281.19842292 9.63013494 282.45410156 10.35107422 C285.68120292 12.2050294 288.90596414 14.06301465 292.13006592 15.92218018 C293.90920925 16.94766871 295.68904049 17.97194872 297.46923828 18.99560547 C309.37281738 25.8404702 321.25772767 32.71737604 333.125 39.625 C334.10243164 40.19299316 335.07986328 40.76098633 336.08691406 41.34619141 C341.45160549 44.47450169 346.75251959 47.67865357 352 51 C348.41498436 61.53899862 338.3242764 67.05928662 329.0625 72.125 C327.33454892 73.09581851 325.60661065 74.06666071 323.87945557 75.03889465 C322.09968377 76.03840507 320.31650849 77.03161401 318.53271484 78.02392578 C312.94400477 81.1403489 307.41264732 84.35653763 301.875 87.5625 C300.79726318 88.18406982 299.71952637 88.80563965 298.60913086 89.44604492 C291.43299466 93.58481719 284.27548838 97.75461265 277.125 101.9375 C267.85500223 107.35921178 258.54168248 112.70204915 249.21154785 118.01922607 C240.0871716 123.22045129 230.99867226 128.48027878 221.93310547 133.78344727 C211.42671741 139.9273965 200.8813613 146.00319756 190.33496094 152.078125 C185.76562194 154.71134876 181.19853252 157.34845995 176.6315918 159.98583984 C173.34814742 161.88085496 170.06281218 163.77255947 166.77734375 165.6640625 C163.34299566 167.6426122 159.91645548 169.63253915 156.50390625 171.6484375 C155.86356445 172.02363525 155.22322266 172.39883301 154.56347656 172.78540039 C152.98323126 173.71235131 151.40735787 174.64674559 149.83203125 175.58203125 C143.3666946 178.81915843 137.33871655 179.36419403 130.25 179.375 C129.41984375 179.39949219 128.5896875 179.42398438 127.734375 179.44921875 C116.40806075 179.50165539 107.40347789 174.41690767 97.9375 168.6875 C95.81946955 167.42891452 93.7009634 166.17112931 91.58203125 164.9140625 C90.49744629 164.26727539 89.41286133 163.62048828 88.29541016 162.95410156 C82.93347893 159.77460108 77.52909089 156.66961759 72.125 153.5625 C69.94002405 152.30352446 67.75512858 151.04440922 65.5703125 149.78515625 C64.48524414 149.16012207 63.40017578 148.53508789 62.28222656 147.89111328 C56.85340058 144.76319852 51.42680719 141.63141552 46 138.5 C43.83334417 137.24998121 41.6666775 135.99998122 39.5 134.75 C7 116 7 116 -25.5 97.25 C-26.5737085 96.63060547 -27.64741699 96.01121094 -28.75366211 95.37304688 C-30.90830624 94.129877 -33.06276757 92.88639025 -35.21704102 91.64257812 C-40.22754121 88.75016853 -45.23962635 85.86064773 -50.25863647 82.98303223 C-52.01728749 81.97451686 -53.77533209 80.9649523 -55.53320312 79.95507812 C-57.72472231 78.69649482 -59.91734504 77.43983013 -62.11132812 76.18554688 C-88.52084288 61.00474039 -88.52084288 61.00474039 -92 51 C-82.22138219 45.21182094 -72.40704822 39.48785257 -62.5625 33.8125 C-61.46164063 33.17779785 -60.36078125 32.5430957 -59.2265625 31.88916016 C-53.57140137 28.63026756 -47.91379564 25.37567328 -42.25390625 22.125 C-40.04420016 20.85428955 -37.83456391 19.58345766 -35.625 18.3125 C-34.01915039 17.39078003 -34.01915039 17.39078003 -32.38085938 16.45043945 C-27.22370796 13.47986655 -22.09894628 10.47017201 -17.02734375 7.35546875 C-15.63878174 6.50505005 -15.63878174 6.50505005 -14.22216797 5.63745117 C-12.49275786 4.57272255 -10.76877141 3.49911605 -9.05126953 2.4152832 C-8.29313965 1.94823975 -7.53500977 1.48119629 -6.75390625 1 C-6.09720947 0.5875 -5.4405127 0.175 -4.76391602 -0.25 C-3 -1 -3 -1 0 0 Z " fill="#004482" transform="translate(126,333)"/>
<path d="M0 0 C7.53110083 5.91150925 14.16523634 12.67423221 19 21 C19 21.99 19 22.98 19 24 C18.27748047 24.41137207 17.55496094 24.82274414 16.81054688 25.24658203 C3.14961858 33.02847849 -10.49036317 40.84142316 -24.06103516 48.7800293 C-36.76971009 56.21180029 -49.53366605 63.54772873 -62.29101562 70.89550781 C-65.56931053 72.78398489 -68.84717758 74.67320298 -72.125 76.5625 C-73.18509277 77.17287109 -74.24518555 77.78324219 -75.33740234 78.41210938 C-80.87184899 81.6026246 -86.39393905 84.81278357 -91.8984375 88.0546875 C-93.00687012 88.70622803 -94.11530273 89.35776855 -95.25732422 90.02905273 C-97.37837494 91.2773778 -99.49728476 92.52934949 -101.61376953 93.78540039 C-103.02698486 94.61672485 -103.02698486 94.61672485 -104.46875 95.46484375 C-105.29826172 95.955896 -106.12777344 96.44694824 -106.98242188 96.95288086 C-109 98 -109 98 -111 98 C-111.495 98.99 -111.495 98.99 -112 100 C-121.49318128 78.75087917 -126.04935483 57.51276843 -118 35 C-109.70049925 14.39434295 -94.53283702 -1.53179084 -74 -10.3125 C-48.63145223 -19.48922548 -22.07083916 -15.27981173 0 0 Z " fill="#659AD2" transform="translate(302,195)"/>
<path d="M0 0 C2.47167969 1.04711914 2.47167969 1.04711914 4.921875 2.53515625 C5.85225586 3.09001709 6.78263672 3.64487793 7.74121094 4.21655273 C8.73411133 4.82571533 9.72701172 5.43487793 10.75 6.0625 C12.89526509 7.34730345 15.04111986 8.63112272 17.1875 9.9140625 C18.30125 10.58469727 19.415 11.25533203 20.5625 11.94628906 C26.24584936 15.35540762 32.00234171 18.63839756 37.75 21.9375 C45.84907732 26.598278 53.93318077 31.28358533 62 36 C59.56027086 47.07329318 48.79205975 56.20046377 39.70703125 62.16015625 C21.30745207 73.34137941 0.12476522 78.53754663 -21.125 73.4375 C-32.72927584 70.36994723 -42.90568958 64.8405317 -52 57 C-52.67417969 56.46890625 -53.34835938 55.9378125 -54.04296875 55.390625 C-59.71669818 50.78140574 -64.24275072 45.27540571 -68 39 C-68 38.01 -68 37.02 -68 36 C-67.2879541 35.59386475 -66.5759082 35.18772949 -65.84228516 34.76928711 C-52.46622111 27.13789282 -39.09613456 19.49614037 -25.75 11.8125 C-24.6873291 11.20204834 -23.6246582 10.59159668 -22.52978516 9.96264648 C-21.5247998 9.38329346 -20.51981445 8.80394043 -19.484375 8.20703125 C-18.06801758 7.39226318 -18.06801758 7.39226318 -16.62304688 6.56103516 C-13.63424241 4.7823293 -10.75821288 2.86793487 -7.92285156 0.85424805 C-5.14116547 -0.38154673 -3.0138307 -0.28188968 0 0 Z " fill="#014482" transform="translate(259,257)"/>
<path d="M0 0 C5.61 0 11.22 0 17 0 C17 5.61 17 11.22 17 17 C22.61 17 28.22 17 34 17 C34 22.28 34 27.56 34 33 C28.39 33 22.78 33 17 33 C17 38.61 17 44.22 17 50 C11.39 50 5.78 50 0 50 C0 44.72 0 39.44 0 34 C-5.61 34 -11.22 34 -17 34 C-17 28.06 -17 22.12 -17 16 C-11.39 16 -5.78 16 0 16 C0 10.72 0 5.44 0 0 Z " fill="#F9FBFC" transform="translate(437,231)"/>
<path d="M0 0 C5.61 0 11.22 0 17 0 C17 5.61 17 11.22 17 17 C22.28 17 27.56 17 33 17 C33 22.28 33 27.56 33 33 C27.72 33 22.44 33 17 33 C17 38.61 17 44.22 17 50 C11.39 50 5.78 50 0 50 C0 44.39 0 38.78 0 33 C-5.61 33 -11.22 33 -17 33 C-17 27.72 -17 22.44 -17 17 C-11.39 17 -5.78 17 0 17 C0 11.39 0 5.78 0 0 Z " fill="#FDFEFE" transform="translate(374,231)"/>
</svg>
