<?xml version="1.0" encoding="UTF-8"?>
<svg version="1.1" xmlns="http://www.w3.org/2000/svg" width="400" height="400">
<path d="M0 0 C132 0 264 0 400 0 C400 132 400 264 400 400 C268 400 136 400 0 400 C0 268 0 136 0 0 Z " fill="#FDFDFE" transform="translate(0,0)"/>
<path d="M0 0 C132 0 264 0 400 0 C400 132 400 264 400 400 C268 400 136 400 0 400 C0 268 0 136 0 0 Z M79 49 C78.31550781 49.59167969 77.63101563 50.18335937 76.92578125 50.79296875 C63.15397474 63.48251149 55.62744477 81.72634589 54.72391319 100.2691555 C54.58426074 104.98038484 54.60501014 109.69035077 54.62768555 114.40307617 C54.62525122 116.19860545 54.62152572 117.99413336 54.61662292 119.78965759 C54.60730005 124.62007345 54.61656513 129.45028362 54.62995505 134.28068328 C54.64135982 139.35991768 54.63715526 144.43914329 54.63520813 149.51838684 C54.63432823 158.0408561 54.64534371 166.56324535 54.66381836 175.08569336 C54.68500166 184.91341262 54.68848965 194.74101499 54.6822564 204.56875247 C54.67654646 214.06053776 54.68222628 223.55228225 54.69342995 233.04406166 C54.69805229 237.06727166 54.69896012 241.09045652 54.6968441 245.11366844 C54.69494952 249.85557477 54.70315436 254.59736343 54.7189045 259.33924294 C54.72311764 261.07093443 54.72401812 262.80263793 54.72121429 264.53433228 C54.70434713 276.8229212 54.91415189 288.79147746 60.1875 300.125 C60.49357178 300.80167725 60.79964355 301.47835449 61.11499023 302.17553711 C63.79699073 307.92268103 67.04417323 313.03673136 71 318 C71.46921875 318.62003906 71.9384375 319.24007813 72.421875 319.87890625 C83.24214403 333.46503057 100.89123675 342.88046295 118 345 C120.68199234 345.09243106 123.33763847 345.14368991 126.01885986 345.14044189 C127.18612724 345.14489858 127.18612724 345.14489858 128.37697577 345.1494453 C130.96910172 345.15807579 133.56118117 345.15963572 136.15332031 345.16113281 C138.01825559 345.16576495 139.88318992 345.17079014 141.74812317 345.17617798 C146.80407077 345.18926489 151.86000511 345.19573955 156.91596699 345.20018864 C160.07817321 345.20312504 163.24037585 345.20723089 166.40258026 345.21169281 C176.30655724 345.22535728 186.21052598 345.23502937 196.11451173 345.2388947 C207.52862598 345.24337456 218.94262044 345.26092358 230.35669827 345.2898953 C239.19260948 345.31154098 248.02848704 345.32160051 256.86442447 345.32293582 C262.13583156 345.32398167 267.40712587 345.32984281 272.67850494 345.34775543 C277.63946084 345.36428631 282.60021977 345.36636731 287.56119347 345.35761642 C289.37554898 345.35684876 291.18991531 345.36115278 293.00424385 345.37107468 C315.0197578 345.48435004 333.14866314 338.75483349 349.51171875 323.61328125 C365.71953933 306.59125304 370.63122969 285.85323924 370.51757812 263.09375 C370.52301196 261.2439723 370.53014164 259.39419893 370.53881836 257.54443359 C370.55690473 252.56502471 370.55004546 247.58595089 370.53730202 242.60653687 C370.52709759 237.36854217 370.53658819 232.13057408 370.54284668 226.89257812 C370.55010157 218.10020861 370.54059227 209.30797398 370.52148438 200.515625 C370.49971986 190.38455647 370.50677276 180.25381006 370.52879 170.12274933 C370.54700574 161.38764969 370.54947226 152.6526464 370.53903532 143.91753387 C370.53283421 138.71653472 370.53187077 133.51568643 370.54518127 128.31469727 C370.55682949 123.42247618 370.54855206 118.53066598 370.52560425 113.63848877 C370.52036468 111.85484495 370.52174819 110.07116589 370.53065491 108.28753662 C370.62405024 87.66594642 365.76591593 69.27512616 351.13183594 54.07666016 C349.76724386 52.7050341 348.38397416 51.35206698 347 50 C346.27039063 49.24976562 345.54078125 48.49953125 344.7890625 47.7265625 C332.88637137 36.17785475 314.85574835 29.84850997 298.40715027 29.85282898 C297.65054291 29.84915229 296.89393554 29.8454756 296.11440068 29.8416875 C293.58301474 29.83068847 291.0516699 29.82681317 288.52026367 29.82299805 C286.70314403 29.81673024 284.88602567 29.81008316 283.06890869 29.80308533 C277.10193774 29.78206966 271.13496663 29.77168113 265.16796875 29.76171875 C263.10884399 29.75766942 261.04971936 29.75355244 258.99059486 29.74936867 C249.30925436 29.73031772 239.62792145 29.71608987 229.94656581 29.7077567 C218.80015617 29.69800252 207.65394608 29.67173017 196.50760669 29.63125581 C187.87547845 29.60099598 179.24340706 29.58627826 170.61122686 29.58297569 C165.46422514 29.58063528 160.3174366 29.57180799 155.17049217 29.54651451 C150.31866722 29.52305742 145.46719311 29.51907069 140.61532593 29.52927589 C138.8466048 29.52976721 137.07786536 29.52356809 135.30919838 29.50971985 C113.91148229 29.35172731 95.27805906 34.31838807 79 49 Z " fill="#ECECEC" transform="translate(0,0)"/>
<path d="M0 0 C2.375 0.75 2.375 0.75 3.375 1.75 C3.4633967 4.1256852 3.49030305 6.47208674 3.47265625 8.84765625 C3.4712413 9.55651474 3.46982635 10.26537323 3.46836853 10.99571228 C3.46275443 13.26801712 3.45019963 15.54022475 3.4375 17.8125 C3.43248681 19.34960796 3.42792359 20.88671745 3.42382812 22.42382812 C3.4136297 26.19928667 3.39405732 29.97453404 3.375 33.75 C11.625 33.75 19.875 33.75 28.375 33.75 C28.35179687 31.46320313 28.32859375 29.17640625 28.3046875 26.8203125 C28.2890974 24.60954341 28.27694903 22.3987804 28.26513672 20.18798828 C28.25506882 18.64954902 28.24141354 17.11112893 28.22412109 15.57275391 C28.19990683 13.36355867 28.18852509 11.15461605 28.1796875 8.9453125 C28.16936493 8.25567413 28.15904236 7.56603577 28.14840698 6.85549927 C28.14800522 5.15199094 28.25308974 3.44914057 28.375 1.75 C29.035 1.09 29.695 0.43 30.375 -0.25 C33.67214793 0.07971479 34.9976839 0.3726839 37.375 2.75 C37.60205078 5.73095703 37.60205078 5.73095703 37.5703125 9.5078125 C37.5674826 10.17086395 37.56465271 10.83391541 37.56173706 11.51705933 C37.55053435 13.63655583 37.52543051 15.75563104 37.5 17.875 C37.48997028 19.31119182 37.48084441 20.74739025 37.47265625 22.18359375 C37.45229539 25.70602238 37.4131494 29.22753917 37.375 32.75 C45.295 32.75 53.215 32.75 61.375 32.75 C61.32279297 29.55376953 61.32279297 29.55376953 61.26953125 26.29296875 C61.24613086 24.22779683 61.22791715 22.16263972 61.21020508 20.09741211 C61.19512411 18.66277448 61.1746562 17.22818292 61.14868164 15.79370117 C61.11226563 13.73084141 61.09526757 11.66859142 61.08203125 9.60546875 C61.0663208 8.36434326 61.05061035 7.12321777 61.03442383 5.84448242 C61.375 2.75 61.375 2.75 62.72924805 0.80981445 C64.375 -0.25 64.375 -0.25 67 -0.0625 C69.375 0.75 69.375 0.75 70.375 2.75 C70.46073394 5.00120742 70.48212188 7.25499303 70.47265625 9.5078125 C70.4712413 10.17086395 70.46982635 10.83391541 70.46836853 11.51705933 C70.46276754 13.63641863 70.450215 15.75567259 70.4375 17.875 C70.43248512 19.31119639 70.42792219 20.74739444 70.42382812 22.18359375 C70.41364833 25.70580248 70.39407338 29.22778321 70.375 32.75 C78.295 32.75 86.215 32.75 94.375 32.75 C94.34019531 30.61917969 94.30539063 28.48835938 94.26953125 26.29296875 C94.24613086 24.22779683 94.22791715 22.16263972 94.21020508 20.09741211 C94.19512411 18.66277448 94.1746562 17.22818292 94.14868164 15.79370117 C94.11226563 13.73084141 94.09526757 11.66859142 94.08203125 9.60546875 C94.05846558 7.74378052 94.05846558 7.74378052 94.03442383 5.84448242 C94.375 2.75 94.375 2.75 95.72924805 0.8059082 C97.375 -0.25 97.375 -0.25 100 0 C102.375 0.75 102.375 0.75 103.375 1.75 C103.4633967 4.1256852 103.49030305 6.47208674 103.47265625 8.84765625 C103.47053383 9.91094398 103.47053383 9.91094398 103.46836853 10.99571228 C103.46275443 13.26801712 103.45019963 15.54022475 103.4375 17.8125 C103.43248681 19.34960796 103.42792359 20.88671745 103.42382812 22.42382812 C103.4136297 26.19928667 103.39405732 29.97453404 103.375 33.75 C111.625 33.75 119.875 33.75 128.375 33.75 C128.35179687 31.46320313 128.32859375 29.17640625 128.3046875 26.8203125 C128.2890974 24.60954341 128.27694903 22.3987804 128.26513672 20.18798828 C128.25506882 18.64954902 128.24141354 17.11112893 128.22412109 15.57275391 C128.19990683 13.36355867 128.18852509 11.15461605 128.1796875 8.9453125 C128.16936493 8.25567413 128.15904236 7.56603577 128.14840698 6.85549927 C128.14800522 5.15199094 128.25308974 3.44914057 128.375 1.75 C129.035 1.09 129.695 0.43 130.375 -0.25 C133.67214793 0.07971479 134.9976839 0.3726839 137.375 2.75 C137.60205078 5.82275391 137.60205078 5.82275391 137.5703125 9.7265625 C137.5674826 10.41181 137.56465271 11.0970575 137.56173706 11.80307007 C137.55053281 13.99389027 137.52542859 16.18430316 137.5 18.375 C137.48997048 19.8593691 137.48084458 21.3437446 137.47265625 22.828125 C137.45059294 26.46888261 137.41606176 30.10940156 137.375 33.75 C138.98181641 33.73259766 138.98181641 33.73259766 140.62109375 33.71484375 C142.01822743 33.70546701 143.41536299 33.69636669 144.8125 33.6875 C145.51955078 33.67912109 146.22660156 33.67074219 146.95507812 33.66210938 C148.76193559 33.65346412 150.56887603 33.69779989 152.375 33.75 C153.375 34.75 153.375 34.75 153.47265625 38.12890625 C153.46598369 39.52347077 153.45402532 40.91801743 153.4375 42.3125 C153.43298828 43.02341797 153.42847656 43.73433594 153.42382812 44.46679688 C153.41200864 46.22790013 153.39407263 47.98896036 153.375 49.75 C154.7679126 49.73428955 154.7679126 49.73428955 156.18896484 49.71826172 C159.6292569 49.68420796 163.06937027 49.65911507 166.50976562 49.64013672 C167.9997032 49.63006957 169.48962097 49.61641482 170.97949219 49.59912109 C173.11919028 49.57490347 175.25862753 49.56352436 177.3984375 49.5546875 C178.68669434 49.54421387 179.97495117 49.53374023 181.30224609 49.52294922 C184.375 49.75 184.375 49.75 186.375 51.75 C186.625 54.25 186.625 54.25 186.375 56.75 C184.375 58.75 184.375 58.75 181.30224609 58.97705078 C180.01398926 58.96657715 178.72573242 58.95610352 177.3984375 58.9453125 C176.71319 58.9424826 176.0279425 58.93965271 175.32192993 58.93673706 C173.13110973 58.92553281 170.94069684 58.90042859 168.75 58.875 C167.2656309 58.86497048 165.7812554 58.85584458 164.296875 58.84765625 C160.65596644 58.82729323 157.01593968 58.78814721 153.375 58.75 C153.375 66.67 153.375 74.59 153.375 82.75 C155.50582031 82.72679687 157.63664063 82.70359375 159.83203125 82.6796875 C161.89721074 82.66408718 163.96238365 82.65194463 166.02758789 82.64013672 C167.46218812 82.630083 168.89676789 82.61643806 170.33129883 82.59912109 C172.39409438 82.57484451 174.45661885 82.56351081 176.51953125 82.5546875 C177.76065674 82.54421387 179.00178223 82.53374023 180.28051758 82.52294922 C183.375 82.75 183.375 82.75 186.375 84.75 C186.625 87.8125 186.625 87.8125 186.375 90.75 C185.375 91.75 185.375 91.75 182.32397461 91.86352539 C180.97508729 91.86336634 179.62619386 91.85767612 178.27734375 91.84765625 C177.21405602 91.84553383 177.21405602 91.84553383 176.12928772 91.84336853 C173.85698288 91.83775443 171.58477525 91.82519963 169.3125 91.8125 C167.77539204 91.80748681 166.23828255 91.80292359 164.70117188 91.79882812 C160.92571333 91.7886297 157.15046596 91.76905732 153.375 91.75 C153.375 100 153.375 108.25 153.375 116.75 C155.58960938 116.73839844 157.80421875 116.72679687 160.0859375 116.71484375 C162.22721208 116.70704841 164.3684851 116.70097436 166.50976562 116.69506836 C167.99968166 116.69003486 169.48959274 116.68320758 170.97949219 116.67456055 C173.11915304 116.66245195 175.25874868 116.65676193 177.3984375 116.65234375 C178.68669434 116.64710693 179.97495117 116.64187012 181.30224609 116.63647461 C184.375 116.75 184.375 116.75 186.375 117.75 C186.5 120.625 186.5 120.625 186.375 123.75 C184.375 125.75 184.375 125.75 181.30224609 125.97705078 C180.01398926 125.96657715 178.72573242 125.95610352 177.3984375 125.9453125 C176.71319 125.9424826 176.0279425 125.93965271 175.32192993 125.93673706 C173.13110973 125.92553281 170.94069684 125.90042859 168.75 125.875 C167.2656309 125.86497048 165.7812554 125.85584458 164.296875 125.84765625 C160.65596644 125.82729323 157.01593968 125.78814721 153.375 125.75 C153.375 133.67 153.375 141.59 153.375 149.75 C155.58960938 149.72679687 157.80421875 149.70359375 160.0859375 149.6796875 C162.22720771 149.66409686 164.36847164 149.6519488 166.50976562 149.64013672 C167.9997032 149.63006957 169.48962097 149.61641482 170.97949219 149.59912109 C173.11919028 149.57490347 175.25862753 149.56352436 177.3984375 149.5546875 C178.68669434 149.54421387 179.97495117 149.53374023 181.30224609 149.52294922 C184.375 149.75 184.375 149.75 186.375 151.75 C186.625 154.25 186.625 154.25 186.375 156.75 C184.375 158.75 184.375 158.75 181.30224609 158.97705078 C180.01398926 158.96657715 178.72573242 158.95610352 177.3984375 158.9453125 C176.71319 158.9424826 176.0279425 158.93965271 175.32192993 158.93673706 C173.13110973 158.92553281 170.94069684 158.90042859 168.75 158.875 C167.2656309 158.86497048 165.7812554 158.85584458 164.296875 158.84765625 C160.65596644 158.82729323 157.01593968 158.78814721 153.375 158.75 C153.375 166.67 153.375 174.59 153.375 182.75 C156.57123047 182.71519531 156.57123047 182.71519531 159.83203125 182.6796875 C161.89721074 182.66408718 163.96238365 182.65194463 166.02758789 182.64013672 C167.46218812 182.630083 168.89676789 182.61643806 170.33129883 182.59912109 C172.39409438 182.57484451 174.45661885 182.56351081 176.51953125 182.5546875 C177.76065674 182.54421387 179.00178223 182.53374023 180.28051758 182.52294922 C183.375 182.75 183.375 182.75 186.375 184.75 C186.625 187.8125 186.625 187.8125 186.375 190.75 C185.375 191.75 185.375 191.75 182.32397461 191.86352539 C180.97508729 191.86336634 179.62619386 191.85767612 178.27734375 191.84765625 C177.21405602 191.84553383 177.21405602 191.84553383 176.12928772 191.84336853 C173.85698288 191.83775443 171.58477525 191.82519963 169.3125 191.8125 C167.77539204 191.80748681 166.23828255 191.80292359 164.70117188 191.79882812 C160.92574358 191.78778042 157.15038829 191.77050641 153.375 191.75 C153.39820313 192.80960938 153.42140625 193.86921875 153.4453125 194.9609375 C153.46406944 196.3489513 153.48226972 197.7369727 153.5 199.125 C153.51675781 199.82367188 153.53351563 200.52234375 153.55078125 201.2421875 C153.56844267 203.07897486 153.47803261 204.91601963 153.375 206.75 C151.375 208.75 151.375 208.75 148.1171875 208.9453125 C146.20292969 208.91050781 146.20292969 208.91050781 144.25 208.875 C142.96867188 208.85695313 141.68734375 208.83890625 140.3671875 208.8203125 C139.37976563 208.79710937 138.39234375 208.77390625 137.375 208.75 C137.38547363 209.64307861 137.39594727 210.53615723 137.40673828 211.45629883 C137.44083592 214.77175477 137.46590637 218.08702421 137.48486328 221.40258789 C137.494917 222.83718812 137.50856194 224.27176789 137.52587891 225.70629883 C137.55015549 227.76909438 137.56148919 229.83161885 137.5703125 231.89453125 C137.58078613 233.13565674 137.59125977 234.37678223 137.60205078 235.65551758 C137.375 238.75 137.375 238.75 135.375 241.75 C132.875 242.0625 132.875 242.0625 130.375 241.75 C128.375 239.75 128.375 239.75 128.14794922 236.67724609 C128.16365967 234.74486084 128.16365967 234.74486084 128.1796875 232.7734375 C128.1825174 232.08819 128.18534729 231.4029425 128.18826294 230.69692993 C128.19946719 228.50610973 128.22457141 226.31569684 128.25 224.125 C128.26002952 222.6406309 128.26915542 221.1562554 128.27734375 219.671875 C128.29770677 216.03096644 128.33685279 212.39093968 128.375 208.75 C120.125 208.75 111.875 208.75 103.375 208.75 C103.39820313 210.96460938 103.42140625 213.17921875 103.4453125 215.4609375 C103.46090314 217.60220771 103.4730512 219.74347164 103.48486328 221.88476562 C103.49493043 223.3747032 103.50858518 224.86462097 103.52587891 226.35449219 C103.55009653 228.49419028 103.56147564 230.63362753 103.5703125 232.7734375 C103.58078613 234.06169434 103.59125977 235.34995117 103.60205078 236.67724609 C103.375 239.75 103.375 239.75 101.375 241.75 C98.3125 241.5 98.3125 241.5 95.375 240.75 C93.91401155 237.8280231 94.26365099 235.25106525 94.27734375 231.9921875 C94.27946617 230.99761032 94.27946617 230.99761032 94.28163147 229.98294067 C94.28723246 227.86358137 94.299785 225.74432741 94.3125 223.625 C94.31751488 222.18880361 94.32207781 220.75260556 94.32617188 219.31640625 C94.33635167 215.79419752 94.35592662 212.27221679 94.375 208.75 C86.455 208.75 78.535 208.75 70.375 208.75 C70.39820313 210.96460938 70.42140625 213.17921875 70.4453125 215.4609375 C70.46090314 217.60220771 70.4730512 219.74347164 70.48486328 221.88476562 C70.49493043 223.3747032 70.50858518 224.86462097 70.52587891 226.35449219 C70.55009653 228.49419028 70.56147564 230.63362753 70.5703125 232.7734375 C70.58078613 234.06169434 70.59125977 235.34995117 70.60205078 236.67724609 C70.375 239.75 70.375 239.75 68.375 241.75 C65.875 242 65.875 242 63.375 241.75 C61.375 239.75 61.375 239.75 61.14794922 236.67724609 C61.15842285 235.38898926 61.16889648 234.10073242 61.1796875 232.7734375 C61.1825174 232.08819 61.18534729 231.4029425 61.18826294 230.69692993 C61.19946719 228.50610973 61.22457141 226.31569684 61.25 224.125 C61.26002952 222.6406309 61.26915542 221.1562554 61.27734375 219.671875 C61.29770677 216.03096644 61.33685279 212.39093968 61.375 208.75 C53.455 208.75 45.535 208.75 37.375 208.75 C37.39820313 210.88082031 37.42140625 213.01164063 37.4453125 215.20703125 C37.46091282 217.27221074 37.47305537 219.33738365 37.48486328 221.40258789 C37.494917 222.83718812 37.50856194 224.27176789 37.52587891 225.70629883 C37.55015549 227.76909438 37.56148919 229.83161885 37.5703125 231.89453125 C37.58078613 233.13565674 37.59125977 234.37678223 37.60205078 235.65551758 C37.375 238.75 37.375 238.75 35.375 241.75 C32.875 242.0625 32.875 242.0625 30.375 241.75 C28.375 239.75 28.375 239.75 28.14794922 236.67724609 C28.15842285 235.38898926 28.16889648 234.10073242 28.1796875 232.7734375 C28.1825174 232.08819 28.18534729 231.4029425 28.18826294 230.69692993 C28.19946719 228.50610973 28.22457141 226.31569684 28.25 224.125 C28.26002952 222.6406309 28.26915542 221.1562554 28.27734375 219.671875 C28.29770677 216.03096644 28.33685279 212.39093968 28.375 208.75 C20.125 208.75 11.875 208.75 3.375 208.75 C3.39820313 210.96460938 3.42140625 213.17921875 3.4453125 215.4609375 C3.46090314 217.60220771 3.4730512 219.74347164 3.48486328 221.88476562 C3.49493043 223.3747032 3.50858518 224.86462097 3.52587891 226.35449219 C3.55009653 228.49419028 3.56147564 230.63362753 3.5703125 232.7734375 C3.58602295 234.70582275 3.58602295 234.70582275 3.60205078 236.67724609 C3.375 239.75 3.375 239.75 1.375 241.75 C-1.6875 241.5 -1.6875 241.5 -4.625 240.75 C-6.08598845 237.8280231 -5.73634901 235.25106525 -5.72265625 231.9921875 C-5.7212413 231.32913605 -5.71982635 230.66608459 -5.71836853 229.98294067 C-5.71276754 227.86358137 -5.700215 225.74432741 -5.6875 223.625 C-5.68248512 222.18880361 -5.67792219 220.75260556 -5.67382812 219.31640625 C-5.66279782 215.79423655 -5.64553259 212.27212855 -5.625 208.75 C-6.61242187 208.77320313 -7.59984375 208.79640625 -8.6171875 208.8203125 C-9.89851563 208.83835937 -11.17984375 208.85640625 -12.5 208.875 C-13.77617187 208.89820313 -15.05234375 208.92140625 -16.3671875 208.9453125 C-19.625 208.75 -19.625 208.75 -21.625 206.75 C-21.76997985 204.16935871 -21.81177545 201.70056116 -21.75 199.125 C-21.74097656 198.41859375 -21.73195312 197.7121875 -21.72265625 196.984375 C-21.69907603 195.23943902 -21.66320461 193.49467705 -21.625 191.75 C-22.5536084 191.75523682 -23.4822168 191.76047363 -24.43896484 191.76586914 C-27.87923805 191.78289593 -31.31946659 191.79544273 -34.75976562 191.80493164 C-36.24968166 191.80996514 -37.73959274 191.81679242 -39.22949219 191.82543945 C-41.36915304 191.83754805 -43.50874868 191.84323807 -45.6484375 191.84765625 C-46.93669434 191.85289307 -48.22495117 191.85812988 -49.55224609 191.86352539 C-52.625 191.75 -52.625 191.75 -54.625 190.75 C-54.8125 187.875 -54.8125 187.875 -54.625 184.75 C-50.94570555 182.29713704 -49.15122093 182.51771122 -44.76953125 182.5546875 C-44.10789474 182.5575174 -43.44625824 182.56034729 -42.76457214 182.56326294 C-40.65536263 182.57444082 -38.54658075 182.59954019 -36.4375 182.625 C-35.00586552 182.63503293 -33.57422436 182.64415824 -32.14257812 182.65234375 C-28.63642222 182.67266929 -25.1311887 182.71182009 -21.625 182.75 C-21.625 174.83 -21.625 166.91 -21.625 158.75 C-23.83960938 158.77320313 -26.05421875 158.79640625 -28.3359375 158.8203125 C-30.47720771 158.83590314 -32.61847164 158.8480512 -34.75976562 158.85986328 C-36.2497032 158.86993043 -37.73962097 158.88358518 -39.22949219 158.90087891 C-41.36919028 158.92509653 -43.50862753 158.93647564 -45.6484375 158.9453125 C-46.93669434 158.95578613 -48.22495117 158.96625977 -49.55224609 158.97705078 C-52.625 158.75 -52.625 158.75 -54.625 156.75 C-54.875 154.25 -54.875 154.25 -54.625 151.75 C-52.625 149.75 -52.625 149.75 -49.55224609 149.52294922 C-48.26398926 149.53342285 -46.97573242 149.54389648 -45.6484375 149.5546875 C-44.96319 149.5575174 -44.2779425 149.56034729 -43.57192993 149.56326294 C-41.38110973 149.57446719 -39.19069684 149.59957141 -37 149.625 C-35.5156309 149.63502952 -34.0312554 149.64415542 -32.546875 149.65234375 C-28.90596644 149.67270677 -25.26593968 149.71185279 -21.625 149.75 C-21.625 141.83 -21.625 133.91 -21.625 125.75 C-24.94691406 125.78480469 -24.94691406 125.78480469 -28.3359375 125.8203125 C-30.47720771 125.83590314 -32.61847164 125.8480512 -34.75976562 125.85986328 C-36.2497032 125.86993043 -37.73962097 125.88358518 -39.22949219 125.90087891 C-41.36919028 125.92509653 -43.50862753 125.93647564 -45.6484375 125.9453125 C-46.93669434 125.95578613 -48.22495117 125.96625977 -49.55224609 125.97705078 C-52.625 125.75 -52.625 125.75 -54.625 123.75 C-54.75 120.625 -54.75 120.625 -54.625 117.75 C-51.65140551 116.26320275 -48.96200821 116.63887395 -45.6484375 116.65234375 C-44.62056625 116.65446617 -44.62056625 116.65446617 -43.57192993 116.65663147 C-41.38124239 116.66223325 -39.1906567 116.67478594 -37 116.6875 C-35.51562648 116.69251478 -34.03125135 116.69707772 -32.546875 116.70117188 C-28.9061791 116.71135279 -25.26570369 116.73092763 -21.625 116.75 C-21.625 108.5 -21.625 100.25 -21.625 91.75 C-23.83960938 91.76160156 -26.05421875 91.77320313 -28.3359375 91.78515625 C-30.47721208 91.79295159 -32.6184851 91.79902564 -34.75976562 91.80493164 C-36.24968166 91.80996514 -37.73959274 91.81679242 -39.22949219 91.82543945 C-41.36915304 91.83754805 -43.50874868 91.84323807 -45.6484375 91.84765625 C-46.93669434 91.85289307 -48.22495117 91.85812988 -49.55224609 91.86352539 C-52.625 91.75 -52.625 91.75 -54.625 90.75 C-54.8125 87.875 -54.8125 87.875 -54.625 84.75 C-50.94570555 82.29713704 -49.15122093 82.51771122 -44.76953125 82.5546875 C-44.10789474 82.5575174 -43.44625824 82.56034729 -42.76457214 82.56326294 C-40.65536263 82.57444082 -38.54658075 82.59954019 -36.4375 82.625 C-35.00586552 82.63503293 -33.57422436 82.64415824 -32.14257812 82.65234375 C-28.63642222 82.67266929 -25.1311887 82.71182009 -21.625 82.75 C-21.625 74.83 -21.625 66.91 -21.625 58.75 C-23.83960938 58.77320313 -26.05421875 58.79640625 -28.3359375 58.8203125 C-30.47720771 58.83590314 -32.61847164 58.8480512 -34.75976562 58.85986328 C-36.2497032 58.86993043 -37.73962097 58.88358518 -39.22949219 58.90087891 C-41.36919028 58.92509653 -43.50862753 58.93647564 -45.6484375 58.9453125 C-46.93669434 58.95578613 -48.22495117 58.96625977 -49.55224609 58.97705078 C-52.625 58.75 -52.625 58.75 -54.625 56.75 C-54.875 54.25 -54.875 54.25 -54.625 51.75 C-52.625 49.75 -52.625 49.75 -49.55224609 49.52294922 C-48.26398926 49.53342285 -46.97573242 49.54389648 -45.6484375 49.5546875 C-44.96319 49.5575174 -44.2779425 49.56034729 -43.57192993 49.56326294 C-41.38110973 49.57446719 -39.19069684 49.59957141 -37 49.625 C-35.5156309 49.63502952 -34.0312554 49.64415542 -32.546875 49.65234375 C-28.90611739 49.67440706 -25.26559844 49.70893824 -21.625 49.75 C-21.67720703 48.28626953 -21.67720703 48.28626953 -21.73046875 46.79296875 C-21.75753906 45.52066406 -21.78460938 44.24835938 -21.8125 42.9375 C-21.86470703 41.04064453 -21.86470703 41.04064453 -21.91796875 39.10546875 C-21.625 35.75 -21.625 35.75 -20.53125 33.8125 C-17.65286497 32.20815425 -15.19841486 32.46564114 -11.9375 32.5625 C-10.16826172 32.60310547 -10.16826172 32.60310547 -8.36328125 32.64453125 C-7.45964844 32.67933594 -6.55601562 32.71414062 -5.625 32.75 C-5.64071045 31.85692139 -5.6564209 30.96384277 -5.67260742 30.04370117 C-5.72375439 26.72821244 -5.76135812 23.41314325 -5.78979492 20.09741211 C-5.80487589 18.66277448 -5.8253438 17.22818292 -5.85131836 15.79370117 C-5.88773437 13.73084141 -5.90473243 11.66859142 -5.91796875 9.60546875 C-5.9336792 8.36434326 -5.94938965 7.12321777 -5.96557617 5.84448242 C-5.625 2.75 -5.625 2.75 -4.27075195 0.8059082 C-2.625 -0.25 -2.625 -0.25 0 0 Z " fill="#FEFEFE" transform="translate(146.625,72.25)"/>
<path d="M0 0 C1.76358614 -0.00544164 3.52716772 -0.01257556 5.29074097 -0.02124023 C10.01400617 -0.03923431 14.73691583 -0.03250675 19.460186 -0.01972389 C24.44490137 -0.00947033 29.42958986 -0.01902335 34.41430664 -0.02526855 C42.7791887 -0.03250949 51.14392867 -0.02305134 59.50878906 -0.00390625 C69.12693071 0.01785555 78.74473296 0.01080165 88.3628664 -0.01121187 C96.67776767 -0.02946796 104.99256784 -0.03187471 113.30748272 -0.0214572 C118.24867487 -0.01527795 123.18970845 -0.01423055 128.13088989 -0.02760315 C132.78025011 -0.03931114 137.42918039 -0.03086883 142.07849503 -0.00802612 C143.76651426 -0.00281765 145.45457084 -0.00411427 147.14257431 -0.01307678 C176.75738523 -0.15560326 201.64120077 8.65558527 223.40234375 29.14257812 C238.67314959 44.79695209 248.50785415 67.41352497 248.48028564 89.25482178 C248.48474233 90.37687039 248.48474233 90.37687039 248.48928905 91.52158666 C248.49791583 94.01212402 248.4994792 96.50261298 248.50097656 98.99316406 C248.50560928 100.78600668 248.51063455 102.57884833 248.51602173 104.37168884 C248.52911052 109.23396488 248.53558468 114.09622713 248.54003239 118.95851803 C248.54297092 122.00419993 248.54707734 125.04987814 248.55153656 128.09555817 C248.56520688 137.6471539 248.57487385 147.19874111 248.57873845 156.75034595 C248.58320768 167.73309847 248.60070464 178.71572582 248.62973905 189.69844031 C248.65145845 198.21346019 248.6614483 206.72844513 248.66277957 215.24349236 C248.66382098 220.31618335 248.66958477 225.38875662 248.68759918 230.46141815 C248.7042565 235.24511337 248.70615114 240.02860466 248.69746017 244.8123188 C248.69669894 246.5523617 248.70090916 248.29241637 248.71091843 250.03243065 C248.87289826 279.98835775 241.44910234 304.86507974 220.00390625 326.91992188 C197.56751589 348.15825256 171.30821181 352.67368396 141.56591797 352.6628418 C139.90864487 352.66584049 138.25137246 352.66924463 136.59410095 352.67301941 C132.12473346 352.68179242 127.65538516 352.68419471 123.18600988 352.6848352 C120.38370029 352.68554964 117.58139547 352.68769139 114.77908707 352.69033241 C104.97414087 352.69956444 95.16920821 352.70367009 85.36425781 352.70288086 C76.27120073 352.702281 67.17820314 352.71282041 58.08516109 352.72862452 C50.24011392 352.74176635 42.39508604 352.74706197 34.55002797 352.74642545 C29.88156544 352.74617236 25.21315585 352.74891757 20.54470444 352.7596035 C16.14673959 352.76939684 11.74887706 352.76928808 7.35090828 352.76208687 C5.75235021 352.76105474 4.15378538 352.76332036 2.55523872 352.76944733 C-11.59342765 352.82009062 -26.69293189 352.73788744 -40.09765625 347.76757812 C-40.84225098 347.50372314 -41.5868457 347.23986816 -42.35400391 346.96801758 C-64.88505148 338.73241307 -84.19855221 321.58269529 -94.4765625 299.82226562 C-101.09999454 284.18498997 -103.26177453 269.14213418 -103.17773438 252.30834961 C-103.18317068 250.45004736 -103.1903017 248.59174943 -103.19897461 246.73345947 C-103.21703046 241.73963957 -103.210215 236.74615448 -103.19745827 231.75232959 C-103.1872392 226.49479528 -103.19674828 221.23728718 -103.20300293 215.97975159 C-103.210253 207.15645265 -103.20076065 198.33328822 -103.18164062 189.51000977 C-103.15987029 179.34710969 -103.16693521 169.18453067 -103.18894625 159.02163833 C-103.20716778 150.25336211 -103.20962591 141.48518185 -103.19919157 132.71689278 C-103.19299448 127.49856536 -103.19201584 122.28038827 -103.20533752 117.06207085 C-103.21699456 112.15422602 -103.20869266 107.24679043 -103.1857605 102.33898926 C-103.18052584 100.55092608 -103.18189572 98.76282774 -103.19081116 96.97477913 C-103.30098941 72.60908206 -95.92931563 48.43619969 -78.7434082 30.54248047 C-77.39776095 29.18536397 -76.02939466 27.850889 -74.66015625 26.51757812 C-73.92023438 25.78023437 -73.1803125 25.04289062 -72.41796875 24.28320312 C-52.3523152 5.32005801 -26.66286677 -0.14156741 0 0 Z M-60.66015625 37.51757812 C-61.34464844 38.10925781 -62.02914062 38.7009375 -62.734375 39.31054688 C-76.50618151 52.00008962 -84.03271148 70.24392402 -84.93624306 88.78673363 C-85.07589551 93.49796297 -85.05514611 98.2079289 -85.0324707 102.9206543 C-85.03490503 104.71618357 -85.03863053 106.51171148 -85.04353333 108.30723572 C-85.0528562 113.13765158 -85.04359112 117.96786175 -85.0302012 122.7982614 C-85.01879643 127.87749581 -85.02300099 132.95672142 -85.02494812 138.03596497 C-85.02582802 146.55843422 -85.01481254 155.08082348 -84.99633789 163.60327148 C-84.97515459 173.43099075 -84.9716666 183.25859311 -84.97789985 193.08633059 C-84.98360979 202.57811589 -84.97792997 212.06986038 -84.9667263 221.56163979 C-84.96210396 225.58484979 -84.96119613 229.60803464 -84.96331215 233.63124657 C-84.96520673 238.3731529 -84.95700189 243.11494156 -84.94125175 247.85682106 C-84.93703861 249.58851255 -84.93613813 251.32021605 -84.93894196 253.0519104 C-84.95580912 265.34049932 -84.74600436 277.30905559 -79.47265625 288.64257812 C-79.16658447 289.31925537 -78.8605127 289.99593262 -78.54516602 290.69311523 C-75.86316552 296.44025915 -72.61598302 301.55430948 -68.66015625 306.51757812 C-68.1909375 307.13761719 -67.72171875 307.75765625 -67.23828125 308.39648438 C-56.41801222 321.98260869 -38.7689195 331.39804107 -21.66015625 333.51757812 C-18.97816391 333.61000918 -16.32251778 333.66126803 -13.64129639 333.65802002 C-12.47402901 333.6624767 -12.47402901 333.6624767 -11.28318048 333.66702342 C-8.69105453 333.67565392 -6.09897508 333.67721385 -3.50683594 333.67871094 C-1.64190066 333.68334307 0.22303367 333.68836827 2.08796692 333.6937561 C7.14391452 333.70684301 12.19984886 333.71331768 17.25581074 333.71776676 C20.41801696 333.72070317 23.5802196 333.72480902 26.74242401 333.72927094 C36.64640099 333.7429354 46.55036973 333.75260749 56.45435548 333.75647283 C67.86846973 333.76095268 79.28246419 333.77850171 90.69654202 333.80747342 C99.53245323 333.8291191 108.36833079 333.83917863 117.20426822 333.84051394 C122.47567531 333.84155979 127.74696962 333.84742093 133.01834869 333.86533356 C137.97930459 333.88186444 142.94006352 333.88394544 147.90103722 333.87519455 C149.71539273 333.87442689 151.52975906 333.87873091 153.3440876 333.8886528 C175.35960155 334.00192817 193.48850689 327.27241162 209.8515625 312.13085938 C226.05938308 295.10883117 230.97107344 274.37081737 230.85742188 251.61132812 C230.86285571 249.76155042 230.86998539 247.91177705 230.87866211 246.06201172 C230.89674848 241.08260283 230.88988921 236.10352901 230.87714577 231.12411499 C230.86694134 225.88612029 230.87643194 220.64815221 230.88269043 215.41015625 C230.88994532 206.61778674 230.88043602 197.82555211 230.86132812 189.03320312 C230.83956361 178.90213459 230.84661651 168.77138819 230.86863375 158.64032745 C230.88684949 149.90522781 230.88931601 141.17022452 230.87887907 132.435112 C230.87267796 127.23411284 230.87171452 122.03326455 230.88502502 116.83227539 C230.89667324 111.9400543 230.88839581 107.04824411 230.865448 102.15606689 C230.86020843 100.37242308 230.86159194 98.58874402 230.87049866 96.80511475 C230.96389399 76.18352454 226.10575968 57.79270429 211.47167969 42.59423828 C210.10708761 41.22261222 208.72381791 39.8696451 207.33984375 38.51757812 C206.61023438 37.76734375 205.880625 37.01710938 205.12890625 36.24414062 C193.22621512 24.69543287 175.1955921 18.36608809 158.74699402 18.3704071 C157.99038666 18.36673042 157.23377929 18.36305373 156.45424443 18.35926563 C153.92285849 18.34826659 151.39151365 18.34439129 148.86010742 18.34057617 C147.04298778 18.33430837 145.22586942 18.32766129 143.40875244 18.32066345 C137.44178149 18.29964779 131.47481038 18.28925925 125.5078125 18.27929688 C123.44868774 18.27524754 121.38956311 18.27113057 119.33043861 18.26694679 C109.64909811 18.24789585 99.9677652 18.233668 90.28640956 18.22533482 C79.13999992 18.21558064 67.99378983 18.1893083 56.84745044 18.14883393 C48.2153222 18.1185741 39.58325081 18.10385639 30.95107061 18.10055381 C25.80406889 18.09821341 20.65728035 18.08938611 15.51033592 18.06409264 C10.65851097 18.04063554 5.80703686 18.03664882 0.95516968 18.04685402 C-0.81355145 18.04734533 -2.58229089 18.04114622 -4.35095787 18.02729797 C-25.74867396 17.86930543 -44.38209719 22.83596619 -60.66015625 37.51757812 Z " fill="#202F58" transform="translate(139.66015625,11.482421875)"/>
<path d="M0 0 C2.375 0.75 2.375 0.75 3.375 1.75 C3.4633967 4.1256852 3.49030305 6.47208674 3.47265625 8.84765625 C3.4712413 9.55651474 3.46982635 10.26537323 3.46836853 10.99571228 C3.46275443 13.26801712 3.45019963 15.54022475 3.4375 17.8125 C3.43248681 19.34960796 3.42792359 20.88671745 3.42382812 22.42382812 C3.4136297 26.19928667 3.39405732 29.97453404 3.375 33.75 C11.625 33.75 19.875 33.75 28.375 33.75 C28.35179687 31.46320313 28.32859375 29.17640625 28.3046875 26.8203125 C28.2890974 24.60954341 28.27694903 22.3987804 28.26513672 20.18798828 C28.25506882 18.64954902 28.24141354 17.11112893 28.22412109 15.57275391 C28.19990683 13.36355867 28.18852509 11.15461605 28.1796875 8.9453125 C28.16936493 8.25567413 28.15904236 7.56603577 28.14840698 6.85549927 C28.14800522 5.15199094 28.25308974 3.44914057 28.375 1.75 C29.035 1.09 29.695 0.43 30.375 -0.25 C33.67214793 0.07971479 34.9976839 0.3726839 37.375 2.75 C37.60205078 5.73095703 37.60205078 5.73095703 37.5703125 9.5078125 C37.5674826 10.17086395 37.56465271 10.83391541 37.56173706 11.51705933 C37.55053435 13.63655583 37.52543051 15.75563104 37.5 17.875 C37.48997028 19.31119182 37.48084441 20.74739025 37.47265625 22.18359375 C37.45229539 25.70602238 37.4131494 29.22753917 37.375 32.75 C45.295 32.75 53.215 32.75 61.375 32.75 C61.32279297 29.55376953 61.32279297 29.55376953 61.26953125 26.29296875 C61.24613086 24.22779683 61.22791715 22.16263972 61.21020508 20.09741211 C61.19512411 18.66277448 61.1746562 17.22818292 61.14868164 15.79370117 C61.11226563 13.73084141 61.09526757 11.66859142 61.08203125 9.60546875 C61.0663208 8.36434326 61.05061035 7.12321777 61.03442383 5.84448242 C61.375 2.75 61.375 2.75 62.72924805 0.80981445 C64.375 -0.25 64.375 -0.25 67 -0.0625 C69.375 0.75 69.375 0.75 70.375 2.75 C70.46073394 5.00120742 70.48212188 7.25499303 70.47265625 9.5078125 C70.4712413 10.17086395 70.46982635 10.83391541 70.46836853 11.51705933 C70.46276754 13.63641863 70.450215 15.75567259 70.4375 17.875 C70.43248512 19.31119639 70.42792219 20.74739444 70.42382812 22.18359375 C70.41364833 25.70580248 70.39407338 29.22778321 70.375 32.75 C78.295 32.75 86.215 32.75 94.375 32.75 C94.34019531 30.61917969 94.30539063 28.48835938 94.26953125 26.29296875 C94.24613086 24.22779683 94.22791715 22.16263972 94.21020508 20.09741211 C94.19512411 18.66277448 94.1746562 17.22818292 94.14868164 15.79370117 C94.11226563 13.73084141 94.09526757 11.66859142 94.08203125 9.60546875 C94.05846558 7.74378052 94.05846558 7.74378052 94.03442383 5.84448242 C94.375 2.75 94.375 2.75 95.72924805 0.8059082 C97.375 -0.25 97.375 -0.25 100 0 C102.375 0.75 102.375 0.75 103.375 1.75 C103.4633967 4.1256852 103.49030305 6.47208674 103.47265625 8.84765625 C103.47053383 9.91094398 103.47053383 9.91094398 103.46836853 10.99571228 C103.46275443 13.26801712 103.45019963 15.54022475 103.4375 17.8125 C103.43248681 19.34960796 103.42792359 20.88671745 103.42382812 22.42382812 C103.4136297 26.19928667 103.39405732 29.97453404 103.375 33.75 C111.625 33.75 119.875 33.75 128.375 33.75 C128.35179687 31.46320313 128.32859375 29.17640625 128.3046875 26.8203125 C128.2890974 24.60954341 128.27694903 22.3987804 128.26513672 20.18798828 C128.25506882 18.64954902 128.24141354 17.11112893 128.22412109 15.57275391 C128.19990683 13.36355867 128.18852509 11.15461605 128.1796875 8.9453125 C128.16936493 8.25567413 128.15904236 7.56603577 128.14840698 6.85549927 C128.14800522 5.15199094 128.25308974 3.44914057 128.375 1.75 C129.035 1.09 129.695 0.43 130.375 -0.25 C133.67214793 0.07971479 134.9976839 0.3726839 137.375 2.75 C137.60205078 5.82275391 137.60205078 5.82275391 137.5703125 9.7265625 C137.5674826 10.41181 137.56465271 11.0970575 137.56173706 11.80307007 C137.55053281 13.99389027 137.52542859 16.18430316 137.5 18.375 C137.48997048 19.8593691 137.48084458 21.3437446 137.47265625 22.828125 C137.45059294 26.46888261 137.41606176 30.10940156 137.375 33.75 C138.98181641 33.73259766 138.98181641 33.73259766 140.62109375 33.71484375 C142.01822743 33.70546701 143.41536299 33.69636669 144.8125 33.6875 C145.51955078 33.67912109 146.22660156 33.67074219 146.95507812 33.66210938 C148.76193559 33.65346412 150.56887603 33.69779989 152.375 33.75 C153.375 34.75 153.375 34.75 153.47265625 38.12890625 C153.46598369 39.52347077 153.45402532 40.91801743 153.4375 42.3125 C153.43298828 43.02341797 153.42847656 43.73433594 153.42382812 44.46679688 C153.41200864 46.22790013 153.39407263 47.98896036 153.375 49.75 C154.7679126 49.73428955 154.7679126 49.73428955 156.18896484 49.71826172 C159.6292569 49.68420796 163.06937027 49.65911507 166.50976562 49.64013672 C167.9997032 49.63006957 169.48962097 49.61641482 170.97949219 49.59912109 C173.11919028 49.57490347 175.25862753 49.56352436 177.3984375 49.5546875 C178.68669434 49.54421387 179.97495117 49.53374023 181.30224609 49.52294922 C184.375 49.75 184.375 49.75 186.375 51.75 C186.625 54.25 186.625 54.25 186.375 56.75 C184.375 58.75 184.375 58.75 181.30224609 58.97705078 C180.01398926 58.96657715 178.72573242 58.95610352 177.3984375 58.9453125 C176.71319 58.9424826 176.0279425 58.93965271 175.32192993 58.93673706 C173.13110973 58.92553281 170.94069684 58.90042859 168.75 58.875 C167.2656309 58.86497048 165.7812554 58.85584458 164.296875 58.84765625 C160.65596644 58.82729323 157.01593968 58.78814721 153.375 58.75 C153.375 66.67 153.375 74.59 153.375 82.75 C155.50582031 82.72679687 157.63664063 82.70359375 159.83203125 82.6796875 C161.89721074 82.66408718 163.96238365 82.65194463 166.02758789 82.64013672 C167.46218812 82.630083 168.89676789 82.61643806 170.33129883 82.59912109 C172.39409438 82.57484451 174.45661885 82.56351081 176.51953125 82.5546875 C177.76065674 82.54421387 179.00178223 82.53374023 180.28051758 82.52294922 C183.375 82.75 183.375 82.75 186.375 84.75 C186.625 87.8125 186.625 87.8125 186.375 90.75 C185.375 91.75 185.375 91.75 182.32397461 91.86352539 C180.97508729 91.86336634 179.62619386 91.85767612 178.27734375 91.84765625 C177.21405602 91.84553383 177.21405602 91.84553383 176.12928772 91.84336853 C173.85698288 91.83775443 171.58477525 91.82519963 169.3125 91.8125 C167.77539204 91.80748681 166.23828255 91.80292359 164.70117188 91.79882812 C160.92571333 91.7886297 157.15046596 91.76905732 153.375 91.75 C153.375 100 153.375 108.25 153.375 116.75 C155.58960938 116.73839844 157.80421875 116.72679687 160.0859375 116.71484375 C162.22721208 116.70704841 164.3684851 116.70097436 166.50976562 116.69506836 C167.99968166 116.69003486 169.48959274 116.68320758 170.97949219 116.67456055 C173.11915304 116.66245195 175.25874868 116.65676193 177.3984375 116.65234375 C178.68669434 116.64710693 179.97495117 116.64187012 181.30224609 116.63647461 C184.375 116.75 184.375 116.75 186.375 117.75 C186.5 120.625 186.5 120.625 186.375 123.75 C184.375 125.75 184.375 125.75 181.30224609 125.97705078 C180.01398926 125.96657715 178.72573242 125.95610352 177.3984375 125.9453125 C176.71319 125.9424826 176.0279425 125.93965271 175.32192993 125.93673706 C173.13110973 125.92553281 170.94069684 125.90042859 168.75 125.875 C167.2656309 125.86497048 165.7812554 125.85584458 164.296875 125.84765625 C160.65596644 125.82729323 157.01593968 125.78814721 153.375 125.75 C153.375 133.67 153.375 141.59 153.375 149.75 C155.58960938 149.72679687 157.80421875 149.70359375 160.0859375 149.6796875 C162.22720771 149.66409686 164.36847164 149.6519488 166.50976562 149.64013672 C167.9997032 149.63006957 169.48962097 149.61641482 170.97949219 149.59912109 C173.11919028 149.57490347 175.25862753 149.56352436 177.3984375 149.5546875 C178.68669434 149.54421387 179.97495117 149.53374023 181.30224609 149.52294922 C184.375 149.75 184.375 149.75 186.375 151.75 C186.625 154.25 186.625 154.25 186.375 156.75 C184.375 158.75 184.375 158.75 181.30224609 158.97705078 C180.01398926 158.96657715 178.72573242 158.95610352 177.3984375 158.9453125 C176.71319 158.9424826 176.0279425 158.93965271 175.32192993 158.93673706 C173.13110973 158.92553281 170.94069684 158.90042859 168.75 158.875 C167.2656309 158.86497048 165.7812554 158.85584458 164.296875 158.84765625 C160.65596644 158.82729323 157.01593968 158.78814721 153.375 158.75 C153.375 166.67 153.375 174.59 153.375 182.75 C156.57123047 182.71519531 156.57123047 182.71519531 159.83203125 182.6796875 C161.89721074 182.66408718 163.96238365 182.65194463 166.02758789 182.64013672 C167.46218812 182.630083 168.89676789 182.61643806 170.33129883 182.59912109 C172.39409438 182.57484451 174.45661885 182.56351081 176.51953125 182.5546875 C177.76065674 182.54421387 179.00178223 182.53374023 180.28051758 182.52294922 C183.375 182.75 183.375 182.75 186.375 184.75 C186.625 187.8125 186.625 187.8125 186.375 190.75 C185.375 191.75 185.375 191.75 182.32397461 191.86352539 C180.97508729 191.86336634 179.62619386 191.85767612 178.27734375 191.84765625 C177.21405602 191.84553383 177.21405602 191.84553383 176.12928772 191.84336853 C173.85698288 191.83775443 171.58477525 191.82519963 169.3125 191.8125 C167.77539204 191.80748681 166.23828255 191.80292359 164.70117188 191.79882812 C160.92574358 191.78778042 157.15038829 191.77050641 153.375 191.75 C153.39820313 192.80960938 153.42140625 193.86921875 153.4453125 194.9609375 C153.46406944 196.3489513 153.48226972 197.7369727 153.5 199.125 C153.51675781 199.82367188 153.53351563 200.52234375 153.55078125 201.2421875 C153.56844267 203.07897486 153.47803261 204.91601963 153.375 206.75 C151.375 208.75 151.375 208.75 148.1171875 208.9453125 C146.20292969 208.91050781 146.20292969 208.91050781 144.25 208.875 C142.96867188 208.85695313 141.68734375 208.83890625 140.3671875 208.8203125 C139.37976563 208.79710937 138.39234375 208.77390625 137.375 208.75 C137.38547363 209.64307861 137.39594727 210.53615723 137.40673828 211.45629883 C137.44083592 214.77175477 137.46590637 218.08702421 137.48486328 221.40258789 C137.494917 222.83718812 137.50856194 224.27176789 137.52587891 225.70629883 C137.55015549 227.76909438 137.56148919 229.83161885 137.5703125 231.89453125 C137.58078613 233.13565674 137.59125977 234.37678223 137.60205078 235.65551758 C137.375 238.75 137.375 238.75 135.375 241.75 C132.875 242.0625 132.875 242.0625 130.375 241.75 C128.375 239.75 128.375 239.75 128.14794922 236.67724609 C128.16365967 234.74486084 128.16365967 234.74486084 128.1796875 232.7734375 C128.1825174 232.08819 128.18534729 231.4029425 128.18826294 230.69692993 C128.19946719 228.50610973 128.22457141 226.31569684 128.25 224.125 C128.26002952 222.6406309 128.26915542 221.1562554 128.27734375 219.671875 C128.29770677 216.03096644 128.33685279 212.39093968 128.375 208.75 C120.125 208.75 111.875 208.75 103.375 208.75 C103.39820313 210.96460938 103.42140625 213.17921875 103.4453125 215.4609375 C103.46090314 217.60220771 103.4730512 219.74347164 103.48486328 221.88476562 C103.49493043 223.3747032 103.50858518 224.86462097 103.52587891 226.35449219 C103.55009653 228.49419028 103.56147564 230.63362753 103.5703125 232.7734375 C103.58078613 234.06169434 103.59125977 235.34995117 103.60205078 236.67724609 C103.375 239.75 103.375 239.75 101.375 241.75 C98.3125 241.5 98.3125 241.5 95.375 240.75 C93.91401155 237.8280231 94.26365099 235.25106525 94.27734375 231.9921875 C94.27946617 230.99761032 94.27946617 230.99761032 94.28163147 229.98294067 C94.28723246 227.86358137 94.299785 225.74432741 94.3125 223.625 C94.31751488 222.18880361 94.32207781 220.75260556 94.32617188 219.31640625 C94.33635167 215.79419752 94.35592662 212.27221679 94.375 208.75 C86.455 208.75 78.535 208.75 70.375 208.75 C70.39820313 210.96460938 70.42140625 213.17921875 70.4453125 215.4609375 C70.46090314 217.60220771 70.4730512 219.74347164 70.48486328 221.88476562 C70.49493043 223.3747032 70.50858518 224.86462097 70.52587891 226.35449219 C70.55009653 228.49419028 70.56147564 230.63362753 70.5703125 232.7734375 C70.58078613 234.06169434 70.59125977 235.34995117 70.60205078 236.67724609 C70.375 239.75 70.375 239.75 68.375 241.75 C65.875 242 65.875 242 63.375 241.75 C61.375 239.75 61.375 239.75 61.14794922 236.67724609 C61.15842285 235.38898926 61.16889648 234.10073242 61.1796875 232.7734375 C61.1825174 232.08819 61.18534729 231.4029425 61.18826294 230.69692993 C61.19946719 228.50610973 61.22457141 226.31569684 61.25 224.125 C61.26002952 222.6406309 61.26915542 221.1562554 61.27734375 219.671875 C61.29770677 216.03096644 61.33685279 212.39093968 61.375 208.75 C53.455 208.75 45.535 208.75 37.375 208.75 C37.39820313 210.88082031 37.42140625 213.01164063 37.4453125 215.20703125 C37.46091282 217.27221074 37.47305537 219.33738365 37.48486328 221.40258789 C37.494917 222.83718812 37.50856194 224.27176789 37.52587891 225.70629883 C37.55015549 227.76909438 37.56148919 229.83161885 37.5703125 231.89453125 C37.58078613 233.13565674 37.59125977 234.37678223 37.60205078 235.65551758 C37.375 238.75 37.375 238.75 35.375 241.75 C32.875 242.0625 32.875 242.0625 30.375 241.75 C28.375 239.75 28.375 239.75 28.14794922 236.67724609 C28.15842285 235.38898926 28.16889648 234.10073242 28.1796875 232.7734375 C28.1825174 232.08819 28.18534729 231.4029425 28.18826294 230.69692993 C28.19946719 228.50610973 28.22457141 226.31569684 28.25 224.125 C28.26002952 222.6406309 28.26915542 221.1562554 28.27734375 219.671875 C28.29770677 216.03096644 28.33685279 212.39093968 28.375 208.75 C20.125 208.75 11.875 208.75 3.375 208.75 C3.39820313 210.96460938 3.42140625 213.17921875 3.4453125 215.4609375 C3.46090314 217.60220771 3.4730512 219.74347164 3.48486328 221.88476562 C3.49493043 223.3747032 3.50858518 224.86462097 3.52587891 226.35449219 C3.55009653 228.49419028 3.56147564 230.63362753 3.5703125 232.7734375 C3.58602295 234.70582275 3.58602295 234.70582275 3.60205078 236.67724609 C3.375 239.75 3.375 239.75 1.375 241.75 C-1.6875 241.5 -1.6875 241.5 -4.625 240.75 C-6.08598845 237.8280231 -5.73634901 235.25106525 -5.72265625 231.9921875 C-5.7212413 231.32913605 -5.71982635 230.66608459 -5.71836853 229.98294067 C-5.71276754 227.86358137 -5.700215 225.74432741 -5.6875 223.625 C-5.68248512 222.18880361 -5.67792219 220.75260556 -5.67382812 219.31640625 C-5.66279782 215.79423655 -5.64553259 212.27212855 -5.625 208.75 C-6.61242187 208.77320313 -7.59984375 208.79640625 -8.6171875 208.8203125 C-9.89851563 208.83835937 -11.17984375 208.85640625 -12.5 208.875 C-13.77617187 208.89820313 -15.05234375 208.92140625 -16.3671875 208.9453125 C-19.625 208.75 -19.625 208.75 -21.625 206.75 C-21.76997985 204.16935871 -21.81177545 201.70056116 -21.75 199.125 C-21.74097656 198.41859375 -21.73195312 197.7121875 -21.72265625 196.984375 C-21.69907603 195.23943902 -21.66320461 193.49467705 -21.625 191.75 C-22.5536084 191.75523682 -23.4822168 191.76047363 -24.43896484 191.76586914 C-27.87923805 191.78289593 -31.31946659 191.79544273 -34.75976562 191.80493164 C-36.24968166 191.80996514 -37.73959274 191.81679242 -39.22949219 191.82543945 C-41.36915304 191.83754805 -43.50874868 191.84323807 -45.6484375 191.84765625 C-46.93669434 191.85289307 -48.22495117 191.85812988 -49.55224609 191.86352539 C-52.625 191.75 -52.625 191.75 -54.625 190.75 C-54.8125 187.875 -54.8125 187.875 -54.625 184.75 C-50.94570555 182.29713704 -49.15122093 182.51771122 -44.76953125 182.5546875 C-44.10789474 182.5575174 -43.44625824 182.56034729 -42.76457214 182.56326294 C-40.65536263 182.57444082 -38.54658075 182.59954019 -36.4375 182.625 C-35.00586552 182.63503293 -33.57422436 182.64415824 -32.14257812 182.65234375 C-28.63642222 182.67266929 -25.1311887 182.71182009 -21.625 182.75 C-21.625 174.83 -21.625 166.91 -21.625 158.75 C-23.83960938 158.77320313 -26.05421875 158.79640625 -28.3359375 158.8203125 C-30.47720771 158.83590314 -32.61847164 158.8480512 -34.75976562 158.85986328 C-36.2497032 158.86993043 -37.73962097 158.88358518 -39.22949219 158.90087891 C-41.36919028 158.92509653 -43.50862753 158.93647564 -45.6484375 158.9453125 C-46.93669434 158.95578613 -48.22495117 158.96625977 -49.55224609 158.97705078 C-52.625 158.75 -52.625 158.75 -54.625 156.75 C-54.875 154.25 -54.875 154.25 -54.625 151.75 C-52.625 149.75 -52.625 149.75 -49.55224609 149.52294922 C-48.26398926 149.53342285 -46.97573242 149.54389648 -45.6484375 149.5546875 C-44.96319 149.5575174 -44.2779425 149.56034729 -43.57192993 149.56326294 C-41.38110973 149.57446719 -39.19069684 149.59957141 -37 149.625 C-35.5156309 149.63502952 -34.0312554 149.64415542 -32.546875 149.65234375 C-28.90596644 149.67270677 -25.26593968 149.71185279 -21.625 149.75 C-21.625 141.83 -21.625 133.91 -21.625 125.75 C-24.94691406 125.78480469 -24.94691406 125.78480469 -28.3359375 125.8203125 C-30.47720771 125.83590314 -32.61847164 125.8480512 -34.75976562 125.85986328 C-36.2497032 125.86993043 -37.73962097 125.88358518 -39.22949219 125.90087891 C-41.36919028 125.92509653 -43.50862753 125.93647564 -45.6484375 125.9453125 C-46.93669434 125.95578613 -48.22495117 125.96625977 -49.55224609 125.97705078 C-52.625 125.75 -52.625 125.75 -54.625 123.75 C-54.75 120.625 -54.75 120.625 -54.625 117.75 C-51.65140551 116.26320275 -48.96200821 116.63887395 -45.6484375 116.65234375 C-44.62056625 116.65446617 -44.62056625 116.65446617 -43.57192993 116.65663147 C-41.38124239 116.66223325 -39.1906567 116.67478594 -37 116.6875 C-35.51562648 116.69251478 -34.03125135 116.69707772 -32.546875 116.70117188 C-28.9061791 116.71135279 -25.26570369 116.73092763 -21.625 116.75 C-21.625 108.5 -21.625 100.25 -21.625 91.75 C-23.83960938 91.76160156 -26.05421875 91.77320313 -28.3359375 91.78515625 C-30.47721208 91.79295159 -32.6184851 91.79902564 -34.75976562 91.80493164 C-36.24968166 91.80996514 -37.73959274 91.81679242 -39.22949219 91.82543945 C-41.36915304 91.83754805 -43.50874868 91.84323807 -45.6484375 91.84765625 C-46.93669434 91.85289307 -48.22495117 91.85812988 -49.55224609 91.86352539 C-52.625 91.75 -52.625 91.75 -54.625 90.75 C-54.8125 87.875 -54.8125 87.875 -54.625 84.75 C-50.94570555 82.29713704 -49.15122093 82.51771122 -44.76953125 82.5546875 C-44.10789474 82.5575174 -43.44625824 82.56034729 -42.76457214 82.56326294 C-40.65536263 82.57444082 -38.54658075 82.59954019 -36.4375 82.625 C-35.00586552 82.63503293 -33.57422436 82.64415824 -32.14257812 82.65234375 C-28.63642222 82.67266929 -25.1311887 82.71182009 -21.625 82.75 C-21.625 74.83 -21.625 66.91 -21.625 58.75 C-23.83960938 58.77320313 -26.05421875 58.79640625 -28.3359375 58.8203125 C-30.47720771 58.83590314 -32.61847164 58.8480512 -34.75976562 58.85986328 C-36.2497032 58.86993043 -37.73962097 58.88358518 -39.22949219 58.90087891 C-41.36919028 58.92509653 -43.50862753 58.93647564 -45.6484375 58.9453125 C-46.93669434 58.95578613 -48.22495117 58.96625977 -49.55224609 58.97705078 C-52.625 58.75 -52.625 58.75 -54.625 56.75 C-54.875 54.25 -54.875 54.25 -54.625 51.75 C-52.625 49.75 -52.625 49.75 -49.55224609 49.52294922 C-48.26398926 49.53342285 -46.97573242 49.54389648 -45.6484375 49.5546875 C-44.96319 49.5575174 -44.2779425 49.56034729 -43.57192993 49.56326294 C-41.38110973 49.57446719 -39.19069684 49.59957141 -37 49.625 C-35.5156309 49.63502952 -34.0312554 49.64415542 -32.546875 49.65234375 C-28.90611739 49.67440706 -25.26559844 49.70893824 -21.625 49.75 C-21.67720703 48.28626953 -21.67720703 48.28626953 -21.73046875 46.79296875 C-21.75753906 45.52066406 -21.78460938 44.24835938 -21.8125 42.9375 C-21.86470703 41.04064453 -21.86470703 41.04064453 -21.91796875 39.10546875 C-21.625 35.75 -21.625 35.75 -20.53125 33.8125 C-17.65286497 32.20815425 -15.19841486 32.46564114 -11.9375 32.5625 C-10.16826172 32.60310547 -10.16826172 32.60310547 -8.36328125 32.64453125 C-7.45964844 32.67933594 -6.55601562 32.71414062 -5.625 32.75 C-5.64071045 31.85692139 -5.6564209 30.96384277 -5.67260742 30.04370117 C-5.72375439 26.72821244 -5.76135812 23.41314325 -5.78979492 20.09741211 C-5.80487589 18.66277448 -5.8253438 17.22818292 -5.85131836 15.79370117 C-5.88773437 13.73084141 -5.90473243 11.66859142 -5.91796875 9.60546875 C-5.9336792 8.36434326 -5.94938965 7.12321777 -5.96557617 5.84448242 C-5.625 2.75 -5.625 2.75 -4.27075195 0.8059082 C-2.625 -0.25 -2.625 -0.25 0 0 Z M-12.625 41.75 C-12.625 93.89 -12.625 146.03 -12.625 199.75 C39.185 199.75 90.995 199.75 144.375 199.75 C144.375 147.61 144.375 95.47 144.375 41.75 C92.565 41.75 40.755 41.75 -12.625 41.75 Z " fill="#23315B" transform="translate(146.625,72.25)"/>
<path d="M0 0 C17.6 0 17.6 0 22 3 C24.47814609 6.40745087 25 8.35056907 25 12.5625 C23.7945712 16.70616151 22.39698375 18.37505801 19 21 C14.83410659 22.46369228 10.37217074 22.07410459 6 22 C6 25.63 6 29.26 6 33 C4.02 33 2.04 33 0 33 C0 22.11 0 11.22 0 0 Z " fill="#1D2C57" transform="translate(179,174)"/>
<path d="M0 0 C1.65 0 3.3 0 5 0 C8.7336273 7.89849422 12.40877478 15.82003344 15.9375 23.8125 C16.39684937 24.84310547 16.39684937 24.84310547 16.86547852 25.89453125 C19 30.76362079 19 30.76362079 19 33 C17.35 33 15.7 33 14 33 C11 27.25 11 27.25 11 25 C5.39 25 -0.22 25 -6 25 C-6.66 27.31 -7.32 29.62 -8 32 C-9 33 -9 33 -11.5625 33.0625 C-12.366875 33.041875 -13.17125 33.02125 -14 33 C-11.69182884 25.50829089 -8.62777717 18.53433204 -5.3125 11.4375 C-4.80138672 10.33341797 -4.29027344 9.22933594 -3.76367188 8.09179688 C-2.5133598 5.39252502 -1.25872684 2.69535545 0 0 Z " fill="#1E2D57" transform="translate(259,174)"/>
<path d="M0 0 C-1.32 1.32 -2.64 2.64 -4 4 C-4.56589844 3.67386719 -5.13179687 3.34773437 -5.71484375 3.01171875 C-8.2149002 1.90485615 -9.84776443 1.76197193 -12.5625 1.8125 C-13.32691406 1.81894531 -14.09132812 1.82539063 -14.87890625 1.83203125 C-17.18897716 1.92946495 -17.18897716 1.92946495 -20 3 C-22.55201302 7.29812719 -22.79110052 12.15131942 -22 17 C-20.74579689 20.11959149 -19.82453216 20.79686491 -17 23 C-12.92417832 23.65264335 -8.75152514 23.87576257 -5 22 C-4.34227572 18.97065509 -4.34227572 18.97065509 -4 16 C-6.64 16 -9.28 16 -12 16 C-12 14.35 -12 12.7 -12 11 C-7.38 11 -2.76 11 2 11 C2.390625 20.86328125 2.390625 20.86328125 2 24 C-1.77659648 27.8922909 -7.03333424 28.94980261 -12.30859375 29.0390625 C-17.50906918 28.67073203 -20.95149633 27.470146 -25 24 C-28.14238835 20.09910411 -28.9905924 15.93899212 -29 11 C-28.05410937 5.4192453 -26.28563969 2.6584729 -22 -1 C-15.23651558 -5.50898962 -6.49416494 -4.81825141 0 0 Z " fill="#1F2E58" transform="translate(238,178)"/>
<path d="M0 0 C7.92 0 15.84 0 24 0 C24 1.65 24 3.3 24 5 C18.06 5 12.12 5 6 5 C6 7.97 6 10.94 6 14 C11.28 14 16.56 14 22 14 C22 15.65 22 17.3 22 19 C16.72 19 11.44 19 6 19 C6 23.62 6 28.24 6 33 C4.02 33 2.04 33 0 33 C0 22.11 0 11.22 0 0 Z " fill="#1B2A55" transform="translate(148,174)"/>
<path d="M0 0 C1.588125 -0.061875 3.17625 -0.12375 4.8125 -0.1875 C6.15248047 -0.23970703 6.15248047 -0.23970703 7.51953125 -0.29296875 C10 0 10 0 11.80078125 1.32421875 C13.65747311 3.91874907 13.38675552 5.90595582 13 9 C11.80078125 10.67578125 11.80078125 10.67578125 10 12 C7.51953125 12.29296875 7.51953125 12.29296875 4.8125 12.1875 C3.224375 12.125625 1.63625 12.06375 0 12 C0 8.04 0 4.08 0 0 Z " fill="#FCFCFD" transform="translate(185,179)"/>
<path d="M0 0 C2.66246807 1.33123403 2.94601652 2.6764378 4.125 5.375 C4.47820312 6.16648438 4.83140625 6.95796875 5.1953125 7.7734375 C6 10 6 10 6 13 C2.37 13 -1.26 13 -5 13 C-4.22998773 9.14993864 -3.6738858 6.99223427 -1.9375 3.6875 C-1.57527344 2.99011719 -1.21304687 2.29273438 -0.83984375 1.57421875 C-0.56269531 1.05472656 -0.28554688 0.53523437 0 0 Z " fill="#EDEEF1" transform="translate(261,181)"/>
</svg>
