<?xml version="1.0" encoding="UTF-8"?>
<svg version="1.1" xmlns="http://www.w3.org/2000/svg" width="259" height="300">
<path d="M0 0 C1.1723671 -0.00807175 2.34473419 -0.01614349 3.55262756 -0.02445984 C6.03629095 -0.03825597 8.51997293 -0.04899799 11.00366211 -0.05688477 C13.49428027 -0.06830151 15.98487603 -0.08858523 18.4753418 -0.1184082 C39.91864094 -0.37448603 61.5448109 0.64994144 81.84765625 8.23828125 C80.99493305 12.81998625 78.26225014 15.03470209 74.97265625 18.11328125 C68.74043667 24.14233219 63.41168607 30.56076445 58.19042969 37.46777344 C21.4112087 85.9628481 21.4112087 85.9628481 -9.31640625 90.734375 C-26.07344978 92.93565669 -42.38753884 88.67219902 -58.15234375 83.23828125 C-58.15234375 81.91828125 -58.15234375 80.59828125 -58.15234375 79.23828125 C-56.57373047 77.70532227 -56.57373047 77.70532227 -54.33203125 76.2421875 C-53.49857178 75.69054932 -52.6651123 75.13891113 -51.80639648 74.57055664 C-50.88930908 73.98653076 -49.97222168 73.40250488 -49.02734375 72.80078125 C-47.60240601 71.87543579 -47.60240601 71.87543579 -46.14868164 70.93139648 C-28.01307762 59.25308754 -9.21394908 48.93126454 9.83447266 38.84765625 C13.86679015 36.69395046 17.86454687 34.48148575 21.84765625 32.23828125 C-21.02679653 45.85170239 -63.42335252 63.22986894 -96.89453125 94.171875 C-98.91079097 96.01720613 -100.98120321 97.75100048 -103.08984375 99.48828125 C-123.94356002 117.78248707 -139.13170457 145.87660515 -143.15234375 173.23828125 C-144.87051208 200.70764554 -139.27306066 221.15932969 -121.2578125 242.48046875 C-110.65678082 253.95190092 -94.25181428 261.83918332 -78.59765625 262.4765625 C-57.65065711 262.9169076 -39.80905228 258.00723827 -24.15234375 243.23828125 C-11.30740991 229.85619563 -4.70975806 211.83772252 -4.9375 193.390625 C-5.96823241 178.26696952 -10.8409828 165.12384134 -20.15234375 153.23828125 C-20.69761719 152.52800781 -21.24289063 151.81773437 -21.8046875 151.0859375 C-31.27391664 139.4777766 -46.40268598 131.50358705 -61.15234375 129.23828125 C-81.17427394 127.34641397 -99.33944062 131.58425492 -115.1796875 144.4921875 C-117.06069995 146.15716288 -118.83526838 147.87892695 -120.58984375 149.67578125 C-121.43546875 150.52140625 -122.28109375 151.36703125 -123.15234375 152.23828125 C-123.81234375 152.23828125 -124.47234375 152.23828125 -125.15234375 152.23828125 C-122.9559914 135.9181631 -107.08767288 120.66308209 -96.15234375 109.23828125 C-95.69569336 108.75439941 -95.23904297 108.27051758 -94.76855469 107.77197266 C-79.73059822 91.88432355 -79.73059822 91.88432355 -70.33984375 89.11328125 C-68.3984375 89.0703125 -68.3984375 89.0703125 -66.15234375 89.23828125 C-65.19457031 89.30402344 -64.23679687 89.36976562 -63.25 89.4375 C-40.92433872 91.86023804 -18.58002124 100.74428128 -2.15234375 116.23828125 C-1.66717285 116.68397461 -1.18200195 117.12966797 -0.68212891 117.58886719 C17.99331595 134.82682927 31.35284526 158.8590612 33.06860352 184.54614258 C33.56173346 199.4583501 33.53690826 213.96711018 28.84765625 228.23828125 C28.63334961 228.89425293 28.41904297 229.55022461 28.19824219 230.22607422 C19.14844878 256.894643 -0.81380911 278.78770746 -25.88793945 291.21704102 C-37.25172553 296.6074608 -48.77410043 300.35315561 -61.390625 300.4765625 C-62.18905319 300.48463425 -62.98748138 300.49270599 -63.81010437 300.50102234 C-65.50204325 300.51482497 -67.19400952 300.52556414 -68.88598633 300.53344727 C-70.58561593 300.54487145 -72.28521245 300.56516811 -73.98461914 300.5949707 C-102.94781297 301.10170628 -127.23472928 290.24813786 -148.15234375 270.23828125 C-166.49354066 251.81934206 -177.5042096 226.30592525 -177.67138672 200.36010742 C-177.66773134 198.81948996 -177.6613341 197.27887682 -177.65234375 195.73828125 C-177.6509137 194.94725006 -177.64948364 194.15621887 -177.64801025 193.34121704 C-177.59031567 180.42724605 -176.41756456 168.51565986 -172.15234375 156.23828125 C-171.81541504 155.23112061 -171.81541504 155.23112061 -171.47167969 154.20361328 C-166.26334128 138.97661519 -158.35017086 124.65592997 -148.15234375 112.23828125 C-147.71100098 111.696875 -147.2696582 111.15546875 -146.81494141 110.59765625 C-138.25816398 100.13637351 -129.31048758 91.11077569 -118.6171875 82.8515625 C-117.76979004 82.19039429 -117.76979004 82.19039429 -116.90527344 81.51586914 C-115.15234375 80.23828125 -115.15234375 80.23828125 -113.23535156 79.13061523 C-110.43803005 77.45751534 -108.56312143 76.24629479 -107.30737305 73.16479492 C-106.74133852 70.67275275 -106.35912511 68.20944875 -106.02734375 65.67578125 C-105.7234201 63.86962964 -105.4109376 62.06489704 -105.08984375 60.26171875 C-104.85974609 58.95992676 -104.85974609 58.95992676 -104.625 57.63183594 C-101.48218492 41.71646451 -90.03997954 29.3568626 -77.03955078 20.4609375 C-54.73091402 6.0079423 -26.25420273 0.17547538 0 0 Z " fill="#42A542" transform="translate(177.15234375,-0.23828125)"/>
</svg>
