<?xml version="1.0" encoding="UTF-8"?>
<svg version="1.1" xmlns="http://www.w3.org/2000/svg" width="256" height="256">
<path d="M0 0 C3.2917472 2.43589292 4.7476827 4.62152405 7 8 C7.17177775 10.75786415 7.23216238 13.41215524 7.1953125 16.16796875 C7.1924826 16.96278152 7.18965271 17.7575943 7.18673706 18.57649231 C7.17554705 21.11364838 7.15044491 23.65045072 7.125 26.1875 C7.11496866 27.90819802 7.10584308 29.62890159 7.09765625 31.34960938 C7.07731355 35.56665199 7.03816353 39.7829303 7 44 C14.26 44 21.52 44 29 44 C28.95359375 41.47085938 28.9071875 38.94171875 28.859375 36.3359375 C28.82813774 33.87355555 28.80387384 31.41119607 28.78027344 28.94873047 C28.76021631 27.24355106 28.73296343 25.53843994 28.69824219 23.83349609 C28.64946139 21.37580476 28.62697281 18.91902634 28.609375 16.4609375 C28.58872986 15.70444916 28.56808472 14.94796082 28.54681396 14.16854858 C28.54464511 8.99778146 29.58489377 6.09889838 33 2 C37.66540818 -1.11027212 42.53695405 -0.60536455 48 0 C51.70092293 2.07251684 53.5209876 4.0737183 55 8 C55.16858166 10.79084219 55.23284241 13.47771993 55.1953125 16.265625 C55.1924826 17.05902283 55.18965271 17.85242065 55.18673706 18.66986084 C55.17556779 21.19672917 55.15046944 23.72323932 55.125 26.25 C55.11496598 27.9661407 55.10584087 29.68228698 55.09765625 31.3984375 C55.07734305 35.59920639 55.03818906 39.79920361 55 44 C62.26 44 69.52 44 77 44 C76.95359375 41.55464844 76.9071875 39.10929687 76.859375 36.58984375 C76.82811915 34.20355298 76.8038659 31.81728561 76.78027344 29.4309082 C76.76024203 27.78106363 76.73300858 26.1312893 76.69824219 24.48168945 C76.64934643 22.10089726 76.6269472 19.721049 76.609375 17.33984375 C76.58872986 16.61039047 76.56808472 15.88093719 76.54681396 15.12937927 C76.54445528 9.66292081 77.86554143 6.4975589 81 2 C85.66181771 -1.10787848 90.5404444 -0.61235556 96 0 C99.52121839 2.04230667 100.75217677 3.62826516 103 7 C103.17193073 9.82983199 103.23208437 12.55881873 103.1953125 15.38671875 C103.1924826 16.20372757 103.18965271 17.02073639 103.18673706 17.86250305 C103.17554541 20.47098459 103.1504429 23.0791223 103.125 25.6875 C103.11496888 27.45637525 103.10584326 29.22525588 103.09765625 30.99414062 C103.07560942 35.32955949 103.0410867 39.66472145 103 44 C104.62421875 44.19916016 104.62421875 44.19916016 106.28125 44.40234375 C113.66436013 45.58891502 117.91917677 49.38484776 122.5546875 54.9765625 C125.40089812 58.96125737 126 62.17346212 126 67 C127.05912598 66.97905273 128.11825195 66.95810547 129.20947266 66.93652344 C133.15659957 66.86386615 137.10366792 66.81810746 141.05126953 66.78027344 C142.75644894 66.76021631 144.46156006 66.73296343 146.16650391 66.69824219 C148.62419524 66.64946139 151.08097366 66.62697281 153.5390625 66.609375 C154.67379501 66.57840729 154.67379501 66.57840729 155.83145142 66.54681396 C161.00221854 66.54464511 163.90110162 67.58489377 168 71 C171.10978403 75.66467604 170.73025717 80.54151204 170 86 C167.49931861 89.4731686 164.96335402 91.47825138 161 93 C158.28105045 93.1683504 155.66896045 93.23294575 152.953125 93.1953125 C152.18192322 93.1924826 151.41072144 93.18965271 150.6161499 93.18673706 C148.16060668 93.17557013 145.7054324 93.15047229 143.25 93.125 C141.58203653 93.11496568 139.91406732 93.10584061 138.24609375 93.09765625 C134.16380709 93.07734637 130.082315 93.03819214 126 93 C126 100.26 126 107.52 126 115 C128.52914062 114.95359375 131.05828125 114.9071875 133.6640625 114.859375 C136.12644445 114.82813774 138.58880393 114.80387384 141.05126953 114.78027344 C142.75644894 114.76021631 144.46156006 114.73296343 146.16650391 114.69824219 C148.62419524 114.64946139 151.08097366 114.62697281 153.5390625 114.609375 C154.67379501 114.57840729 154.67379501 114.57840729 155.83145142 114.54681396 C161.00221854 114.54464511 163.90110162 115.58489377 168 119 C171.11027212 123.66540818 170.60536455 128.53695405 170 134 C167.92748316 137.70092293 165.9262817 139.5209876 162 141 C159.20915781 141.16858166 156.52228007 141.23284241 153.734375 141.1953125 C152.94097717 141.1924826 152.14757935 141.18965271 151.33013916 141.18673706 C148.80327083 141.17556779 146.27676068 141.15046944 143.75 141.125 C142.0338593 141.11496598 140.31771302 141.10584087 138.6015625 141.09765625 C134.40079361 141.07734305 130.20079639 141.03818906 126 141 C126 148.26 126 155.52 126 163 C129.66802734 162.93039063 129.66802734 162.93039063 133.41015625 162.859375 C135.79644702 162.82811915 138.18271439 162.8038659 140.5690918 162.78027344 C142.21893637 162.76024203 143.8687107 162.73300858 145.51831055 162.69824219 C147.89910274 162.64934643 150.278951 162.6269472 152.66015625 162.609375 C153.38960953 162.58872986 154.11906281 162.56808472 154.87062073 162.54681396 C160.33707919 162.54445528 163.5024411 163.86554143 168 167 C171.11027212 171.66540818 170.60536455 176.53695405 170 182 C167.92748316 185.70092293 165.9262817 187.5209876 162 189 C159.20915781 189.16858166 156.52228007 189.23284241 153.734375 189.1953125 C152.94097717 189.1924826 152.14757935 189.18965271 151.33013916 189.18673706 C148.80327083 189.17556779 146.27676068 189.15046944 143.75 189.125 C142.0338593 189.11496598 140.31771302 189.10584087 138.6015625 189.09765625 C134.40090426 189.07563914 130.2005128 189.04113187 126 189 C125.86722656 190.0828125 125.73445312 191.165625 125.59765625 192.28125 C124.27927529 200.48450933 119.46430882 205.21641148 113 210 C109.45471247 211.89631658 106.96399066 212.05916404 103 212 C103.02094727 213.05912598 103.04189453 214.11825195 103.06347656 215.20947266 C103.13613385 219.15659957 103.18189254 223.10366792 103.21972656 227.05126953 C103.23978369 228.75644894 103.26703657 230.46156006 103.30175781 232.16650391 C103.35053861 234.62419524 103.37302719 237.08097366 103.390625 239.5390625 C103.41127014 240.29555084 103.43191528 241.05203918 103.45318604 241.83145142 C103.45535489 247.00221854 102.41510623 249.90110162 99 254 C94.33532396 257.10978403 89.45848796 256.73025717 84 256 C80.5268314 253.49931861 78.52174862 250.96335402 77 247 C76.8316496 244.28105045 76.76705425 241.66896045 76.8046875 238.953125 C76.8075174 238.18192322 76.81034729 237.41072144 76.81326294 236.6161499 C76.82442987 234.16060668 76.84952771 231.7054324 76.875 229.25 C76.88503432 227.58203653 76.89415939 225.91406732 76.90234375 224.24609375 C76.92265363 220.16380709 76.96180786 216.082315 77 212 C69.74 212 62.48 212 55 212 C55.04640625 214.52914062 55.0928125 217.05828125 55.140625 219.6640625 C55.17186226 222.12644445 55.19612616 224.58880393 55.21972656 227.05126953 C55.23978369 228.75644894 55.26703657 230.46156006 55.30175781 232.16650391 C55.35053861 234.62419524 55.37302719 237.08097366 55.390625 239.5390625 C55.41127014 240.29555084 55.43191528 241.05203918 55.45318604 241.83145142 C55.45535489 247.00221854 54.41510623 249.90110162 51 254 C46.33459182 257.11027212 41.46304595 256.60536455 36 256 C32.29907707 253.92748316 30.4790124 251.9262817 29 248 C28.83141834 245.20915781 28.76715759 242.52228007 28.8046875 239.734375 C28.8075174 238.94097717 28.81034729 238.14757935 28.81326294 237.33013916 C28.82443221 234.80327083 28.84953056 232.27676068 28.875 229.75 C28.88503402 228.0338593 28.89415913 226.31771302 28.90234375 224.6015625 C28.92265695 220.40079361 28.96181094 216.20079639 29 212 C21.74 212 14.48 212 7 212 C7.04640625 214.44535156 7.0928125 216.89070312 7.140625 219.41015625 C7.17188085 221.79644702 7.1961341 224.18271439 7.21972656 226.5690918 C7.23975797 228.21893637 7.26699142 229.8687107 7.30175781 231.51831055 C7.35065357 233.89910274 7.3730528 236.278951 7.390625 238.66015625 C7.41127014 239.38960953 7.43191528 240.11906281 7.45318604 240.87062073 C7.45554317 246.33348049 6.08793816 249.4838455 3 254 C-1.11003918 256.98761884 -6.13415108 256.62933693 -11 256 C-15.08279571 253.95860214 -17.45359195 252.29253941 -19 248 C-19.16858166 245.20915781 -19.23284241 242.52228007 -19.1953125 239.734375 C-19.1924826 238.94097717 -19.18965271 238.14757935 -19.18673706 237.33013916 C-19.17556779 234.80327083 -19.15046944 232.27676068 -19.125 229.75 C-19.11496598 228.0338593 -19.10584087 226.31771302 -19.09765625 224.6015625 C-19.07563914 220.40090426 -19.04113187 216.2005128 -19 212 C-20.99953715 211.78459676 -22.9990743 211.56919352 -24.99861145 211.35379028 C-31.28357524 210.24278207 -36.44628553 203.95858557 -40.125 199.06640625 C-41.49620105 195.82816805 -41.59894463 192.48614743 -42 189 C-43.05912598 189.02094727 -44.11825195 189.04189453 -45.20947266 189.06347656 C-49.15659957 189.13613385 -53.10366792 189.18189254 -57.05126953 189.21972656 C-58.75644894 189.23978369 -60.46156006 189.26703657 -62.16650391 189.30175781 C-64.62419524 189.35053861 -67.08097366 189.37302719 -69.5390625 189.390625 C-70.29555084 189.41127014 -71.05203918 189.43191528 -71.83145142 189.45318604 C-77.00221854 189.45535489 -79.90110162 188.41510623 -84 185 C-87.10978403 180.33532396 -86.73025717 175.45848796 -86 170 C-83.49931861 166.5268314 -80.96335402 164.52174862 -77 163 C-74.28105045 162.8316496 -71.66896045 162.76705425 -68.953125 162.8046875 C-68.18192322 162.8075174 -67.41072144 162.81034729 -66.6161499 162.81326294 C-64.16060668 162.82442987 -61.7054324 162.84952771 -59.25 162.875 C-57.58203653 162.88503432 -55.91406732 162.89415939 -54.24609375 162.90234375 C-50.16380709 162.92265363 -46.082315 162.96180786 -42 163 C-42 155.74 -42 148.48 -42 141 C-44.52914062 141.04640625 -47.05828125 141.0928125 -49.6640625 141.140625 C-52.12644445 141.17186226 -54.58880393 141.19612616 -57.05126953 141.21972656 C-58.75644894 141.23978369 -60.46156006 141.26703657 -62.16650391 141.30175781 C-64.62419524 141.35053861 -67.08097366 141.37302719 -69.5390625 141.390625 C-70.29555084 141.41127014 -71.05203918 141.43191528 -71.83145142 141.45318604 C-77.00221854 141.45535489 -79.90110162 140.41510623 -84 137 C-87.11027212 132.33459182 -86.60536455 127.46304595 -86 122 C-83.92748316 118.29907707 -81.9262817 116.4790124 -78 115 C-75.20915781 114.83141834 -72.52228007 114.76715759 -69.734375 114.8046875 C-68.94097717 114.8075174 -68.14757935 114.81034729 -67.33013916 114.81326294 C-64.80327083 114.82443221 -62.27676068 114.84953056 -59.75 114.875 C-58.0338593 114.88503402 -56.31771302 114.89415913 -54.6015625 114.90234375 C-50.40079361 114.92265695 -46.20079639 114.96181094 -42 115 C-42 107.74 -42 100.48 -42 93 C-44.43375 93.05800781 -46.8675 93.11601563 -49.375 93.17578125 C-51.75468697 93.21487094 -54.13433701 93.24517576 -56.51416016 93.2746582 C-58.15722894 93.29967054 -59.80018794 93.33369226 -61.44287109 93.37719727 C-78.44297016 93.8158762 -78.44297016 93.8158762 -85 88 C-87.08781138 83.82437724 -86.44327867 78.54816058 -86 74 C-83.92748316 70.29907707 -81.9262817 68.4790124 -78 67 C-75.20915781 66.83141834 -72.52228007 66.76715759 -69.734375 66.8046875 C-68.94097717 66.8075174 -68.14757935 66.81034729 -67.33013916 66.81326294 C-64.80327083 66.82443221 -62.27676068 66.84953056 -59.75 66.875 C-58.0338593 66.88503402 -56.31771302 66.89415913 -54.6015625 66.90234375 C-50.40090426 66.92436086 -46.2005128 66.95886813 -42 67 C-41.86722656 65.9171875 -41.73445313 64.834375 -41.59765625 63.71875 C-40.41108498 56.33563987 -36.61515224 52.08082323 -31.0234375 47.4453125 C-27.03874263 44.59910188 -23.82653788 44 -19 44 C-19.0314209 42.41131104 -19.0314209 42.41131104 -19.06347656 40.79052734 C-19.13613385 36.84340043 -19.18189254 32.89633208 -19.21972656 28.94873047 C-19.23978369 27.24355106 -19.26703657 25.53843994 -19.30175781 23.83349609 C-19.35053861 21.37580476 -19.37302719 18.91902634 -19.390625 16.4609375 C-19.41127014 15.70444916 -19.43191528 14.94796082 -19.45318604 14.16854858 C-19.45535489 8.99778146 -18.41510623 6.09889838 -15 2 C-10.3388576 -1.10742827 -5.45489036 -0.73714735 0 0 Z " fill="#BFC0C3" transform="translate(86,0)"/>
<path d="M0 0 C0.66 0 1.32 0 2 0 C5.39377276 6.33001307 5.43850381 11.9260541 5.41992188 19.01879883 C5.42839142 20.21320084 5.43686096 21.40760284 5.44558716 22.63819885 C5.46491724 25.89878427 5.47073842 29.1590171 5.46883965 32.41964936 C5.46871949 35.15045629 5.47730218 37.88121041 5.48561716 40.61200255 C5.50481923 47.06046306 5.50774718 53.50879414 5.50097656 59.95727539 C5.49434191 66.58814444 5.51718358 73.21845636 5.55429029 79.84921247 C5.58508168 85.56074766 5.59633706 91.27210453 5.59245348 96.98372096 C5.59039522 100.38677219 5.59572009 103.78938993 5.62034607 107.19236183 C5.64256844 110.99302507 5.63281429 114.7923575 5.61523438 118.59301758 C5.62849762 119.70555908 5.64176086 120.81810059 5.65542603 121.96435547 C5.57064503 129.88353288 3.85090441 136.4656068 -1.37186432 142.61535358 C-8.54079708 149.19465665 -16.87321088 149.44422009 -26.04052734 149.41992188 C-27.81771904 149.43262619 -27.81771904 149.43262619 -29.6308136 149.44558716 C-32.86035027 149.46489449 -36.08953042 149.47074015 -39.31911421 149.46883965 C-42.02511818 149.46871937 -44.73106903 149.47730677 -47.43705809 149.48561716 C-53.82656488 149.50480668 -60.21594105 149.50775139 -66.60546875 149.50097656 C-73.17444455 149.49433907 -79.74285838 149.51719795 -86.31172025 149.55429029 C-91.9723209 149.58508196 -97.63274164 149.59633714 -103.29342425 149.59245348 C-106.66516307 149.59039568 -110.03646431 149.5957132 -113.40812302 149.62034607 C-117.17275872 149.64256968 -120.93605106 149.63281411 -124.70068359 149.61523438 C-125.80230331 149.62849762 -126.90392303 149.64176086 -128.03892517 149.65542603 C-136.32178268 149.56590857 -142.56575491 147.80164381 -148.92800903 142.3470459 C-154.1062762 136.57083082 -153.81404548 130.40136275 -153.68115234 122.97460938 C-153.6820285 121.68596985 -153.68290466 120.39733032 -153.68380737 119.06964111 C-153.6855201 115.5573196 -153.65039114 112.04624214 -153.60836363 108.5342083 C-153.57070661 104.85608197 -153.56731956 101.17792314 -153.56021118 97.49963379 C-153.54160594 90.5439309 -153.49242853 83.58879778 -153.43211424 76.63334513 C-153.36491354 68.71077924 -153.33202621 60.7881853 -153.30194163 52.86540508 C-153.23932475 36.57660386 -153.13387517 20.28837478 -153 4 C-145.29386424 2.61015279 -138.73441555 3.77141349 -132 8 C-128.34586452 11.98903588 -126.21664265 16.32023184 -124 21.1875 C-123.64752197 21.94853027 -123.29504395 22.70956055 -122.93188477 23.49365234 C-120.823946 28.08097282 -118.8683413 32.70067556 -117.05859375 37.4140625 C-115.65905756 40.8328557 -114.07991117 44.16206658 -112.5 47.5 C-110.16387952 52.43670743 -107.993633 57.39439973 -106.0234375 62.48828125 C-104.80398786 65.48105269 -103.43884227 68.38864599 -102.0625 71.3125 C-100.04919428 75.61594098 -98.22282188 79.92380813 -96.5625 84.375 C-94.80941274 89.04803832 -92.84465521 93.56481936 -90.6875 98.0625 C-86.70275263 106.39414442 -83.32185603 114.95216654 -79.96728516 123.55322266 C-79.28358084 125.28267362 -78.58373283 127.00578369 -77.87255859 128.72412109 C-77.50598145 129.61309082 -77.1394043 130.50206055 -76.76171875 131.41796875 C-76.42487061 132.22387451 -76.08802246 133.02978027 -75.7409668 133.86010742 C-75 136 -75 136 -75 139 C-71.19705543 137.90684424 -71.19705543 137.90684424 -68.84082031 134.90307617 C-68.58913086 134.04174072 -68.33744141 133.18040527 -68.078125 132.29296875 C-67.7793042 131.32367432 -67.4804834 130.35437988 -67.17260742 129.35571289 C-66.86814697 128.31020264 -66.56368652 127.26469238 -66.25 126.1875 C-63.35878667 116.86871903 -60.04797369 107.94417478 -56.05761719 99.04174805 C-54.026397 94.49175957 -52.29373496 89.97328805 -50.77075195 85.23022461 C-49.16991263 80.59808422 -47.01364393 76.19495828 -44.9609375 71.75 C-42.92734766 67.27920706 -41.20881682 62.81866437 -39.70605469 58.14306641 C-38.64767941 54.93061197 -37.39314703 51.82359333 -36.125 48.6875 C-35.73320557 47.71731934 -35.73320557 47.71731934 -35.33349609 46.72753906 C-33.39244424 41.93338907 -31.43034179 37.14812068 -29.41015625 32.38671875 C-28.27928358 29.67074477 -27.19227516 26.94662975 -26.12109375 24.20703125 C-25.43506413 22.49212016 -24.74886582 20.77727656 -24.0625 19.0625 C-23.75070801 18.24491211 -23.43891602 17.42732422 -23.11767578 16.58496094 C-20.93871043 11.20921675 -18.88331681 8.20992545 -14 5 C-11.3671875 4.07421875 -11.3671875 4.07421875 -8.875 3.6875 C-8.04742187 3.54699219 -7.21984375 3.40648437 -6.3671875 3.26171875 C-4 3 -4 3 0 3 C0 2.01 0 1.02 0 0 Z " fill="#1C3690" transform="translate(203,59)"/>
<path d="M0 0 C1.1882991 -0.00554901 2.37659821 -0.01109802 3.60090637 -0.01681519 C6.83047722 -0.02653853 10.05897892 -0.01412407 13.28844881 0.00946999 C16.68394258 0.02972763 20.07940567 0.0236919 23.47494507 0.0213623 C29.17240469 0.0214157 34.86953075 0.04107093 40.56689453 0.07324219 C47.13697783 0.11016301 53.70662533 0.11891104 60.27679884 0.11194468 C66.62214657 0.10562272 72.96734623 0.11642287 79.31266403 0.13591003 C82.00226338 0.14404614 84.69178665 0.14680064 87.38139725 0.1452179 C91.14122342 0.14701982 94.90043641 0.16843602 98.66015625 0.1953125 C100.31865852 0.1909166 100.31865852 0.1909166 102.01066589 0.18643188 C111.23352407 0.28791408 117.97087775 2.04957013 124.70068359 8.61523438 C125.70068359 11.61523438 125.70068359 11.61523438 124.70068359 14.61523438 C121.23409354 15.55448063 117.75793719 16.08479157 114.21630859 16.67382812 C110.31687419 17.71801001 108.62666615 18.87759226 105.70068359 21.61523438 C104.12794125 24.24964414 104.12794125 24.24964414 102.98193359 27.23632812 C102.52431641 28.33783203 102.06669922 29.43933594 101.59521484 30.57421875 C101.13501953 31.72212891 100.67482422 32.87003906 100.20068359 34.05273438 C99.74048828 35.16583984 99.28029297 36.27894531 98.80615234 37.42578125 C96.04587716 44.13985905 93.41887687 50.90066207 90.85742188 57.69287109 C89.69912028 60.6191839 88.42012651 63.45773836 87.07568359 66.30273438 C85.54144522 69.59308559 84.31667147 72.73327061 83.38818359 76.24023438 C81.82135144 81.90075514 79.25312029 87.04091934 76.65649414 92.28759766 C74.5756503 96.54107994 72.93434676 100.75519501 71.49609375 105.2644043 C70.02932059 109.59944383 68.17082588 113.77774606 66.38818359 117.99023438 C62.97996097 126.1421748 60.02706581 134.31746497 57.55297852 142.80029297 C55.89118393 148.42473404 55.89118393 148.42473404 53.70068359 150.61523438 C52.38068359 150.61523438 51.06068359 150.61523438 49.70068359 150.61523438 C48.6171033 147.90628365 47.53356082 145.19731788 46.45019531 142.48828125 C45.52801611 140.18332464 44.60515601 137.87864033 43.68164062 135.57421875 C39.72311959 125.6925464 39.72311959 125.6925464 37.98193359 121.21289062 C35.13456007 113.92836004 31.98220108 106.86906786 28.59741211 99.82397461 C26.05540004 94.49205379 23.90244241 89.07694274 21.84912109 83.53710938 C20.41744414 79.89461155 18.67802897 76.47054128 16.88037109 72.99804688 C15.31660399 69.83944446 14.06881407 66.5902258 12.79443359 63.30664062 C11.08477369 59.09965608 9.12459409 55.01274931 7.20068359 50.90039062 C5.80882237 47.85206956 4.52038099 44.78350821 3.26318359 41.67773438 C1.35612323 37.07871421 -0.65178474 32.5436619 -2.79931641 28.05273438 C-3.34587891 26.89644531 -3.89244141 25.74015625 -4.45556641 24.54882812 C-7.4920492 19.71747521 -11.06563037 18.70870879 -16.29931641 16.61523438 C-20.25931641 16.28523438 -24.21931641 15.95523438 -28.29931641 15.61523438 C-28.29931641 58.18523437 -28.29931641 100.75523437 -28.29931641 144.61523438 C-30.47531879 141.3512308 -30.55008166 140.43881322 -30.55328369 136.66325378 C-30.55892334 135.64127396 -30.56456299 134.61929413 -30.57037354 133.56634521 C-30.56632507 132.44576721 -30.56227661 131.32518921 -30.55810547 130.1706543 C-30.56161011 128.98991837 -30.56511475 127.80918243 -30.56872559 126.59266663 C-30.57602757 123.35282017 -30.57430419 120.11313673 -30.56796741 116.87329268 C-30.56290443 113.48081732 -30.56760003 110.08835287 -30.57073975 106.69587708 C-30.57438001 100.99539231 -30.56958029 95.29495933 -30.56005859 89.59448242 C-30.54918955 83.01151337 -30.55268804 76.42866836 -30.5637114 69.84570235 C-30.57280128 64.19038242 -30.57406078 58.53509975 -30.56883407 52.87977487 C-30.56572169 49.50376976 -30.56528453 46.12782285 -30.57190704 42.75182152 C-30.57698715 38.98379524 -30.56924003 35.21600664 -30.55810547 31.44799805 C-30.56215393 30.33349274 -30.56620239 29.21898743 -30.57037354 28.07070923 C-30.51988144 18.84512632 -28.78984393 12.35594201 -22.29931641 5.61523438 C-15.15623873 0.65318906 -8.50311512 -0.10237552 0 0 Z " fill="#1D3790" transform="translate(78.29931640625,47.384765625)"/>
<path d="M0 0 C21.12 0 42.24 0 64 0 C63.67 0.99 63.34 1.98 63 3 C61.49759766 3.05607422 61.49759766 3.05607422 59.96484375 3.11328125 C50.11600537 3.51510949 50.11600537 3.51510949 41 7 C41.17279038 15.26252199 43.05179897 20.83351746 47 28 C49.88043354 34.02036559 52.47046015 40.12721805 54.90234375 46.33984375 C56.17362253 49.42077203 57.57969592 52.42246852 59 55.4375 C61.32178202 60.39607969 63.27271529 65.37440686 65.078125 70.5390625 C65.88750022 72.69968278 66.79231668 74.65525016 67.875 76.6875 C70.21642684 81.16913732 71.89247635 85.89181633 73.63476562 90.62768555 C76.27977873 97.81023538 79.12594549 104.90658886 82 112 C84.95616539 108.56280178 86.37759527 104.77546844 87.875 100.5625 C88.35070454 99.25099057 88.82730103 97.9398044 89.3046875 96.62890625 C89.56556152 95.91081787 89.82643555 95.19272949 90.09521484 94.45288086 C92.87747207 86.91015599 95.82189111 79.42855226 98.7890625 71.95703125 C99.25570312 70.78076172 99.72234375 69.60449219 100.203125 68.39257812 C101.15612684 65.99305564 102.11188618 63.5946266 103.0703125 61.19726562 C105.40400293 55.30145606 107.55350459 49.45006838 109.29345703 43.3527832 C110.03175006 40.89427253 110.88721834 38.50855639 111.7890625 36.10546875 C117.34028078 22.45143512 117.34028078 22.45143512 118 8 C115.21336141 4.64117162 111.71263688 4.46419064 107.60546875 4.02539062 C106.82816406 3.95513672 106.05085938 3.88488281 105.25 3.8125 C104.45722656 3.73064453 103.66445312 3.64878906 102.84765625 3.56445312 C100.89956666 3.36494997 98.94990129 3.18094062 97 3 C97 2.01 97 1.02 97 0 C114.49 0 131.98 0 150 0 C150 0.99 150 1.98 150 3 C149.04738281 3.17015625 148.09476563 3.3403125 147.11328125 3.515625 C145.85902344 3.75796875 144.60476562 4.0003125 143.3125 4.25 C142.07113281 4.48203125 140.82976562 4.7140625 139.55078125 4.953125 C134.79986802 6.35383429 131.97474497 8.28577689 129.50195312 12.63452148 C129.09912109 13.62009033 128.69628906 14.60565918 128.28125 15.62109375 C127.82363281 16.72259766 127.36601562 17.82410156 126.89453125 18.95898438 C126.43433594 20.10689453 125.97414063 21.25480469 125.5 22.4375 C125.03980469 23.55060547 124.57960938 24.66371094 124.10546875 25.81054688 C121.34519357 32.52462467 118.71819327 39.2854277 116.15673828 46.07763672 C114.99843669 49.00394952 113.71944292 51.84250399 112.375 54.6875 C110.84076163 57.97785121 109.61598788 61.11803623 108.6875 64.625 C107.12066785 70.28552077 104.5524367 75.42568496 101.95581055 80.67236328 C99.87496671 84.92584556 98.23366317 89.13996064 96.79541016 93.64916992 C95.32863699 97.98420946 93.47014229 102.16251168 91.6875 106.375 C88.27927738 114.52694042 85.32638221 122.7022306 82.85229492 131.18505859 C81.19050034 136.80949966 81.19050034 136.80949966 79 139 C77.68 139 76.36 139 75 139 C73.91641971 136.29104927 72.83287723 133.58208351 71.74951172 130.87304688 C70.82733252 128.56809026 69.90447242 126.26340595 68.98095703 123.95898438 C65.022436 114.07731202 65.022436 114.07731202 63.28125 109.59765625 C60.43387648 102.31312566 57.28151749 95.25383349 53.89672852 88.20874023 C51.35471644 82.87681942 49.20175882 77.46170836 47.1484375 71.921875 C45.71676055 68.27937718 43.97734537 64.8553069 42.1796875 61.3828125 C40.6159204 58.22421008 39.36813047 54.97499142 38.09375 51.69140625 C36.3840901 47.4844217 34.4239105 43.39751494 32.5 39.28515625 C31.10813878 36.23683518 29.8196974 33.16827383 28.5625 30.0625 C26.65543964 25.46347984 24.64753167 20.92842752 22.5 16.4375 C21.68015625 14.70306641 21.68015625 14.70306641 20.84375 12.93359375 C17.97094251 8.36266488 13.9683802 6.73315588 9 5 C7.58432929 4.6830187 6.16759059 4.37078173 4.75 4.0625 C3.5125 3.711875 2.275 3.36125 1 3 C0.67 2.01 0.34 1.02 0 0 Z " fill="#BFBDFB" transform="translate(53,59)"/>
<path d="M0 0 C0.72680969 0.00424484 1.45361938 0.00848969 2.20245361 0.01286316 C4.51556004 0.02960745 6.82778355 0.0672499 9.140625 0.10546875 C10.71222697 0.12052117 12.28384264 0.1342086 13.85546875 0.14648438 C17.70113163 0.17694105 21.54489434 0.23566482 25.390625 0.29296875 C25.390625 5.90296875 25.390625 11.51296875 25.390625 17.29296875 C21.2273946 17.36209988 17.06618055 17.42174855 12.90283203 17.45776367 C11.48870063 17.472787 10.07461532 17.4932118 8.66064453 17.51928711 C6.62000103 17.55595829 4.57997708 17.57275911 2.5390625 17.5859375 C0.70093994 17.60950317 0.70093994 17.60950317 -1.17431641 17.63354492 C-5.55354551 17.19935696 -9.19067568 16.02008097 -12.046875 12.54296875 C-12.89255224 9.1602598 -12.46387002 6.64991347 -11.609375 3.29296875 C-8.25491095 -0.31095375 -4.62303576 -0.10208712 0 0 Z " fill="#203991" transform="translate(16.609375,167.70703125)"/>
<path d="M0 0 C5.61 0 11.22 0 17 0 C17.13844295 4.28916767 17.25760814 8.57047758 17.32958984 12.86010742 C17.35961041 14.31610483 17.40044228 15.77192369 17.45263672 17.22729492 C17.92959038 30.8765866 17.92959038 30.8765866 14.16796875 35.44921875 C11.96542786 37.56337022 11.00682519 37.99832853 7.9375 38.75 C3.96671195 37.73618177 2.5501574 36.18895684 0 33 C-0.44003142 30.21162027 -0.59085432 28.05947947 -0.48828125 25.29296875 C-0.48120651 24.56757401 -0.47413177 23.84217926 -0.46684265 23.09480286 C-0.43898406 20.79129297 -0.37627191 18.49026749 -0.3125 16.1875 C-0.28740563 14.62047797 -0.26459444 13.0534176 -0.24414062 11.48632812 C-0.19344596 7.65583902 -0.09560764 3.83067957 0 0 Z " fill="#213A91" transform="translate(168,214)"/>
<path d="M0 0 C1.08809212 0.01061211 1.08809212 0.01061211 2.19816589 0.0214386 C4.50167578 0.04929719 6.80270126 0.11200934 9.10546875 0.17578125 C10.67249078 0.20087562 12.23955115 0.22368681 13.80664062 0.24414062 C17.63712973 0.29483529 21.46228918 0.39267361 25.29296875 0.48828125 C25.29296875 5.76828125 25.29296875 11.04828125 25.29296875 16.48828125 C20.68324215 16.60333266 16.07852663 16.70276898 11.46850586 16.76293945 C9.90192761 16.78802672 8.33546576 16.8221054 6.76928711 16.86547852 C4.51256566 16.92639351 2.25739581 16.95454624 0 16.9765625 C-0.69602829 17.00236893 -1.39205658 17.02817535 -2.10917664 17.05476379 C-5.98456226 17.05698028 -7.57990045 16.58950703 -10.6496582 14.14526367 C-12.70703125 11.48828125 -12.70703125 11.48828125 -13.33203125 8.48828125 C-11.81894025 1.22544444 -6.67629566 -0.24753496 0 0 Z " fill="#1E3790" transform="translate(16.70703125,71.51171875)"/>
<path d="M0 0 C3.8060216 1.17640668 5.06965656 1.91006084 7.4375 5.0625 C7.78709406 7.74422476 7.90673774 10.00187958 7.828125 12.671875 C7.82246521 13.39868469 7.81680542 14.12549438 7.81097412 14.87432861 C7.78864553 17.18773245 7.73846048 19.4995672 7.6875 21.8125 C7.66743023 23.38409216 7.64918029 24.95570868 7.6328125 26.52734375 C7.59219859 30.37348138 7.51391572 34.21624213 7.4375 38.0625 C2.1575 38.0625 -3.1225 38.0625 -8.5625 38.0625 C-8.67755141 33.4527734 -8.77698773 28.84805788 -8.8371582 24.23803711 C-8.86224547 22.67145886 -8.89632415 21.10499701 -8.93969727 19.53881836 C-9.00061226 17.28209691 -9.02876499 15.02692706 -9.05078125 12.76953125 C-9.07658768 12.07350296 -9.1023941 11.37747467 -9.12898254 10.66035461 C-9.13118927 6.80203094 -8.6461877 5.17048042 -6.25463867 2.0847168 C-3.5625 0.0625 -3.5625 0.0625 0 0 Z " fill="#1C358F" transform="translate(176.5625,3.9375)"/>
<path d="M0 0 C3.8060216 1.17640668 5.06965656 1.91006084 7.4375 5.0625 C7.78709406 7.74422476 7.90673774 10.00187958 7.828125 12.671875 C7.82246521 13.39868469 7.81680542 14.12549438 7.81097412 14.87432861 C7.78864553 17.18773245 7.73846048 19.4995672 7.6875 21.8125 C7.66743023 23.38409216 7.64918029 24.95570868 7.6328125 26.52734375 C7.59219859 30.37348138 7.51391572 34.21624213 7.4375 38.0625 C2.1575 38.0625 -3.1225 38.0625 -8.5625 38.0625 C-8.67755141 33.4527734 -8.77698773 28.84805788 -8.8371582 24.23803711 C-8.86224547 22.67145886 -8.89632415 21.10499701 -8.93969727 19.53881836 C-9.00061226 17.28209691 -9.02876499 15.02692706 -9.05078125 12.76953125 C-9.07658768 12.07350296 -9.1023941 11.37747467 -9.12898254 10.66035461 C-9.13118927 6.80203094 -8.6461877 5.17048042 -6.25463867 2.0847168 C-3.5625 0.0625 -3.5625 0.0625 0 0 Z " fill="#1D3790" transform="translate(80.5625,3.9375)"/>
<path d="M0 0 C3.8060216 1.17640668 5.06965656 1.91006084 7.4375 5.0625 C7.78709406 7.74422476 7.90673774 10.00187958 7.828125 12.671875 C7.82246521 13.39868469 7.81680542 14.12549438 7.81097412 14.87432861 C7.78864553 17.18773245 7.73846048 19.4995672 7.6875 21.8125 C7.66743023 23.38409216 7.64918029 24.95570868 7.6328125 26.52734375 C7.59219859 30.37348138 7.51391572 34.21624213 7.4375 38.0625 C2.1575 38.0625 -3.1225 38.0625 -8.5625 38.0625 C-8.67755141 33.4527734 -8.77698773 28.84805788 -8.8371582 24.23803711 C-8.86224547 22.67145886 -8.89632415 21.10499701 -8.93969727 19.53881836 C-9.00061226 17.28209691 -9.02876499 15.02692706 -9.05078125 12.76953125 C-9.07658768 12.07350296 -9.1023941 11.37747467 -9.12898254 10.66035461 C-9.13118927 6.80203094 -8.6461877 5.17048042 -6.25463867 2.0847168 C-3.5625 0.0625 -3.5625 0.0625 0 0 Z " fill="#1D3690" transform="translate(128.5625,3.9375)"/>
<path d="M0 0 C5.28 0 10.56 0 16 0 C16.09204581 4.46677866 16.17160663 8.93024383 16.21972656 13.3972168 C16.23979203 14.9152341 16.26705134 16.43317459 16.30175781 17.95092773 C16.35050393 20.13805122 16.37301805 22.32414952 16.390625 24.51171875 C16.41157227 25.82615967 16.43251953 27.14060059 16.45410156 28.49487305 C15.92582488 32.57254416 14.94131238 34.17703512 12 37 C8.5625 38.125 8.5625 38.125 5 38 C1.43778176 35.31904878 0.135007 33.85550888 -0.56762695 29.40307617 C-0.56684323 28.03278532 -0.53905223 26.66231894 -0.48828125 25.29296875 C-0.48120651 24.56757401 -0.47413177 23.84217926 -0.46684265 23.09480286 C-0.43898406 20.79129297 -0.37627191 18.49026749 -0.3125 16.1875 C-0.28740563 14.62047797 -0.26459444 13.0534176 -0.24414062 11.48632812 C-0.19344596 7.65583902 -0.09560764 3.83067957 0 0 Z " fill="#1D3690" transform="translate(72,214)"/>
<path d="M0 0 C4.6097266 -0.11505141 9.21444212 -0.21448773 13.82446289 -0.2746582 C15.39104114 -0.29974547 16.95750299 -0.33382415 18.52368164 -0.37719727 C20.78040309 -0.43811226 23.03557294 -0.46626499 25.29296875 -0.48828125 C25.98899704 -0.51408768 26.68502533 -0.5398941 27.40214539 -0.56648254 C31.26046906 -0.56868927 32.89201958 -0.0836877 35.9777832 2.30786133 C38 5 38 5 38.0625 8.5625 C36.88609332 12.3685216 36.15243916 13.63215656 33 16 C30.31827524 16.34959406 28.06062042 16.46923774 25.390625 16.390625 C24.66381531 16.38496521 23.93700562 16.37930542 23.18817139 16.37347412 C20.87476755 16.35114553 18.5629328 16.30096048 16.25 16.25 C14.67840784 16.22993023 13.10679132 16.21168029 11.53515625 16.1953125 C7.68901862 16.15469859 3.84625787 16.07641572 0 16 C0 10.72 0 5.44 0 0 Z " fill="#1D3690" transform="translate(214,120)"/>
<path d="M0 0 C1.08809212 0.01061211 1.08809212 0.01061211 2.19816589 0.0214386 C4.50167578 0.04929719 6.80270126 0.11200934 9.10546875 0.17578125 C10.67249078 0.20087562 12.23955115 0.22368681 13.80664062 0.24414062 C17.63712973 0.29483529 21.46228918 0.39267361 25.29296875 0.48828125 C25.29296875 5.76828125 25.29296875 11.04828125 25.29296875 16.48828125 C20.68255173 16.62636362 16.07934688 16.74565368 11.46850586 16.81787109 C9.90185196 16.84797726 8.33536572 16.88887355 6.76928711 16.94091797 C4.51243732 17.01402012 2.25782079 17.04779426 0 17.07421875 C-0.69602829 17.10518646 -1.39205658 17.13615417 -2.10917664 17.1680603 C-4.90426058 17.16997864 -7.06943136 17.01119633 -9.27456665 15.20269775 C-11.27565088 12.88758822 -12.60379144 10.91156448 -13.33203125 7.92578125 C-11.56529466 1.03550855 -6.33808086 -0.23499508 0 0 Z " fill="#1D368F" transform="translate(16.70703125,119.51171875)"/>
<path d="M0 0 C4.6097266 -0.11505141 9.21444212 -0.21448773 13.82446289 -0.2746582 C15.39104114 -0.29974547 16.95750299 -0.33382415 18.52368164 -0.37719727 C20.78040309 -0.43811226 23.03557294 -0.46626499 25.29296875 -0.48828125 C25.98899704 -0.51408768 26.68502533 -0.5398941 27.40214539 -0.56648254 C31.25962093 -0.56868878 32.89032331 -0.08511401 35.97387695 2.30786133 C38 5 38 5 38.125 8.5625 C36.76988313 12.70313488 35.66129302 13.71358128 32 16 C28.49487305 16.45410156 28.49487305 16.45410156 24.51171875 16.390625 C23.80852005 16.38496521 23.10532135 16.37930542 22.3808136 16.37347412 C20.14899752 16.35119769 17.91882539 16.30102373 15.6875 16.25 C14.16864309 16.22992343 12.64976084 16.21167468 11.13085938 16.1953125 C7.41944009 16.15477269 3.71154561 16.07648291 0 16 C0 10.72 0 5.44 0 0 Z " fill="#1D3790" transform="translate(214,72)"/>
<path d="M0 0 C5.28 0 10.56 0 16 0 C16.13808237 4.61041702 16.25737243 9.21362187 16.32958984 13.82446289 C16.35969601 15.39111679 16.4005923 16.95760303 16.45263672 18.52368164 C16.52573887 20.78053143 16.55951301 23.03514796 16.5859375 25.29296875 C16.61690521 25.98899704 16.64787292 26.68502533 16.67977905 27.40214539 C16.68169425 30.19265286 16.50696146 32.36427536 14.73419189 34.58731079 C12.05199316 36.95450989 10.49263075 37.99014739 6.875 38.0625 C3.51072337 36.81918038 2.17965305 35.84658765 0 33 C-0.34959406 30.31827524 -0.46923774 28.06062042 -0.390625 25.390625 C-0.38496521 24.66381531 -0.37930542 23.93700562 -0.37347412 23.18817139 C-0.35114553 20.87476755 -0.30096048 18.5629328 -0.25 16.25 C-0.22993023 14.67840784 -0.21168029 13.10679132 -0.1953125 11.53515625 C-0.15469859 7.68901862 -0.07641572 3.84625787 0 0 Z " fill="#1C368F" transform="translate(120,214)"/>
<path d="M0 0 C4.44906818 -0.11519452 8.89291016 -0.21458347 13.34228516 -0.2746582 C14.85353174 -0.29971095 16.36465824 -0.33376377 17.87548828 -0.37719727 C20.05531501 -0.4382669 22.23353262 -0.46629916 24.4140625 -0.48828125 C26.37786865 -0.52755737 26.37786865 -0.52755737 28.38134766 -0.56762695 C33.14642919 0.17983051 34.71949596 1.51434592 38 5 C38.13704601 8.90581127 37.71024632 11.02444428 35.40527344 14.19042969 C32.13745877 16.64891957 29.31330738 16.50612063 25.390625 16.390625 C24.66381531 16.38496521 23.93700562 16.37930542 23.18817139 16.37347412 C20.87476755 16.35114553 18.5629328 16.30096048 16.25 16.25 C14.67840784 16.22993023 13.10679132 16.21168029 11.53515625 16.1953125 C7.68901862 16.15469859 3.84625787 16.07641572 0 16 C0 10.72 0 5.44 0 0 Z " fill="#1D3790" transform="translate(214,168)"/>
<path d="M0 0 C0.66 0.66 1.32 1.32 2 2 C4.71034638 2.33232684 4.71034638 2.33232684 7.91845703 2.31884766 C9.15959259 2.33871735 10.40072815 2.35858704 11.67947388 2.37905884 C13.03891827 2.39093611 14.39836455 2.40259892 15.7578125 2.4140625 C17.14502118 2.43276729 18.5322184 2.45234019 19.91940308 2.4727478 C23.57225804 2.52414812 27.22514994 2.56373125 30.87817383 2.60089111 C34.60507397 2.64088148 38.33181949 2.69199639 42.05859375 2.7421875 C49.37228988 2.83904019 56.6860606 2.92341475 64 3 C63.67 4.65 63.34 6.3 63 8 C53.1 8.495 53.1 8.495 43 9 C47.71635948 6.64182026 51.65360577 6.5964943 56.77539062 6.43359375 C58.52112932 6.35463212 60.26223979 6.18446671 62 6 C62.33 5.34 62.66 4.68 63 4 C41.88 4 20.76 4 -1 4 C-0.67 4.99 -0.34 5.98 0 7 C-1.32 7.33 -2.64 7.66 -4 8 C-4 50.57 -4 93.14 -4 137 C-6.17600238 133.73599642 -6.25076525 132.82357884 -6.25396729 129.04801941 C-6.25960693 128.02603958 -6.26524658 127.00405975 -6.27105713 125.95111084 C-6.26700867 124.83053284 -6.26296021 123.70995483 -6.25878906 122.55541992 C-6.2622937 121.37468399 -6.26579834 120.19394806 -6.26940918 118.97743225 C-6.27671116 115.7375858 -6.27498778 112.49790236 -6.26865101 109.25805831 C-6.26358802 105.86558295 -6.26828362 102.47311849 -6.27142334 99.0806427 C-6.2750636 93.38015793 -6.27026388 87.67972495 -6.26074219 81.97924805 C-6.24987314 75.396279 -6.25337164 68.81343398 -6.264395 62.23046798 C-6.27348487 56.57514805 -6.27474438 50.91986537 -6.26951766 45.26454049 C-6.26640528 41.88853539 -6.26596813 38.51258847 -6.27259064 35.13658714 C-6.27767074 31.36856086 -6.26992362 27.60077226 -6.25878906 23.83276367 C-6.26283752 22.71825836 -6.26688599 21.60375305 -6.27105713 20.45547485 C-6.2255043 12.13236341 -4.91265945 6.87772323 0 0 Z " fill="#4C5EA4" transform="translate(54,55)"/>
<path d="M0 0 C0.86625 0.3403125 0.86625 0.3403125 1.75 0.6875 C0.945625 1.161875 0.14125 1.63625 -0.6875 2.125 C-3.09753488 3.45650154 -3.09753488 3.45650154 -4.25 4.6875 C-4.61760731 7.01567964 -4.95241581 9.3493385 -5.25 11.6875 C-5.91 11.0275 -6.57 10.3675 -7.25 9.6875 C-7.11265864 5.91061259 -7.02235941 3.53975866 -4.4375 0.6875 C-2.25 -0.3125 -2.25 -0.3125 0 0 Z " fill="#41559B" transform="translate(11.25,168.3125)"/>
<path d="M0 0 C0 0.33 0 0.66 0 1 C-1.051875 1.0825 -2.10375 1.165 -3.1875 1.25 C-7.27047209 2.05320762 -9.0122727 3.19334709 -12 6 C-9.63080135 -0.92534991 -6.93648635 -1.30877101 0 0 Z " fill="#46599D" transform="translate(180,5)"/>
<path d="M0 0 C0.66 0.99 1.32 1.98 2 3 C1.01 3.495 1.01 3.495 0 4 C0 4.99 0 5.98 0 7 C-0.639375 7.103125 -1.27875 7.20625 -1.9375 7.3125 C-2.618125 7.539375 -3.29875 7.76625 -4 8 C-4.33 8.99 -4.66 9.98 -5 11 C-4.46884894 6.48521602 -2.63379708 3.65333143 0 0 Z " fill="#3F539C" transform="translate(54,55)"/>
</svg>
